<?xml version="1.0" encoding="iso-8859-1"?>
<!-- Generator: Adobe Illustrator 19.0.0, SVG Export Plug-In . SVG Version: 6.00 Build 0)  -->
<svg version="1.1" id="Capa_1" xmlns="http://www.w3.org/2000/svg" xmlns:xlink="http://www.w3.org/1999/xlink" x="0px" y="0px"
	 viewBox="0 0 512 512" style="enable-background:new 0 0 512 512;" xml:space="preserve">
<circle style="fill:#FFD189;" cx="262.75" cy="255.88" r="159.75"/>
<circle style="fill:#FFEDD1;" cx="155.76" cy="255.88" r="41.668"/>
<circle style="fill:#FEA2A0;" cx="457.43" cy="255.88" r="44.568"/>
<circle style="fill:#C8D0FF;" cx="307.77" cy="255.88" r="57.944"/>
<circle style="fill:#FFE5BB;" cx="36.04" cy="256.22" r="26.04"/>
<circle style="fill:#FFFFFF;" cx="354.97" cy="141.67" r="20"/>
<path d="M404.091,331.118c1.34,0.607,2.743,0.896,4.124,0.896c3.804,0,7.439-2.183,9.113-5.873l0.114-0.252
	c2.281-5.029,0.053-10.956-4.978-13.237s-10.956-0.054-13.237,4.978l-0.114,0.252C396.832,322.91,399.061,328.837,404.091,331.118z"
	/>
<path d="M392.435,349.728c-4.264-3.514-10.564-2.906-14.077,1.354c-28.584,34.67-70.721,54.555-115.604,54.555
	c-70.889,0-130.429-49.512-145.861-115.77c9.478,10.827,23.384,17.685,38.87,17.685c28.489,0,51.667-23.178,51.667-51.668
	s-23.178-51.668-51.667-51.668c-15.501,0-29.418,6.871-38.897,17.715c1.616-6.967,3.729-13.817,6.348-20.52
	c22.612-57.881,77.385-95.28,139.54-95.28c13.712,0,27.295,1.852,40.371,5.503c5.316,1.484,10.836-1.622,12.321-6.942
	c1.485-5.319-1.623-10.836-6.942-12.321c-14.827-4.14-30.22-6.239-45.75-6.239c-34.838,0-68.317,10.478-96.818,30.301
	c-27.842,19.363-49.057,46.232-61.351,77.702C96.897,213.809,93,234.585,93,255.885c0,93.603,76.15,169.753,169.753,169.753
	c50.878,0,98.639-22.537,131.036-61.832C397.303,359.544,396.696,353.242,392.435,349.728z M155.762,224.217
	c17.461,0,31.667,14.206,31.667,31.668s-14.206,31.668-31.667,31.668c-17.462,0-31.668-14.206-31.668-31.668
	S138.3,224.217,155.762,224.217z"/>
<path d="M457.432,201.316c-11.486,0-22.147,3.575-30.949,9.66c-2.315-8.457-5.273-16.733-8.877-24.735
	c-2.268-5.035-8.19-7.278-13.225-5.012c-5.036,2.269-7.279,8.189-5.012,13.225c4.948,10.985,8.525,22.549,10.687,34.406
	c-4.566,7.974-7.191,17.196-7.191,27.024c0,30.089,24.479,54.568,54.567,54.568S512,285.974,512,255.885
	S487.521,201.316,457.432,201.316z M457.432,290.453c-19.061,0-34.567-15.507-34.567-34.568s15.507-34.568,34.567-34.568
	c19.062,0,34.568,15.507,34.568,34.568S476.493,290.453,457.432,290.453z"/>
<path d="M239.83,255.885c0,37.465,30.479,67.944,67.944,67.944s67.944-30.479,67.944-67.944s-30.479-67.944-67.944-67.944
	S239.83,218.42,239.83,255.885z M355.719,255.885c0,26.437-21.508,47.944-47.944,47.944s-47.944-21.508-47.944-47.944
	s21.508-47.944,47.944-47.944S355.719,229.448,355.719,255.885z"/>
<path d="M36.042,220.182C16.168,220.182,0,236.35,0,256.224s16.168,36.042,36.042,36.042s36.043-16.168,36.043-36.042
	S55.916,220.182,36.042,220.182z M36.042,272.266c-8.846,0-16.042-7.196-16.042-16.042s7.196-16.042,16.042-16.042
	s16.043,7.196,16.043,16.042C52.085,265.07,44.888,272.266,36.042,272.266z"/>
<path d="M324.968,141.67c0,16.542,13.458,30,30,30s30-13.458,30-30s-13.458-30-30-30S324.968,125.128,324.968,141.67z
	 M354.968,131.67c5.514,0,10,4.486,10,10s-4.486,10-10,10s-10-4.486-10-10S349.454,131.67,354.968,131.67z"/>
<path d="M84.26,337.133c-2.292-5.024-8.223-7.238-13.248-4.948c-5.024,2.293-7.24,8.224-4.948,13.249
	c1.446,3.17,2.988,6.345,4.585,9.437c1.775,3.44,5.271,5.415,8.894,5.415c1.545,0,3.112-0.358,4.579-1.116
	c4.907-2.533,6.832-8.564,4.299-13.473C86.973,342.891,85.572,340.01,84.26,337.133z"/>
<path d="M423.604,385.082c-4.13-3.664-10.452-3.287-14.116,0.847c-2.092,2.358-4.273,4.701-6.483,6.964
	c-3.86,3.95-3.786,10.281,0.164,14.141c1.945,1.901,4.467,2.848,6.987,2.848c2.599,0,5.194-1.007,7.153-3.012
	c2.435-2.491,4.837-5.072,7.142-7.671C428.116,395.066,427.736,388.746,423.604,385.082z"/>
<path d="M447.955,346.884c-4.833-2.677-10.917-0.929-13.594,3.902c-0.807,1.457-1.654,2.941-2.52,4.411
	c-2.801,4.76-1.214,10.89,3.546,13.69c1.593,0.938,3.339,1.384,5.063,1.384c3.427,0,6.764-1.763,8.628-4.93
	c0.953-1.619,1.888-3.256,2.779-4.864C454.533,355.645,452.786,349.559,447.955,346.884z"/>
<path d="M331.913,439.405c-2.958,1.115-5.98,2.171-8.985,3.139c-5.257,1.693-8.146,7.327-6.453,12.584
	c1.365,4.238,5.291,6.938,9.517,6.938c1.016,0,2.049-0.156,3.067-0.484c3.313-1.067,6.647-2.231,9.909-3.461
	c5.168-1.948,7.778-7.717,5.83-12.885C342.851,440.068,337.084,437.458,331.913,439.405z"/>
<path d="M373.947,417.392c-2.605,1.797-5.284,3.551-7.963,5.213c-4.693,2.912-6.137,9.077-3.225,13.77
	c1.894,3.052,5.161,4.729,8.507,4.729c1.799,0,3.621-0.485,5.263-1.504c2.952-1.832,5.904-3.765,8.774-5.744
	c4.546-3.136,5.688-9.363,2.553-13.909C384.72,415.397,378.491,414.258,373.947,417.392z"/>
<path d="M285.806,450.608c-3.126,0.366-6.313,0.662-9.474,0.878c-5.51,0.377-9.671,5.149-9.294,10.659
	c0.361,5.277,4.754,9.317,9.967,9.317c0.229,0,0.46-0.008,0.692-0.023c3.479-0.238,6.989-0.563,10.435-0.966
	c5.485-0.643,9.411-5.61,8.77-11.096C296.259,453.892,291.296,449.97,285.806,450.608z"/>
<path d="M238.332,450.444c-3.143-0.391-6.309-0.862-9.41-1.401c-5.438-0.947-10.619,2.698-11.564,8.141
	c-0.945,5.441,2.699,10.619,8.141,11.564c3.417,0.594,6.904,1.113,10.365,1.544c0.419,0.052,0.835,0.077,1.247,0.077
	c4.972,0,9.281-3.705,9.911-8.767C247.703,456.122,243.813,451.127,238.332,450.444z"/>
<path d="M109.043,377.612c-3.432-4.328-9.724-5.056-14.049-1.622c-4.328,3.431-5.054,9.721-1.623,14.048
	c2.159,2.723,4.417,5.433,6.712,8.055c1.977,2.26,4.746,3.415,7.529,3.415c2.337,0,4.685-0.814,6.581-2.475
	c4.156-3.637,4.577-9.954,0.94-14.11C113.051,382.542,111.001,380.082,109.043,377.612z"/>
<path d="M150.456,416.625c-2.579-1.805-5.156-3.702-7.658-5.641c-4.366-3.381-10.647-2.584-14.029,1.783
	c-3.382,4.366-2.583,10.647,1.783,14.029c2.756,2.135,5.595,4.226,8.438,6.215c1.745,1.222,3.744,1.808,5.725,1.808
	c3.153,0,6.257-1.488,8.202-4.268C156.082,426.026,154.981,419.792,150.456,416.625z"/>
<path d="M192.318,438.921c-2.94-1.132-5.895-2.354-8.78-3.629c-5.052-2.235-10.957,0.051-13.189,5.102
	c-2.233,5.051,0.051,10.956,5.102,13.189c3.182,1.407,6.439,2.754,9.681,4.002c1.182,0.455,2.396,0.671,3.592,0.671
	c4.016,0,7.805-2.438,9.334-6.409C200.041,446.692,197.472,440.905,192.318,438.921z"/>
<path d="M437.798,167.465c1.762,3.479,5.278,5.484,8.929,5.484c1.52,0,3.062-0.348,4.51-1.081c4.927-2.494,6.898-8.512,4.403-13.438
	c-1.57-3.103-3.24-6.211-4.963-9.239c-2.73-4.802-8.838-6.479-13.637-3.748c-4.801,2.73-6.479,8.836-3.748,13.637
	C434.855,161.828,436.372,164.649,437.798,167.465z"/>
<path d="M411.394,128.022c1.978,2.297,4.771,3.475,7.582,3.475c2.311,0,4.633-0.797,6.521-2.423
	c4.186-3.604,4.656-9.918,1.052-14.103c-2.275-2.643-4.64-5.259-7.027-7.775c-3.802-4.005-10.13-4.175-14.138-0.372
	c-4.007,3.802-4.173,10.131-0.372,14.138C407.179,123.247,409.326,125.622,411.394,128.022z"/>
<path d="M368.441,90.715c2.655,1.702,5.306,3.494,7.877,5.324c1.76,1.252,3.785,1.854,5.791,1.854c3.126,0,6.204-1.461,8.155-4.201
	c3.203-4.499,2.152-10.743-2.347-13.946c-2.834-2.018-5.756-3.992-8.684-5.869c-4.649-2.981-10.836-1.626-13.815,3.022
	C362.438,81.549,363.792,87.734,368.441,90.715z"/>
<path d="M96.785,133.321c1.856,1.518,4.096,2.256,6.32,2.256c2.898,0,5.773-1.254,7.75-3.673c1.997-2.445,4.081-4.873,6.194-7.218
	c3.698-4.103,3.37-10.426-0.732-14.123c-4.102-3.698-10.427-3.37-14.123,0.732c-2.329,2.584-4.626,5.261-6.827,7.955
	C91.873,123.527,92.508,129.827,96.785,133.321z"/>
<path d="M182.301,76.122c1.304,0,2.629-0.257,3.905-0.799c2.899-1.231,5.876-2.41,8.847-3.504c5.184-1.906,7.84-7.654,5.933-12.837
	c-1.906-5.185-7.66-7.84-12.837-5.933c-3.278,1.205-6.563,2.506-9.763,3.865c-5.083,2.159-7.453,8.03-5.294,13.114
	C174.709,73.836,178.409,76.122,182.301,76.122z"/>
<path d="M230.24,62.37c0.52,0,1.046-0.041,1.575-0.125c3.123-0.494,6.297-0.918,9.432-1.26c5.49-0.6,9.455-5.536,8.856-11.026
	c-0.6-5.492-5.558-9.457-11.026-8.856c-3.453,0.378-6.947,0.845-10.387,1.389c-5.455,0.862-9.178,5.984-8.314,11.439
	C221.155,58.856,225.406,62.37,230.24,62.37z"/>
<path d="M85.669,149.974c-4.869-2.604-10.929-0.77-13.535,4.1c-1.641,3.066-3.229,6.214-4.718,9.355
	c-2.367,4.99-0.24,10.954,4.75,13.32c1.384,0.656,2.843,0.967,4.278,0.967c3.742,0,7.332-2.11,9.042-5.717
	c1.353-2.851,2.793-5.707,4.282-8.49C92.374,158.64,90.539,152.58,85.669,149.974z"/>
<path d="M139.096,101.039c2.091,0,4.201-0.654,6.001-2.008c2.521-1.896,5.127-3.756,7.743-5.53c4.57-3.101,5.763-9.318,2.663-13.89
	c-3.102-4.571-9.319-5.763-13.89-2.663c-2.884,1.956-5.755,4.007-8.534,6.097c-4.415,3.318-5.303,9.588-1.984,14.002
	C133.06,99.661,136.059,101.039,139.096,101.039z"/>
<path d="M325.706,70.143c2.989,1.013,5.99,2.112,8.921,3.268c1.204,0.475,2.444,0.699,3.664,0.699c3.987,0,7.756-2.402,9.307-6.336
	c2.024-5.139-0.499-10.945-5.637-12.971c-3.231-1.273-6.541-2.485-9.835-3.602c-5.232-1.771-10.908,1.03-12.681,6.261
	C317.673,62.694,320.476,68.371,325.706,70.143z"/>
<path d="M279.259,60.505c3.149,0.263,6.333,0.605,9.461,1.019c0.444,0.059,0.886,0.087,1.322,0.087c4.939,0,9.236-3.66,9.901-8.691
	c0.724-5.475-3.129-10.5-8.604-11.224c-3.444-0.455-6.949-0.832-10.418-1.122c-5.504-0.465-10.338,3.632-10.797,9.135
	C269.665,55.212,273.755,60.045,279.259,60.505z"/>
<g>
</g>
<g>
</g>
<g>
</g>
<g>
</g>
<g>
</g>
<g>
</g>
<g>
</g>
<g>
</g>
<g>
</g>
<g>
</g>
<g>
</g>
<g>
</g>
<g>
</g>
<g>
</g>
<g>
</g>
</svg>
