<?xml version="1.0" encoding="iso-8859-1"?>
<!-- Generator: Adobe Illustrator 19.0.0, SVG Export Plug-In . SVG Version: 6.00 Build 0)  -->
<svg version="1.1" id="Capa_1" xmlns="http://www.w3.org/2000/svg" xmlns:xlink="http://www.w3.org/1999/xlink" x="0px" y="0px"
	 viewBox="0 0 511.999 511.999" style="enable-background:new 0 0 511.999 511.999;" xml:space="preserve">
<path style="fill:#C6ECF6;" d="M501.997,501.983C471.943,394.376,373.195,315.435,256,315.435S40.056,394.377,10.003,501.983
	H501.997z"/>
<g>
	<path style="fill:#BDED7E;" d="M24.946,461.921H142.59c12.766,0,23.116-10.349,23.116-23.116l0,0
		c0-12.767-10.349-23.116-23.116-23.116l0,0c-14.285,0-25.866-11.581-25.866-25.866v-33.099
		C77.194,382.496,45.249,418.919,24.946,461.921z"/>
	<path style="fill:#BDED7E;" d="M408.192,365.728H283.628c-15.259,0-27.628,12.37-27.628,27.628s12.37,27.628,27.628,27.628h60.902
		c11.305,0,20.469,9.164,20.469,20.469l0,0c0,11.305-9.164,20.469-20.469,20.469h-19c-11.063,0-20.031,8.968-20.031,20.031l0,0
		c0,11.063,8.968,20.031,20.031,20.031h176.467C486.568,446.741,453.031,399.058,408.192,365.728z"/>
</g>
<path style="fill:#FFD189;" d="M243.525,108.227h40.297c11.843,0,22.834,6.159,29.017,16.26l25.595,41.815
	c5.811,9.494,6.61,21.231,2.139,31.426l-17.394,39.658c-3.083,7.03-8.454,12.811-15.238,16.402l-23.338,12.355
	c-9.993,5.29-21.961,5.27-31.936-0.053l-46.014-24.558c-14.303-7.633-21.232-24.298-16.558-39.822l20.855-69.271
	C215.276,118.066,228.514,108.227,243.525,108.227z"/>
<g>
	<path style="fill:#FFEDD1;" d="M210.949,132.44l-4.222,14.022l5.46,2.05c10.689,10.915,28.202,11.098,39.116,0.41
		c10.915-10.689,11.098-28.202,0.409-39.116l-2.098-1.578h-6.09C228.514,108.227,215.276,118.066,210.949,132.44z"/>
	<circle style="fill:#FFEDD1;" cx="275.997" cy="210.187" r="20"/>
</g>
<path d="M417.778,360.434C371.056,324.453,315.114,305.434,256,305.434s-115.057,19.019-161.778,54.999
	C48.979,395.275,15.65,444.589,0.371,499.293c-1.485,5.318,1.623,10.835,6.941,12.321c5.315,1.482,10.836-1.622,12.322-6.941
	c14.617-52.337,45.896-96.839,87.09-128.413v13.563c0,19.777,16.09,35.867,35.866,35.867c7.232,0,13.116,5.884,13.116,13.115
	c0,7.232-5.884,13.116-13.116,13.116H89.002c-5.522,0-10,4.478-10,10s4.478,10,10,10h53.588c18.261,0,33.116-14.855,33.116-33.116
	c0-18.26-14.855-33.115-33.116-33.115c-8.749,0-15.866-7.118-15.866-15.867v-27.388c37.961-23.578,82.478-37.001,129.275-37.001
	c42.158,0,82.465,10.897,117.797,30.294h-90.168c-20.749,0-37.629,16.88-37.629,37.628c0,20.749,16.88,37.629,37.629,37.629h60.901
	c5.772,0,10.469,4.696,10.469,10.469s-4.696,10.469-10.469,10.469h-19c-16.56,0-30.031,13.472-30.031,30.031
	c0,16.559,13.472,30.031,30.031,30.031h88.468c5.522,0,10-4.478,10-10s-4.478-10-10-10H325.53c-5.531,0-10.031-4.5-10.031-10.031
	s4.5-10.031,10.031-10.031h19c16.801,0,30.469-13.668,30.469-30.469c0-16.801-13.668-30.469-30.469-30.469h-60.901
	c-9.721,0-17.629-7.908-17.629-17.629c0-9.72,7.908-17.628,17.629-17.628h119.754c0.379,0,0.751-0.025,1.119-0.066
	c41.578,31.608,73.155,76.345,87.864,129.013c1.234,4.419,5.252,7.313,9.626,7.313c0.891,0,1.796-0.12,2.696-0.371
	c5.318-1.486,8.427-7.003,6.941-12.321C496.349,444.589,463.019,395.275,417.778,360.434z"/>
<path d="M459.497,491.983c-2.63,0-5.21,1.069-7.07,2.93c-1.86,1.861-2.93,4.44-2.93,7.07s1.069,5.21,2.93,7.069
	c1.86,1.86,4.44,2.931,7.07,2.931s5.21-1.07,7.069-2.931c1.86-1.859,2.931-4.439,2.931-7.069s-1.07-5.21-2.931-7.07
	C464.707,493.052,462.127,491.983,459.497,491.983z"/>
<path d="M201.945,250.354l46.013,24.558c6.486,3.462,13.605,5.192,20.728,5.192c7.071,0,14.145-1.708,20.597-5.123l23.337-12.355
	c8.742-4.628,15.745-12.165,19.718-21.224l17.395-39.658c5.781-13.185,4.747-28.386-2.769-40.663l-25.595-41.815
	c-7.943-12.978-22.33-21.04-37.546-21.04h-40.297c-19.571,0-36.511,12.591-42.151,31.331l-20.855,69.27
	C174.493,218.842,183.504,240.513,201.945,250.354z M243.525,118.227h2.29c2.498,3.156,3.837,7.037,3.795,11.117
	c-0.05,4.718-1.933,9.133-5.303,12.434c-3.372,3.3-7.803,5.085-12.542,5.041c-4.717-0.049-9.133-1.933-12.434-5.303
	c-0.169-0.172-0.348-0.328-0.526-0.486l1.718-5.707C223.602,125.097,232.846,118.227,243.525,118.227z M199.67,204.594
	l12.975-43.096c5.919,3.533,12.613,5.304,19.31,5.304c9.512,0,19.03-3.57,26.346-10.735c7.188-7.038,11.204-16.454,11.31-26.514
	c0.041-3.894-0.514-7.702-1.608-11.326h15.821c8.303,0,16.153,4.399,20.487,11.481l25.595,41.815
	c4.102,6.699,4.666,14.994,1.511,22.188l-17.395,39.658c-2.167,4.943-5.988,9.056-10.759,11.581l-23.337,12.355
	c-7.066,3.742-15.495,3.728-22.55-0.038l-46.014-24.558C201.298,227.339,196.382,215.516,199.67,204.594z"/>
<path d="M276,240.186c16.542,0,30-13.458,30-30s-13.458-30-30-30c-16.542,0-30,13.458-30,30S259.458,240.186,276,240.186z
	 M276,200.187c5.514,0,10,4.486,10,10c0,5.514-4.486,10-10,10c-5.514,0-10-4.486-10-10C266,204.673,270.486,200.187,276,200.187z"/>
<path d="M276,86.244c2.56,0,5.118-0.977,7.071-2.929l66.221-66.221c3.905-3.905,3.905-10.237,0-14.143
	c-3.906-3.904-10.236-3.904-14.143,0l-66.221,66.221c-3.905,3.905-3.905,10.237,0,14.143C270.882,85.267,273.44,86.244,276,86.244z"
	/>
<path d="M370.646,83.635c2.56,0,5.118-0.977,7.071-2.929l63.624-63.624c3.905-3.905,3.905-10.237,0-14.143
	c-3.906-3.904-10.236-3.904-14.143,0l-63.624,63.624c-3.905,3.905-3.905,10.237,0,14.143
	C365.528,82.659,368.087,83.635,370.646,83.635z"/>
<path d="M339.579,90.557c-1.86,1.86-2.92,4.44-2.92,7.07s1.06,5.21,2.92,7.07c1.87,1.859,4.439,2.93,7.069,2.93
	c2.631,0,5.21-1.07,7.08-2.93c1.86-1.86,2.92-4.44,2.92-7.07s-1.06-5.21-2.92-7.07c-1.87-1.859-4.439-2.93-7.08-2.93
	C344.018,87.628,341.438,88.698,339.579,90.557z"/>
<path d="M469.33,59.988c2.56,0,5.118-0.977,7.071-2.929l32.667-32.667c3.905-3.905,3.905-10.237,0-14.143
	c-3.906-3.904-10.236-3.904-14.143,0l-32.667,32.667c-3.905,3.905-3.905,10.237,0,14.143
	C464.212,59.011,466.77,59.988,469.33,59.988z"/>
<path d="M363.595,141.583c-3.905,3.905-3.905,10.237,0,14.143c1.953,1.952,4.512,2.929,7.071,2.929s5.118-0.977,7.071-2.929
	l74.999-74.999c3.905-3.905,3.905-10.237,0-14.143c-3.906-3.904-10.236-3.904-14.143,0L363.595,141.583z"/>
<g>
</g>
<g>
</g>
<g>
</g>
<g>
</g>
<g>
</g>
<g>
</g>
<g>
</g>
<g>
</g>
<g>
</g>
<g>
</g>
<g>
</g>
<g>
</g>
<g>
</g>
<g>
</g>
<g>
</g>
</svg>
