<?xml version="1.0" encoding="iso-8859-1"?>
<!-- Generator: Adobe Illustrator 19.0.0, SVG Export Plug-In . SVG Version: 6.00 Build 0)  -->
<svg version="1.1" id="Capa_1" xmlns="http://www.w3.org/2000/svg" xmlns:xlink="http://www.w3.org/1999/xlink" x="0px" y="0px"
	 viewBox="0 0 512 512" style="enable-background:new 0 0 512 512;" xml:space="preserve">
<circle style="fill:#ECEEFF;" cx="255.993" cy="256.043" r="247.053"/>
<circle style="fill:#C8D0FF;" cx="255.993" cy="256.043" r="180.002"/>
<circle style="fill:#A4B2FF;" cx="255.993" cy="256.043" r="117.001"/>
<circle style="fill:#7C8FFF;" cx="255.993" cy="256.043" r="48.001"/>
<path d="M255.996,314.046c31.981,0,58.001-26.019,58.001-58.001s-26.019-58.001-58.001-58.001s-58.001,26.019-58.001,58.001
	S224.013,314.046,255.996,314.046z M255.996,218.045c20.953,0,38,17.047,38,38s-17.047,38-38,38s-38-17.047-38-38
	S235.041,218.045,255.996,218.045z"/>
<path d="M331.657,166.241c-3.905,3.905-3.905,10.237,0,14.143c41.72,41.719,41.72,109.603,0,151.322
	c-3.905,3.905-3.905,10.237,0,14.143c1.953,1.952,4.512,2.929,7.071,2.929s5.118-0.977,7.071-2.929
	c49.518-49.519,49.518-130.09,0-179.607C341.893,162.337,335.563,162.337,331.657,166.241z"/>
<path d="M160.263,172.585c-21.146,24.21-32.229,55.291-31.204,87.518c1.029,32.377,14.216,62.83,37.133,85.747
	c2.548,2.547,5.231,5.015,7.979,7.334c1.878,1.586,4.168,2.36,6.447,2.36c2.843,0,5.667-1.206,7.645-3.548
	c3.563-4.22,3.032-10.529-1.188-14.093c-2.32-1.959-4.588-4.044-6.74-6.196c-39.659-39.659-41.86-103.774-5.009-145.966
	c3.634-4.159,3.207-10.477-0.953-14.109C170.215,167.999,163.897,168.423,160.263,172.585z"/>
<path d="M511.661,242.853c-3.249-63.341-29.758-122.943-74.644-167.829c-25.821-25.821-56.091-45.439-89.965-58.306
	c-5.166-1.96-10.938,0.636-12.899,5.798c-1.961,5.163,0.635,10.938,5.798,12.899c31.214,11.856,59.114,29.94,82.924,53.751
	c85.325,85.324,92.775,220.505,17.33,314.441c-3.458,4.306-2.771,10.6,1.535,14.059c1.847,1.482,4.058,2.203,6.256,2.203
	c2.927,0,5.827-1.278,7.803-3.738C495.046,367.264,514.885,305.726,511.661,242.853z"/>
<path d="M89.117,89.167c22.591-22.592,48.934-40.065,78.292-51.937c5.12-2.069,7.593-7.898,5.522-13.019
	c-2.069-5.121-7.9-7.595-13.019-5.522C128.05,31.57,99.474,50.524,74.974,75.023c-42.196,42.199-68.442,98.111-73.899,157.44
	c-5.387,58.564,9.601,117.553,42.201,166.103c1.93,2.875,5.091,4.427,8.311,4.427c1.917,0,3.855-0.55,5.565-1.699
	c4.586-3.079,5.807-9.291,2.728-13.876C-2.741,294.16,9.555,168.728,89.117,89.167z"/>
<path d="M224.212,489.911c-3.163-0.427-6.353-0.924-9.481-1.477c-5.448-0.963-10.627,2.671-11.587,8.108
	c-0.96,5.439,2.67,10.627,8.108,11.587c3.394,0.599,6.853,1.138,10.28,1.602c0.455,0.062,0.906,0.091,1.353,0.091
	c4.928,0,9.219-3.643,9.897-8.661C233.522,495.688,229.685,490.651,224.212,489.911z"/>
<path d="M177.652,478.726c-3.002-1.054-6.025-2.185-8.986-3.361c-5.13-2.037-10.945,0.467-12.986,5.6
	c-2.04,5.133,0.468,10.946,5.6,12.986c3.212,1.276,6.493,2.504,9.75,3.646c1.096,0.385,2.213,0.567,3.312,0.567
	c4.128,0,7.991-2.576,9.436-6.691C185.605,486.262,182.863,480.554,177.652,478.726z"/>
<path d="M272.079,491.504c-3.167,0.216-6.391,0.369-9.58,0.456c-5.521,0.15-9.874,4.748-9.724,10.269
	c0.147,5.428,4.595,9.728,9.991,9.728c0.092,0,0.185-0.001,0.277-0.004c3.46-0.094,6.957-0.261,10.395-0.495
	c5.51-0.375,9.673-5.146,9.297-10.656C282.36,495.291,277.618,491.141,272.079,491.504z"/>
<path d="M134.334,458.341c-2.728-1.644-5.458-3.366-8.117-5.121c-4.612-3.04-10.813-1.768-13.854,2.841
	c-3.041,4.61-1.769,10.813,2.841,13.854c2.886,1.902,5.849,3.771,8.807,5.555c1.615,0.974,3.396,1.438,5.152,1.438
	c3.391,0,6.697-1.725,8.574-4.84C140.588,467.337,139.064,461.191,134.334,458.341z"/>
<path d="M89.117,422.924c-3.906-3.904-10.236-3.904-14.143,0c-3.905,3.905-3.905,10.237,0,14.143c2.45,2.45,4.973,4.874,7.497,7.204
	c1.923,1.775,4.355,2.652,6.78,2.652c2.694,0,5.38-1.082,7.351-3.217c3.746-4.059,3.493-10.385-0.564-14.131
	C93.707,427.426,91.379,425.188,89.117,422.924z"/>
<path d="M319.285,483.449c-3.073,0.852-6.2,1.65-9.295,2.375c-5.378,1.259-8.717,6.639-7.457,12.016
	c1.079,4.611,5.188,7.723,9.728,7.723c0.755,0,1.521-0.086,2.288-0.266c3.355-0.785,6.745-1.651,10.076-2.574
	c5.322-1.475,8.441-6.984,6.967-12.307C330.119,485.093,324.612,481.973,319.285,483.449z"/>
<path d="M363.862,466.031c-2.829,1.454-5.727,2.869-8.612,4.206c-5.012,2.321-7.192,8.266-4.87,13.276
	c1.69,3.651,5.305,5.799,9.08,5.799c1.406,0,2.836-0.298,4.196-0.929c3.133-1.45,6.278-2.986,9.349-4.565
	c4.912-2.524,6.848-8.553,4.322-13.465C374.802,465.441,368.774,463.505,363.862,466.031z"/>
<path d="M403.963,439.926c-2.476,1.998-5.025,3.972-7.578,5.866c-4.436,3.291-5.362,9.554-2.071,13.989
	c1.962,2.645,4.98,4.042,8.038,4.042c2.071,0,4.16-0.642,5.951-1.971c2.769-2.055,5.534-4.195,8.221-6.362
	c4.298-3.469,4.97-9.765,1.502-14.063C414.558,437.13,408.261,436.458,403.963,439.926z"/>
<path d="M407.252,141.017c-3.35-4.391-9.622-5.238-14.016-1.889c-4.392,3.35-5.237,9.624-1.889,14.016
	c1.903,2.496,3.759,5.074,5.515,7.662c1.934,2.851,5.081,4.387,8.284,4.387c1.933,0,3.886-0.56,5.605-1.726
	c4.57-3.101,5.762-9.319,2.661-13.89C411.453,146.685,409.379,143.805,407.252,141.017z"/>
<path d="M421.722,327.127c-4.948-2.452-10.949-0.434-13.403,4.513c-1.396,2.813-2.887,5.616-4.431,8.333
	c-2.729,4.802-1.05,10.906,3.751,13.636c1.561,0.887,3.258,1.309,4.934,1.309c3.479,0,6.859-1.819,8.702-5.06
	c1.729-3.042,3.397-6.18,4.96-9.327C428.69,335.583,426.669,329.582,421.722,327.127z"/>
<path d="M425.255,239.931c0.293,3.118,0.501,6.288,0.619,9.42c0.204,5.391,4.638,9.622,9.986,9.622c0.128,0,0.256-0.002,0.385-0.007
	c5.519-0.209,9.823-4.853,9.615-10.371c-0.133-3.502-0.366-7.046-0.693-10.533c-0.517-5.498-5.394-9.542-10.891-9.021
	C428.779,229.556,424.739,234.432,425.255,239.931z"/>
<path d="M365.313,125.839c1.876,1.578,4.161,2.349,6.435,2.349c2.849,0,5.678-1.211,7.656-3.561
	c3.556-4.226,3.014-10.534-1.212-14.091c-2.683-2.257-5.462-4.468-8.261-6.57c-4.418-3.316-10.686-2.425-14.002,1.99
	c-3.316,4.416-2.426,10.685,1.99,14.002C360.424,121.839,362.913,123.817,365.313,125.839z"/>
<path d="M440.631,300.919c0.822-3.402,1.562-6.874,2.195-10.32c0.999-5.432-2.594-10.645-8.025-11.645
	c-5.436-0.996-10.646,2.593-11.645,8.025c-0.567,3.086-1.229,6.194-1.965,9.24c-1.298,5.368,2.002,10.772,7.37,12.069
	c0.79,0.191,1.58,0.282,2.357,0.282C435.431,308.571,439.525,305.497,440.631,300.919z"/>
<path d="M316.729,97.215c2.923,1.115,5.857,2.33,8.722,3.611c1.326,0.593,2.712,0.874,4.076,0.874c3.823,0,7.473-2.205,9.135-5.921
	c2.255-5.041-0.005-10.956-5.047-13.211c-3.203-1.433-6.486-2.792-9.757-4.039c-5.156-1.972-10.939,0.617-12.907,5.778
	C308.982,89.468,311.569,95.246,316.729,97.215z"/>
<path d="M433.031,186.873c-2.008-5.146-7.81-7.686-12.952-5.677c-5.145,2.009-7.687,7.809-5.677,12.952
	c1.139,2.915,2.21,5.904,3.187,8.884c1.381,4.214,5.295,6.89,9.501,6.89c1.032,0,2.081-0.161,3.115-0.5
	c5.248-1.719,8.109-7.367,6.39-12.616C435.503,193.475,434.304,190.133,433.031,186.873z"/>
<path d="M77.946,284.591c5.494-0.563,9.491-5.474,8.929-10.968c-0.319-3.116-0.555-6.283-0.7-9.414
	c-0.256-5.518-4.949-9.755-10.452-9.526c-5.518,0.256-9.782,4.936-9.526,10.452c0.162,3.501,0.426,7.042,0.782,10.527
	c0.527,5.147,4.871,8.981,9.937,8.981C77.254,284.644,77.599,284.626,77.946,284.591z"/>
<path d="M135.786,121.693c-3.906-3.904-10.236-3.904-14.143,0c-2.483,2.483-4.923,5.062-7.251,7.661
	c-3.685,4.113-3.336,10.436,0.777,14.12c1.909,1.71,4.293,2.551,6.669,2.551c2.744,0,5.478-1.123,7.452-3.328
	c2.084-2.328,4.27-4.637,6.495-6.861C139.691,131.931,139.691,125.599,135.786,121.693z"/>
<path d="M103.529,159.792c-4.828-2.686-10.915-0.95-13.601,3.878c-1.704,3.063-3.344,6.217-4.873,9.372
	c-2.409,4.97-0.334,10.951,4.636,13.36c1.405,0.682,2.892,1.004,4.355,1.004c3.711,0,7.277-2.075,9.005-5.64
	c1.367-2.819,2.832-5.637,4.355-8.374C110.091,168.566,108.355,162.478,103.529,159.792z"/>
<path d="M82.198,304.172c-5.233,1.766-8.044,7.439-6.277,12.672c1.119,3.316,2.348,6.648,3.653,9.903
	c1.565,3.906,5.318,6.281,9.284,6.281c1.239,0,2.499-0.232,3.719-0.722c5.126-2.055,7.615-7.877,5.56-13.003
	c-1.167-2.91-2.266-5.89-3.267-8.854C93.104,305.217,87.429,302.401,82.198,304.172z"/>
<path d="M83.013,205.298c-5.378-1.259-10.755,2.089-12.009,7.468c-0.797,3.417-1.508,6.896-2.111,10.34
	c-0.954,5.44,2.683,10.623,8.122,11.577c0.585,0.103,1.166,0.152,1.739,0.152c4.766,0,8.986-3.419,9.838-8.274
	c0.54-3.082,1.176-6.195,1.89-9.254C91.736,211.929,88.392,206.552,83.013,205.298z"/>
<path d="M207.995,197.045c5.522,0,10-4.478,10-10V64.043c0-5.522-4.478-10-10-10s-10,4.478-10,10v123.001
	C197.995,192.567,202.472,197.045,207.995,197.045z"/>
<path d="M255.996,143.044c5.522,0,10-4.478,10-10V10.043c0-5.522-4.478-10-10-10c-5.522,0-10,4.478-10,10v123.001
	C245.996,138.566,250.473,143.044,255.996,143.044z"/>
<path d="M255.996,178.654c2.63,0,5.21-1.069,7.069-2.93c1.86-1.87,2.931-4.439,2.931-7.07c0-2.64-1.07-5.21-2.931-7.069
	c-1.859-1.87-4.439-2.931-7.069-2.931c-2.63,0-5.21,1.061-7.07,2.931c-1.86,1.859-2.93,4.439-2.93,7.069
	c0,2.631,1.069,5.2,2.93,7.07C250.786,177.585,253.366,178.654,255.996,178.654z"/>
<path d="M303.996,197.045c5.522,0,10-4.478,10-10v-59.001c0-5.522-4.478-10-10-10s-10,4.478-10,10v59.001
	C293.996,192.567,298.473,197.045,303.996,197.045z"/>
<path d="M390.347,376.255c-3.904-3.902-10.234-3.904-14.143,0c-66.284,66.284-174.135,66.284-240.419,0
	c-3.906-3.904-10.236-3.904-14.143,0c-3.905,3.905-3.905,10.237,0,14.143c37.041,37.04,85.696,55.561,134.353,55.561
	s97.311-18.52,134.353-55.561C394.252,386.492,394.252,380.16,390.347,376.255z"/>
<path d="M314.8,345.468c-2.53,1.669-5.166,3.248-7.832,4.693c-4.855,2.632-6.658,8.701-4.025,13.557
	c1.811,3.341,5.249,5.236,8.8,5.236c1.609,0,3.242-0.39,4.757-1.211c3.169-1.718,6.302-3.595,9.311-5.578
	c4.61-3.04,5.884-9.242,2.844-13.854C325.616,343.702,319.412,342.424,314.8,345.468z"/>
<path d="M272.482,361.776c-3.001,0.466-6.058,0.808-9.088,1.016c-5.51,0.379-9.669,5.153-9.29,10.663
	c0.363,5.276,4.756,9.313,9.967,9.313c0.23,0,0.463-0.008,0.696-0.023c3.594-0.247,7.222-0.652,10.781-1.205
	c5.458-0.847,9.195-5.958,8.349-11.415C283.05,364.667,277.939,360.94,272.482,361.776z"/>
<path d="M218.47,356.281c-5.168-1.931-10.935,0.694-12.867,5.869c-1.933,5.173,0.695,10.935,5.869,12.867
	c3.37,1.259,6.843,2.389,10.318,3.358c0.899,0.251,1.804,0.371,2.693,0.371c4.375,0,8.393-2.895,9.626-7.315
	c1.484-5.32-1.625-10.836-6.944-12.319C224.235,358.295,221.31,357.343,218.47,356.281z"/>
<g>
</g>
<g>
</g>
<g>
</g>
<g>
</g>
<g>
</g>
<g>
</g>
<g>
</g>
<g>
</g>
<g>
</g>
<g>
</g>
<g>
</g>
<g>
</g>
<g>
</g>
<g>
</g>
<g>
</g>
</svg>
