<?xml version="1.0" encoding="iso-8859-1"?>
<!-- Generator: Adobe Illustrator 19.0.0, SVG Export Plug-In . SVG Version: 6.00 Build 0)  -->
<svg version="1.1" id="Capa_1" xmlns="http://www.w3.org/2000/svg" xmlns:xlink="http://www.w3.org/1999/xlink" x="0px" y="0px"
	 viewBox="0 0 512 512" style="enable-background:new 0 0 512 512;" xml:space="preserve">
<rect x="327" y="192" style="fill:#ECEEFF;" width="120.85" height="48"/>
<path style="fill:#9AA9FF;" d="M50,262h-7.5C24.551,262,10,247.449,10,229.5l0,0c0-17.949,14.551-32.5,32.5-32.5H50V262z"/>
<path style="fill:#C8D0FF;" d="M470.833,184.833L470.833,184.833c-17.213,0-31.167,13.954-31.167,31.167l0,0
	c0,17.213,13.954,31.167,31.167,31.167l0,0C488.046,247.167,502,233.213,502,216l0,0C502,198.787,488.046,184.833,470.833,184.833z"
	/>
<path style="fill:#9AA9FF;" d="M137,502H10v-24.781c0-8.44,6.842-15.281,15.281-15.281h96.438c8.44,0,15.281,6.842,15.281,15.281
	V502z"/>
<polygon style="fill:#C8D0FF;" points="113,462 26.666,462 83.588,319.2 169.923,319.2 "/>
<path style="fill:#FE7A77;" d="M223.933,319.2h-127.8C70.655,319.2,50,298.545,50,273.067V159.2
	c0-25.479,20.655-46.133,46.133-46.133h127.8c56.922,0,103.067,46.144,103.067,103.067l0,0C327,273.056,280.856,319.2,223.933,319.2
	z"/>
<g>
	<path style="fill:#ECEEFF;" d="M264.333,187h-155c-8.1,0-14.667,6.566-14.667,14.667v28.667c0,8.1,6.566,14.667,14.667,14.667h155
		c8.1,0,14.667-6.566,14.667-14.667v-28.667C279,193.566,272.434,187,264.333,187z"/>
	
		<rect x="424.673" y="19.66" transform="matrix(-0.7071 0.7071 -0.7071 -0.7071 795.1642 -243.4071)" style="fill:#ECEEFF;" width="46.642" height="46.642"/>
	
		<rect x="303.669" y="365.634" transform="matrix(-0.7071 0.7071 -0.7071 -0.7071 833.2388 432.7709)" style="fill:#ECEEFF;" width="46.642" height="46.642"/>
</g>
<path d="M162.33,123.069c2.63,0,5.21-1.069,7.07-2.93c1.87-1.859,2.93-4.439,2.93-7.07c0-2.64-1.06-5.21-2.93-7.079
	c-1.86-1.86-4.43-2.921-7.07-2.921c-2.63,0-5.21,1.061-7.07,2.921c-1.86,1.869-2.93,4.439-2.93,7.079c0,2.631,1.07,5.2,2.93,7.07
	C157.12,122,159.7,123.069,162.33,123.069z"/>
<path d="M223.934,329.2c50.552,0,93.458-33.348,107.883-79.2h115.838c6.607,4.518,14.588,7.167,23.179,7.167
	C493.533,257.167,512,238.699,512,216s-18.467-41.167-41.167-41.167c-22.7,0-41.167,18.468-41.167,41.167
	c0,4.914,0.868,9.627,2.455,14h-95.972c0.558-4.546,0.851-9.173,0.851-13.867c0-4.786-0.302-9.502-0.882-14.133H367
	c5.523,0,10-4.478,10-10s-4.477-10-10-10h-35.27c-14.507-45.714-57.343-78.934-107.796-78.934h-23.6c-5.523,0-10,4.478-10,10
	s4.477,10,10,10h23.6c51.317,0,93.066,41.75,93.066,93.067S275.25,309.2,223.934,309.2h-127.8C76.209,309.2,60,292.99,60,273.066
	V159.2c0-19.924,16.209-36.134,36.133-36.134h20.2c5.523,0,10-4.478,10-10s-4.477-10-10-10h-20.2
	C65.181,103.066,40,128.248,40,159.2v27.879c-22.275,1.299-40,19.826-40,42.42s17.725,41.121,40,42.42v1.146
	c0,21.991,12.717,41.058,31.178,50.261l-51.521,129.25C8.416,455.141,0,465.212,0,477.219V502c0,5.522,4.477,10,10,10h127
	c5.523,0,10-4.478,10-10v-24.781c0-11.948-8.334-21.98-19.493-24.605L176.702,329.2H223.934z M470.833,194.833
	c11.671,0,21.167,9.495,21.167,21.167s-9.495,21.167-21.167,21.167s-21.167-9.495-21.167-21.167S459.162,194.833,470.833,194.833z
	 M20,229.5c0-11.562,8.766-21.114,20-22.362v44.725C28.766,250.614,20,241.062,20,229.5z M125.212,404.358H60.408l10.994-27.579
	h64.804L125.212,404.358z M41.442,451.938l10.994-27.579h64.804l-10.994,27.579H41.442z M127,492H20v-14.781
	c0-2.912,2.369-5.281,5.281-5.281h0.372c0.335,0.034,0.672,0.063,1.013,0.063H113c0.356,0,0.708-0.025,1.056-0.063h7.663
	c2.912,0,5.281,2.369,5.281,5.281V492z M144.178,356.779H79.374L90.367,329.2h5.766h59.038L144.178,356.779z"/>
<path d="M402.5,202c2.63,0,5.21-1.07,7.07-2.931c1.86-1.859,2.93-4.439,2.93-7.069s-1.07-5.21-2.93-7.07s-4.44-2.93-7.07-2.93
	s-5.21,1.069-7.07,2.93c-1.86,1.86-2.93,4.44-2.93,7.07s1.07,5.21,2.93,7.069C397.29,200.93,399.87,202,402.5,202z"/>
<path d="M289,230.333v-28.666C289,188.065,277.935,177,264.333,177h-155c-13.602,0-24.667,11.065-24.667,24.667v28.666
	c0,13.602,11.065,24.667,24.667,24.667h155C277.935,255,289,243.935,289,230.333z M269,230.333c0,2.573-2.093,4.667-4.667,4.667
	h-30.691l35.028-35.028c0.207,0.527,0.33,1.095,0.33,1.695V230.333z M152.143,235l38-38h53.215l-38,38H152.143z M104.667,230.333
	v-28.666c0-2.573,2.094-4.667,4.667-4.667h52.524l-38,38h-14.524C106.76,235,104.667,232.906,104.667,230.333z"/>
<path d="M440.929,83.033c1.953,1.952,4.512,2.929,7.071,2.929s5.118-0.977,7.071-2.929l32.981-32.98
	c1.875-1.876,2.929-4.419,2.929-7.071s-1.054-5.195-2.929-7.071L455.071,2.929C453.196,1.054,450.652,0,448,0
	s-5.196,1.054-7.071,2.929L407.948,35.91c-1.875,1.876-2.929,4.419-2.929,7.071s1.054,5.195,2.929,7.071L440.929,83.033z
	 M448,24.143l18.839,18.839L448,61.82l-18.839-18.839L448,24.143z"/>
<path d="M334.071,348.904c-3.905-3.904-10.236-3.904-14.142,0l-32.981,32.98c-1.875,1.876-2.929,4.419-2.929,7.071
	s1.054,5.195,2.929,7.071l32.981,32.981c1.875,1.875,4.419,2.929,7.071,2.929s5.196-1.054,7.071-2.929l32.981-32.981
	c1.875-1.876,2.929-4.419,2.929-7.071s-1.054-5.195-2.929-7.071L334.071,348.904z M327,407.795l-18.839-18.839L327,370.117
	l18.839,18.839L327,407.795z"/>
<path d="M87.59,272.6c-1.86,1.86-2.92,4.44-2.92,7.07s1.06,5.2,2.92,7.07c1.87,1.859,4.44,2.93,7.08,2.93
	c2.63,0,5.21-1.07,7.07-2.93c1.86-1.87,2.93-4.44,2.93-7.07s-1.07-5.21-2.93-7.07c-1.86-1.87-4.44-2.93-7.07-2.93
	C92.03,269.67,89.46,270.729,87.59,272.6z"/>
<path d="M127.71,272.6c-1.86,1.86-2.93,4.431-2.93,7.07c0,2.63,1.07,5.21,2.93,7.07c1.86,1.859,4.43,2.93,7.07,2.93
	c2.63,0,5.21-1.07,7.07-2.93c1.86-1.87,2.93-4.44,2.93-7.07s-1.07-5.21-2.93-7.07c-1.86-1.87-4.44-2.93-7.07-2.93
	C132.14,269.67,129.57,270.729,127.71,272.6z"/>
<path d="M167.82,272.6c-1.86,1.86-2.93,4.431-2.93,7.07c0,2.63,1.07,5.21,2.93,7.07c1.86,1.859,4.43,2.93,7.07,2.93
	c2.63,0,5.21-1.07,7.07-2.93c1.86-1.87,2.93-4.44,2.93-7.07s-1.07-5.21-2.93-7.07c-1.86-1.87-4.44-2.93-7.07-2.93
	C172.25,269.67,169.68,270.729,167.82,272.6z"/>
<path d="M207.93,272.6c-1.86,1.86-2.93,4.431-2.93,7.07c0,2.63,1.07,5.21,2.93,7.07c1.86,1.859,4.44,2.93,7.07,2.93
	s5.21-1.07,7.07-2.93c1.86-1.87,2.93-4.44,2.93-7.07s-1.07-5.21-2.93-7.07c-1.86-1.87-4.44-2.93-7.07-2.93
	S209.79,270.729,207.93,272.6z"/>
<path d="M500.981,334h-10v-9.683c0-5.522-4.477-10-10-10s-10,4.478-10,10V334h-10c-5.523,0-10,4.478-10,10s4.477,10,10,10h10v9.683
	c0,5.522,4.477,10,10,10s10-4.478,10-10V354h10c5.523,0,10-4.478,10-10S506.504,334,500.981,334z"/>
<path d="M166.833,52.981h10v9.682c0,5.522,4.477,10,10,10s10-4.478,10-10v-9.682h10c5.523,0,10-4.478,10-10s-4.477-10-10-10h-10
	v-9.683c0-5.522-4.477-10-10-10s-10,4.478-10,10v9.683h-10c-5.523,0-10,4.478-10,10S161.311,52.981,166.833,52.981z"/>
<g>
</g>
<g>
</g>
<g>
</g>
<g>
</g>
<g>
</g>
<g>
</g>
<g>
</g>
<g>
</g>
<g>
</g>
<g>
</g>
<g>
</g>
<g>
</g>
<g>
</g>
<g>
</g>
<g>
</g>
</svg>
