<?xml version="1.0" encoding="iso-8859-1"?>
<!-- Generator: Adobe Illustrator 19.0.0, SVG Export Plug-In . SVG Version: 6.00 Build 0)  -->
<svg version="1.1" id="Capa_1" xmlns="http://www.w3.org/2000/svg" xmlns:xlink="http://www.w3.org/1999/xlink" x="0px" y="0px"
	 viewBox="0 0 512 512" style="enable-background:new 0 0 512 512;" xml:space="preserve">
<circle style="fill:#C6ECF6;" cx="209.997" cy="301.996" r="199.997"/>
<g>
	<path style="fill:#BDED7E;" d="M209.997,101.995c-88.566,0-163.673,57.573-189.969,137.331h85.687
		c10.668,0,20.559-5.58,26.077-14.71l18.086-29.929c5.518-9.13,15.409-14.71,26.077-14.71l0,0c12.509,0,23.748-7.646,28.341-19.282
		l17.117-43.363c0,0,3.252-2.773,7.42-6.638c2.649-2.372,4.958-4.72,6.984-7.045C227.364,102.561,218.747,101.995,209.997,101.995z"
		/>
	<path style="fill:#BDED7E;" d="M409.994,301.992c0-68.801-34.745-129.481-87.641-165.469c-0.672,0.544-1.31,1.135-1.883,1.8
		l-13.655,15.851c-4.681,5.434-4.71,13.466-0.069,18.933l0,0c5.729,6.749,4.163,17.006-3.32,21.738l-29.308,18.533
		c-6.595,4.17-10.593,11.429-10.593,19.231v11.523c0,5.158-2.728,9.932-7.173,12.55l-27.99,16.489
		c-15.263,8.992-24.632,25.385-24.632,43.099c0,18.396,10.097,35.307,26.29,44.033l10.942,5.897
		c1.221,0.658,2.531,1.139,3.888,1.427l12.003,2.546c11.742,2.491,20.14,12.857,20.14,24.86v16.604c0,5.452-1.753,10.759-5,15.138
		l-26.591,35.858l26.937,29.434C352.265,465.867,409.994,390.677,409.994,301.992z"/>
	<path style="fill:#BDED7E;" d="M73.826,311.843l-7.838-17.971c-3.836-8.794-11.684-15.19-21.072-17.17
		c-10.755-2.269-24.656-5.177-32.36-6.691C10.883,280.426,10,291.105,10,301.992c0,48.886,17.55,93.668,46.679,128.411l3.486-10.519
		c2.48-7.483,7.052-14.099,13.174-19.065l39.379-31.941c6.56-5.321,6.852-15.23,0.617-20.928L73.826,311.843z"/>
</g>
<path style="fill:#ECEEFF;" d="M143.874,290.358c21.478-21.478,56.3-21.478,77.779,0c21.478,21.478,21.478,56.3,0,77.779
	L143.874,290.358z"/>
<path style="fill:#AFBAFF;" d="M411.274,52.776l48.145,48.145l-10.384,10.384c-13.295,13.295-34.851,13.295-48.145,0l0,0
	c-13.295-13.295-13.295-34.851,0-48.145L411.274,52.776z"/>
<path style="fill:#C8D0FF;" d="M355.81,111.983l44.403,44.403c7.624,7.624,7.624,19.985,0,27.609L271.582,312.624
	c-7.624,7.624-19.985,7.624-27.609,0L199.57,268.22c-7.624-7.624-7.624-19.985,0-27.609l128.63-128.63
	C335.825,104.359,348.186,104.359,355.81,111.983z"/>
<g>
	<path style="fill:#ECEEFF;" d="M341.435,295.799l41.952-41.952c7.81-7.81,20.474-7.81,28.284,0l84.485,84.485
		c7.81,7.81,7.81,20.474,0,28.284l-41.952,41.952c-7.81,7.81-20.474,7.81-28.284,0l-84.485-84.485
		C333.624,316.273,333.624,303.609,341.435,295.799z"/>
	<path style="fill:#ECEEFF;" d="M216.211,170.576l41.952-41.952c7.81-7.81,7.81-20.474,0-28.284l-84.485-84.485
		c-7.81-7.81-20.474-7.81-28.284,0l-41.952,41.952c-7.81,7.81-7.81,20.474,0,28.284l84.485,84.485
		C195.738,178.386,208.401,178.386,216.211,170.576z"/>
</g>
<path d="M377.751,411.816c-4.383-3.359-10.661-2.53-14.021,1.853c-0.037,0.048-0.082,0.107-0.123,0.163
	c-3.255,4.377-2.402,10.572,1.941,13.902c1.815,1.391,3.955,2.064,6.077,2.064c3.004,0,5.975-1.349,7.943-3.917
	c0.037-0.048,0.082-0.107,0.123-0.163C382.948,421.341,382.095,415.146,377.751,411.816z"/>
<path d="M503.227,331.26l-84.484-84.484c-5.666-5.666-13.2-8.786-21.213-8.786c-8.013,0-15.547,3.12-21.213,8.786l-13.906,13.906
	l-12.371-12.371l57.244-57.244c11.51-11.511,11.51-30.24,0-41.75l-15.131-15.131l9.557-9.556c7.092,4.41,15.17,6.627,23.253,6.627
	c11.279,0,22.558-4.293,31.144-12.879l10.384-10.385c3.905-3.905,3.905-10.237,0-14.143l-48.145-48.145
	c-1.875-1.875-4.419-2.929-7.071-2.929s-5.196,1.054-7.071,2.929L393.82,56.089c-14.74,14.74-16.815,37.408-6.251,54.396
	l-9.556,9.556l-15.131-15.131c-5.576-5.576-12.99-8.646-20.875-8.646c-7.886,0-15.3,3.07-20.875,8.646l-57.244,57.244
	l-12.557-12.557l13.906-13.905c11.696-11.697,11.696-30.729,0-42.426L180.751,8.782c-11.697-11.695-30.729-11.696-42.425,0
	L96.372,50.736c-11.697,11.697-11.697,30.729,0,42.426l20.54,20.54C45.493,148.986,0,221.584,0,301.992
	c0,115.792,94.205,209.997,209.997,209.997c54.48,0,106.123-20.772,145.411-58.489c3.984-3.825,4.113-10.155,0.289-14.139
	c-3.825-3.985-10.155-4.116-14.139-0.289c-19.262,18.492-41.81,32.47-66.266,41.406l-9.781-10.688
	c-4.15-4.534-4.505-11.41-0.843-16.349l15.359-20.711c4.494-6.06,6.968-13.551,6.968-21.095v-37.191c0-5.522-4.477-10-10-10
	c-5.523,0-10,4.478-10,10v37.191c0,3.283-1.077,6.544-3.033,9.181l-15.359,20.712c-9.354,12.616-8.448,30.181,2.154,41.764
	l3.263,3.566c-14.276,3.38-29.03,5.129-44.023,5.129c-56.428,0-107.18-24.736-142.009-63.923l1.669-5.037
	c1.882-5.679,5.334-10.675,9.981-14.444l39.379-31.941c5.39-4.371,8.598-10.857,8.803-17.794s-2.616-13.601-7.739-18.282
	l-37.939-34.673l-6.988-16.021c-5.117-11.732-15.649-20.314-28.173-22.956c-6.955-1.468-15.513-3.263-22.786-4.757
	c0.923-4.328,1.991-8.609,3.205-12.836h75.808c15.627,0,30.356-8.309,38.438-21.683l18.014-29.81
	c2.856-4.727,1.34-10.874-3.387-13.73c-4.726-2.856-10.874-1.341-13.73,3.387L124.53,217.3
	c-4.483,7.419-12.653,12.027-21.322,12.027H34.382c18.157-43.966,52.538-80.313,97.553-100.602l48.922,48.922
	c5.849,5.849,13.531,8.772,21.213,8.772c7.682,0,15.365-2.924,21.213-8.772l13.906-13.906l12.557,12.557L192.5,233.543
	c-8.316,8.316-10.62,20.398-6.921,30.806c-17.571-0.755-35.391,5.554-48.777,18.939c-1.875,1.875-2.929,4.419-2.929,7.071
	s1.054,5.195,2.929,7.071l77.779,77.779c1.875,1.875,4.419,2.929,7.071,2.929c2.652,0,5.196-1.054,7.071-2.929
	c13.351-13.352,19.66-31.114,18.943-48.639c3.198,1.163,6.608,1.773,10.112,1.773c7.885,0,15.299-3.07,20.875-8.646l57.244-57.244
	l12.371,12.372l-13.905,13.905c-11.697,11.697-11.697,30.729,0,42.426l84.484,84.484c5.849,5.849,13.531,8.772,21.214,8.772
	c7.682,0,15.365-2.924,21.213-8.772l41.952-41.952C514.924,361.988,514.924,342.956,503.227,331.26z M407.961,70.232l3.313-3.313
	l34.003,34.003l-3.313,3.313c-9.374,9.375-24.629,9.375-34.003,0c-4.542-4.541-7.042-10.579-7.042-17.002
	C400.919,80.811,403.42,74.773,407.961,70.232z M42.852,286.486c6.21,1.311,11.432,5.565,13.97,11.384l7.838,17.971
	c0.561,1.285,1.385,2.438,2.42,3.384l39.51,36.108c1.124,1.026,1.259,2.275,1.24,2.929c-0.019,0.653-0.228,1.892-1.41,2.851
	l-39.381,31.942c-5.642,4.578-10.206,10.258-13.449,16.677C32.421,379.093,20,341.968,20,301.992c0-6.755,0.362-13.447,1.058-20.059
	C28.081,283.379,36.202,285.083,42.852,286.486z M251.094,121.551l-13.906,13.906l-42.215-42.215l20.977-20.977l35.145,35.145
	C254.993,111.309,254.993,117.653,251.094,121.551z M159.538,20.001c2.561,0,5.122,0.975,7.071,2.924l35.198,35.199l-20.976,20.976
	L138.562,36.83l13.906-13.906C154.416,20.976,156.977,20.001,159.538,20.001z M110.514,64.878l13.905-13.906l42.268,42.268
	l-20.976,20.976l-35.198-35.198C106.615,75.121,106.615,68.777,110.514,64.878z M209.141,163.504
	C209.14,163.504,209.14,163.504,209.141,163.504c-3.899,3.9-10.243,3.898-14.143,0l-35.145-35.145l20.976-20.977l42.215,42.215
	L209.141,163.504z M220.869,353.211l-62.061-62.062c17.376-10.93,40.659-8.836,55.773,6.279c8.5,8.499,13.18,19.799,13.18,31.818
	C227.761,337.859,225.358,346.103,220.869,353.211z M264.511,305.553c-1.798,1.799-4.189,2.789-6.733,2.789
	c-2.544,0-4.935-0.99-6.733-2.789l-44.402-44.402c-1.799-1.799-2.789-4.189-2.789-6.733c0-2.543,0.99-4.935,2.789-6.732
	l128.63-128.631c1.798-1.799,4.189-2.789,6.733-2.789c2.544,0,4.935,0.99,6.733,2.789l44.403,44.403
	c3.712,3.712,3.712,9.754,0,13.466L264.511,305.553z M390.459,260.917c1.889-1.889,4.4-2.929,7.071-2.929s5.182,1.04,7.071,2.929
	l35.145,35.145l-20.976,20.976l-42.215-42.215L390.459,260.917z M348.506,302.87l13.905-13.905l42.215,42.215l-20.976,20.976
	l-35.145-35.145C344.607,313.113,344.607,306.769,348.506,302.87z M432.991,401.496l-35.198-35.198l20.976-20.976l42.268,42.268
	l-13.905,13.905C443.234,405.398,436.889,405.397,432.991,401.496z M489.085,359.543l-13.906,13.906l-42.268-42.268l20.976-20.976
	l35.198,35.198C492.984,349.3,492.984,355.645,489.085,359.543z"/>
<path d="M346.306,167.077l-52.549,52.55c-3.905,3.905-3.905,10.237,0,14.143c1.952,1.952,4.512,2.929,7.071,2.929
	s5.119-0.977,7.071-2.929l52.549-52.55c3.905-3.905,3.905-10.237,0-14.143C356.542,163.173,350.211,163.173,346.306,167.077z"/>
<path d="M278.106,239.423c-2.63,0-5.21,1.061-7.07,2.93c-1.86,1.86-2.93,4.431-2.93,7.07c0,2.63,1.07,5.21,2.93,7.07
	c1.86,1.859,4.44,2.93,7.07,2.93s5.21-1.07,7.07-2.93c1.86-1.86,2.93-4.44,2.93-7.07c0-2.64-1.07-5.21-2.93-7.07
	C283.316,240.484,280.736,239.423,278.106,239.423z"/>
<g>
</g>
<g>
</g>
<g>
</g>
<g>
</g>
<g>
</g>
<g>
</g>
<g>
</g>
<g>
</g>
<g>
</g>
<g>
</g>
<g>
</g>
<g>
</g>
<g>
</g>
<g>
</g>
<g>
</g>
</svg>
