<?xml version="1.0" encoding="iso-8859-1"?>
<!-- Generator: Adobe Illustrator 19.0.0, SVG Export Plug-In . SVG Version: 6.00 Build 0)  -->
<svg version="1.1" id="Capa_1" xmlns="http://www.w3.org/2000/svg" xmlns:xlink="http://www.w3.org/1999/xlink" x="0px" y="0px"
	 viewBox="0 0 512 512" style="enable-background:new 0 0 512 512;" xml:space="preserve">
<circle style="fill:#FFDFAD;" cx="256" cy="256.15" r="181.09"/>
<g>
	<circle style="fill:#FFC66C;" cx="339.98" cy="296.29" r="52.24"/>
	<path style="fill:#FFC66C;" d="M88.485,187.281c6.909,25.666,30.333,44.561,58.182,44.561c33.281,0,60.26-26.98,60.26-60.26
		c0-33.079-26.655-59.92-59.657-60.245C121.429,130.769,100.965,156.959,88.485,187.281z"/>
</g>
<circle style="fill:#BDED7E;" cx="466" cy="111.32" r="36"/>
<circle style="fill:#C8D0FF;" cx="46" cy="111.32" r="36"/>
<g>
	<circle style="fill:#FFC66C;" cx="287.74" cy="143.21" r="31"/>
	<circle style="fill:#FFC66C;" cx="170.67" cy="336.33" r="24"/>
</g>
<path d="M170.022,216.099l-0.131,0.069c-4.881,2.584-6.71,8.618-4.126,13.499c1.792,3.386,5.268,5.31,8.857,5.31
	c1.587,0,3.196-0.376,4.692-1.168l0.226-0.119c4.868-2.607,6.663-8.649,4.056-13.518
	C180.987,215.303,174.889,213.492,170.022,216.099z"/>
<path d="M512,111.321c0-24.96-19.986-45.326-44.793-45.969c-2.13-4.569-4.914-8.614-8.353-12.053
	c-11.632-11.63-35.914-21.598-85.551-3.025c-5.173,1.936-7.797,7.698-5.862,12.87c1.937,5.175,7.704,7.796,12.87,5.862
	c30.957-11.582,53.829-12.139,64.4-1.564c0.683,0.682,1.314,1.409,1.899,2.181c-15.7,7.33-26.61,23.26-26.61,41.699
	c0,14.335,6.594,27.156,16.905,35.599c-3.212,7.124-6.881,14.458-10.948,21.949C394.198,107.28,329.938,65.067,256,65.067
	c-22.567,0-44.229,3.943-64.344,11.159c-65.455-38.65-114.643-46.79-138.509-22.927c-3.438,3.439-6.223,7.484-8.354,12.053
	C19.986,65.995,0,86.361,0,111.321c0,25.364,20.636,46,46,46c3.872,0,7.631-0.486,11.227-1.392
	c5.242,11.529,11.557,23.541,18.846,35.881c-7.215,20.115-11.158,41.776-11.158,64.343c0,22.614,3.959,44.318,11.203,64.469
	c-38.476,65.272-46.57,114.277-22.717,138.131c8.896,8.895,21.322,13.372,37.046,13.372c3.735,0,7.658-0.253,11.762-0.759
	c18.688-2.307,40.803-9.843,65.73-22.398c7.726-3.892,15.612-8.211,23.618-12.924c20.144,7.238,41.839,11.194,64.444,11.194
	s44.301-3.956,64.444-11.194c8.006,4.712,15.892,9.032,23.618,12.924c24.928,12.556,47.043,20.092,65.73,22.398
	c4.105,0.506,8.025,0.759,11.762,0.759c15.722,0,28.151-4.479,37.046-13.373c7.027-7.028,11.334-16.415,12.801-27.898
	c0.699-5.479-3.175-10.486-8.653-11.187c-5.486-0.697-10.487,3.175-11.187,8.653c-0.892,6.987-3.282,12.468-7.104,16.29
	c-14.548,14.551-52.154,7.818-100.995-18.596c61.491-31.791,103.623-95.996,103.623-169.862c0-22.567-3.943-44.228-11.158-64.343
	c7.288-12.34,13.604-24.351,18.846-35.881c3.595,0.905,7.354,1.391,11.227,1.391C491.364,157.321,512,136.685,512,111.321z
	 M413.73,189.893c-11.026,17.823-24.078,36.301-38.79,54.934c-9.971-6.795-22.007-10.774-34.957-10.774
	c-34.318,0-62.239,27.921-62.239,62.239c0,14.637,5.091,28.099,13.579,38.739c-11.907,11.061-23.713,21.371-35.323,30.913
	c-18.832-15.476-38.178-32.96-57.631-52.413c-40.743-40.743-75.472-83.827-100.1-123.636c11.394-27.023,29.537-50.529,52.306-68.396
	c25.852,2.011,46.352,23.792,46.352,50.083c0,8.628-2.22,17.135-6.419,24.599c-2.708,4.813-1.001,10.911,3.813,13.619
	c1.551,0.872,3.233,1.286,4.895,1.286c3.495,0,6.889-1.836,8.725-5.099c5.88-10.452,8.987-22.35,8.987-34.405
	c0-29.269-18.179-54.534-43.832-65.039C197.67,92.87,225.939,85.067,256,85.067C326.856,85.067,387.787,128.366,413.73,189.893z
	 M382.223,296.291c0,23.291-18.948,42.239-42.239,42.239c-6.729,0-13.092-1.59-18.744-4.401c2.183-2.137,4.363-4.286,6.534-6.457
	c17.321-17.321,33.594-35.089,48.541-52.893C380.062,281.084,382.223,288.439,382.223,296.291z M297.744,296.291
	c0-23.291,18.948-42.239,42.239-42.239c8.174,0,15.808,2.341,22.28,6.376c-14.904,17.836-31.215,35.683-48.633,53.101
	c-2.586,2.586-5.17,5.126-7.751,7.643C300.77,314.188,297.744,305.588,297.744,296.291z M184.667,336.333c0,7.72-6.28,14-14,14
	s-14-6.28-14-14s6.28-14,14-14S184.667,328.614,184.667,336.333z M20,111.321c0-14.337,11.663-26,26-26s26,11.663,26,26
	s-11.663,26-26,26S20,125.657,20,111.321z M75.095,146.92C85.406,138.477,92,125.656,92,111.321c0-18.439-10.91-34.369-26.61-41.699
	c0.585-0.772,1.217-1.498,1.899-2.181c14.785-14.784,53.029-7.509,101.409,18.765c-9.254,4.773-18.069,10.282-26.37,16.446
	c-0.771,0.44-1.482,0.973-2.108,1.596c-22.506,17.195-41.099,39.262-54.176,64.623C81.976,161.379,78.307,154.045,75.095,146.92z
	 M161.174,303.692c-14.141,4.119-24.507,17.188-24.507,32.642c0,18.748,15.252,34,34,34c15.355,0,28.358-10.234,32.564-24.237
	c12.177,11.449,24.483,22.345,36.798,32.587c-17.495,13.542-34.425,25.279-50.435,35.141
	c-61.451-25.978-104.681-86.871-104.681-157.671c0-14.466,1.813-28.516,5.208-41.941
	C109.51,243.465,133.676,273.946,161.174,303.692z M67.542,444.611c-14.791-14.791-7.59-52.801,18.563-101.057
	c18.231,35.297,47.142,64.216,82.432,82.461C119.698,452.428,82.091,459.161,67.542,444.611z M256,427.239
	c-14.493,0-28.568-1.818-42.016-5.227c13.825-9.138,27.89-19.321,42.016-30.419c14.126,11.098,28.191,21.28,42.016,30.419
	C284.568,425.42,270.493,427.239,256,427.239z M427.086,256.153c0,70.801-43.23,131.693-104.681,157.671
	c-16.009-9.862-32.939-21.599-50.435-35.141c11.445-9.519,22.882-19.603,34.215-30.17c9.741,6.326,21.343,10.018,33.798,10.018
	c34.318,0,62.239-27.921,62.239-62.239c0-14.142-4.75-27.191-12.727-37.655c11.86-14.952,22.716-29.841,32.381-44.426
	C425.273,227.636,427.086,241.686,427.086,256.153z M466,137.321c-14.337,0-26-11.663-26-26s11.663-26,26-26s26,11.663,26,26
	S480.337,137.321,466,137.321z"/>
<path d="M453.512,379.498c-5.28,1.62-8.235,7.253-6.615,12.533l0.054,0.179c1.318,4.295,5.257,7.033,9.523,7.033
	c0.978,0,1.974-0.145,2.958-0.446c5.28-1.62,8.235-7.253,6.615-12.533l-0.054-0.179C464.373,380.807,458.795,377.88,453.512,379.498
	z"/>
<path d="M287.744,184.207c22.607,0,41-18.393,41-41s-18.393-41-41-41s-41,18.393-41,41S265.137,184.207,287.744,184.207z
	 M287.744,122.207c11.579,0,21,9.421,21,21s-9.421,21-21,21s-21-9.421-21-21S276.165,122.207,287.744,122.207z"/>
<path d="M297,202.153c-2.63,0-5.21,1.069-7.07,2.93s-2.93,4.44-2.93,7.07s1.069,5.21,2.93,7.069c1.86,1.86,4.44,2.931,7.07,2.931
	s5.21-1.07,7.069-2.931c1.86-1.859,2.931-4.439,2.931-7.069s-1.07-5.21-2.931-7.07C302.21,203.222,299.63,202.153,297,202.153z"/>
<path d="M104.93,300.722c1.86,1.86,4.44,2.931,7.07,2.931s5.21-1.07,7.069-2.931c1.86-1.859,2.931-4.439,2.931-7.069
	s-1.07-5.21-2.931-7.07c-1.859-1.86-4.439-2.93-7.069-2.93s-5.21,1.069-7.07,2.93s-2.93,4.44-2.93,7.07
	S103.069,298.863,104.93,300.722z"/>
<path d="M235.67,299.153c2.63,0,5.21-1.07,7.07-2.931c1.859-1.859,2.93-4.439,2.93-7.069s-1.07-5.21-2.93-7.07
	c-1.86-1.86-4.44-2.93-7.07-2.93s-5.21,1.069-7.08,2.93c-1.86,1.86-2.92,4.44-2.92,7.07s1.06,5.21,2.92,7.069
	C230.46,298.082,233.04,299.153,235.67,299.153z"/>
<path d="M311,369.153c-2.63,0-5.21,1.069-7.07,2.93s-2.93,4.44-2.93,7.07s1.069,5.21,2.93,7.069c1.86,1.86,4.44,2.931,7.07,2.931
	s5.21-1.07,7.069-2.931c1.86-1.859,2.931-4.439,2.931-7.069s-1.07-5.21-2.931-7.07C316.21,370.222,313.63,369.153,311,369.153z"/>
<g>
</g>
<g>
</g>
<g>
</g>
<g>
</g>
<g>
</g>
<g>
</g>
<g>
</g>
<g>
</g>
<g>
</g>
<g>
</g>
<g>
</g>
<g>
</g>
<g>
</g>
<g>
</g>
<g>
</g>
</svg>
