<?xml version="1.0" encoding="iso-8859-1"?>
<!-- Generator: Adobe Illustrator 19.0.0, SVG Export Plug-In . SVG Version: 6.00 Build 0)  -->
<svg version="1.1" id="Capa_1" xmlns="http://www.w3.org/2000/svg" xmlns:xlink="http://www.w3.org/1999/xlink" x="0px" y="0px"
	 viewBox="0 0 512 512" style="enable-background:new 0 0 512 512;" xml:space="preserve">
<path style="fill:#C6ECF6;" d="M474.432,96.594L474.432,96.594c2.363-4.761,1.423-10.498-2.335-14.257l-42.434-42.434
	c-3.758-3.758-9.496-4.698-14.257-2.336l0,0c-13.117,6.509-28.566,6.379-41.537-0.418C340.788,19.813,303.144,10,263.205,10
	c-116.532,0-213.55,83.477-234.56,193.891c-1.347,7.077-6.451,12.854-13.278,15.152l-0.018,0.006
	c-3.196,1.076-5.348,4.071-5.348,7.443v44.604c0,3.372,2.152,6.367,5.348,7.443l0,0c6.909,2.326,11.955,8.228,13.325,15.388
	c18.305,95.68,93.712,171.076,189.394,189.383c7.16,1.37,13.062,6.417,15.387,13.325l0,0c1.079,3.205,4.084,5.364,7.466,5.364
	h44.569c3.382,0,6.387-2.159,7.466-5.364l0.001-0.002c2.298-6.827,8.076-11.932,15.152-13.278
	C418.523,462.345,502,365.327,502,248.795c0-39.939-9.813-77.583-27.15-110.664C468.052,125.161,467.922,109.711,474.432,96.594z"/>
<g>
	
		<ellipse transform="matrix(0.763 -0.6464 0.6464 0.763 -136.718 330.2878)" style="fill:#70CEE8;" cx="382.057" cy="351.587" rx="52.29" ry="46.27"/>
	
		<ellipse transform="matrix(0.8001 0.5999 -0.5999 0.8001 166.4642 -176.8951)" style="fill:#70CEE8;" cx="348.637" cy="161.307" rx="45.719" ry="43.555"/>
	<circle style="fill:#70CEE8;" cx="115.97" cy="256.13" r="40.8"/>
	<circle style="fill:#70CEE8;" cx="197.63" cy="399.28" r="28.06"/>
	<circle style="fill:#70CEE8;" cx="189.81" cy="104.68" r="20.245"/>
</g>
<path d="M374.789,410.446c0.44,0.01,0.879,0.015,1.319,0.015c15.177,0,30.163-5.634,42.33-15.942
	c12.521-10.607,20.647-24.97,22.884-40.439c2.302-15.927-1.865-31.111-11.731-42.757s-24.16-18.25-40.248-18.597
	c-15.655-0.321-31.129,5.32-43.649,15.929c-26.205,22.201-31.208,59.522-11.152,83.195
	C344.407,403.495,358.701,410.1,374.789,410.446z M358.621,323.914c8.551-7.244,18.959-11.202,29.404-11.202
	c0.295,0,0.591,0.003,0.887,0.01c10.28,0.221,19.308,4.315,25.419,11.528c6.111,7.214,8.667,16.791,7.196,26.969
	c-1.536,10.633-7.225,20.591-16.017,28.04c-8.791,7.449-19.521,11.412-30.291,11.192c-10.28-0.222-19.308-4.316-25.419-11.529
	C336.874,363.663,340.831,338.986,358.621,323.914z"/>
<path d="M316.5,204.132C316.501,204.132,316.501,204.133,316.5,204.132c10.311,7.731,22.346,11.476,34.157,11.476
	c16.349,0,32.266-7.179,42.551-20.896c8.637-11.519,12.055-25.84,9.624-40.327c-2.4-14.307-10.239-27.072-22.074-35.946
	c-24.578-18.43-58.99-14.206-76.706,9.421C286.337,151.483,291.921,185.699,316.5,204.132z M320.054,139.857
	c11.097-14.802,32.947-17.233,48.706-5.417c7.706,5.778,12.802,14.036,14.348,23.254c1.517,9.037-0.579,17.922-5.901,25.02
	c-11.1,14.802-32.95,17.231-48.707,5.417l0.001,0.001C312.743,176.315,308.954,154.659,320.054,139.857z"/>
<path d="M65.342,251.939c-1.118,13.522,3.096,26.672,11.867,37.025c10.035,11.845,24.371,17.94,38.799,17.94
	c11.605,0,23.271-3.946,32.799-12.019c10.354-8.771,16.672-21.049,17.79-34.572c1.118-13.522-3.096-26.672-11.867-37.025
	s-21.05-16.671-34.573-17.79c-13.518-1.118-26.672,3.097-37.024,11.868C72.778,226.138,66.46,238.416,65.342,251.939z
	 M96.06,232.627c5.777-4.895,12.849-7.287,19.887-7.287c8.746,0,17.439,3.696,23.523,10.877c10.978,12.959,9.367,32.433-3.591,43.41
	c-12.956,10.977-32.431,9.369-43.41-3.59C81.491,263.078,83.102,243.604,96.06,232.627z"/>
<path d="M194.495,437.215c1.07,0.089,2.138,0.133,3.2,0.133c8.99,0,17.604-3.147,24.541-9.024
	c7.758-6.572,12.491-15.771,13.329-25.903s-2.319-19.984-8.892-27.741c-6.572-7.758-15.771-12.491-25.904-13.329
	c-10.128-0.843-19.985,2.32-27.741,8.892c-7.758,6.572-12.491,15.771-13.329,25.903s2.319,19.984,8.892,27.741
	C175.163,431.644,184.362,436.377,194.495,437.215z M179.631,397.793c0.397-4.808,2.645-9.173,6.325-12.292
	c3.293-2.789,7.38-4.282,11.646-4.282c0.504,0,1.011,0.021,1.519,0.063c4.809,0.397,9.174,2.645,12.293,6.325
	c3.119,3.682,4.617,8.356,4.22,13.165c-0.397,4.808-2.645,9.173-6.325,12.292c-3.682,3.118-8.354,4.619-13.165,4.22
	c-4.809-0.397-9.174-2.645-12.293-6.325C180.731,407.276,179.233,402.602,179.631,397.793z"/>
<path d="M187.321,134.819c0.852,0.07,1.699,0.105,2.544,0.105c7.144,0,13.987-2.501,19.499-7.171
	c12.725-10.78,14.307-29.902,3.526-42.628c-10.782-12.724-29.905-14.304-42.628-3.524c-12.724,10.781-14.305,29.903-3.524,42.626
	C171.96,130.392,179.271,134.153,187.321,134.819z M179.604,103.833c0.226-2.727,1.5-5.203,3.587-6.972
	c1.922-1.628,4.274-2.424,6.615-2.424c2.909,0,5.801,1.229,7.824,3.617c1.769,2.088,2.619,4.74,2.394,7.467
	c-0.226,2.728-1.5,5.204-3.588,6.973c0,0,0,0-0.001,0c-2.087,1.77-4.741,2.615-7.466,2.394c-2.727-0.226-5.203-1.5-6.972-3.589
	C180.229,109.212,179.379,106.561,179.604,103.833z"/>
<path d="M511.136,227.922c-0.458-5.504-5.279-9.6-10.795-9.137c-5.504,0.458-9.595,5.291-9.137,10.795
	c0.528,6.346,0.796,12.811,0.796,19.215c0,109.74-78.124,204.256-185.761,224.737c-10.081,1.918-18.473,8.933-22.232,18.468h-41.604
	c-3.767-9.526-12.241-16.557-22.457-18.512c-91.104-17.431-164.024-90.346-181.451-181.44c-1.954-10.209-8.978-18.681-18.495-22.45
	v-41.604c9.536-3.762,16.55-12.153,18.469-22.233C58.949,98.124,153.465,20,263.205,20c36.895,0,73.557,8.993,106.022,26.008
	c15.736,8.246,34.661,8.44,50.624,0.519c0.915-0.454,2.016-0.275,2.739,0.449l42.435,42.435c0.723,0.722,0.903,1.823,0.448,2.738
	c-7.922,15.963-7.728,34.888,0.519,50.625c1.756,3.349,3.447,6.782,5.028,10.205c2.315,5.013,8.257,7.2,13.271,4.885
	s7.201-8.258,4.885-13.271c-1.72-3.725-3.561-7.46-5.47-11.103c-5.281-10.078-5.4-22.209-0.317-32.45
	c4.275-8.616,2.578-18.974-4.223-25.772l-42.433-42.433c-6.8-6.801-17.157-8.496-25.773-4.224
	c-10.241,5.083-22.371,4.964-32.45-0.317C343.192,9.783,303.32,0,263.205,0C143.873,0,41.095,84.963,18.821,202.022
	c-0.663,3.479-3.188,6.359-6.595,7.527c-0.023,0.008-0.047,0.016-0.07,0.023C4.885,212.021,0,218.821,0,226.493v44.604
	c0,7.672,4.885,14.472,12.157,16.921c3.431,1.155,5.995,4.14,6.693,7.789c9.359,48.92,33.022,93.493,68.432,128.899
	c35.408,35.404,79.983,59.066,128.905,68.426c3.65,0.699,6.635,3.264,7.789,6.694c2.452,7.281,9.261,12.174,16.944,12.174h44.568
	c7.682,0,14.491-4.893,16.944-12.175c1.156-3.434,4.047-5.98,7.544-6.646C427.037,470.905,512,368.127,512,248.795
	C512,241.84,511.709,234.816,511.136,227.922z"/>
<path d="M484.359,189.952c0.006,0.022,0.025,0.095,0.032,0.118c1.219,4.433,5.231,7.328,9.617,7.328
	c0.869,0,1.755-0.114,2.635-0.353c5.316-1.441,8.46-6.936,7.037-12.258c-0.012-0.045-0.042-0.155-0.055-0.199
	c-1.498-5.315-7.035-8.439-12.348-6.943C485.963,179.146,482.859,184.637,484.359,189.952z"/>
<path d="M256,246.13c-2.63,0-5.21,1.06-7.07,2.93c-1.86,1.86-2.93,4.44-2.93,7.07s1.069,5.2,2.93,7.07
	c1.86,1.859,4.44,2.93,7.07,2.93s5.21-1.07,7.069-2.93c1.86-1.87,2.931-4.44,2.931-7.07s-1.07-5.21-2.931-7.07
	C261.21,247.189,258.63,246.13,256,246.13z"/>
<path d="M455.069,232.069C456.93,230.21,458,227.63,458,225s-1.07-5.21-2.931-7.07C453.21,216.07,450.63,215,448,215
	s-5.21,1.069-7.07,2.93S438,222.37,438,225s1.069,5.21,2.93,7.069c1.86,1.86,4.44,2.931,7.07,2.931S453.21,233.93,455.069,232.069z"
	/>
<path d="M291.93,440.93c-1.86,1.86-2.93,4.44-2.93,7.07s1.069,5.21,2.93,7.069c1.86,1.86,4.44,2.931,7.07,2.931
	s5.21-1.07,7.069-2.931C307.93,453.21,309,450.63,309,448s-1.07-5.21-2.931-7.07C304.21,439.07,301.63,438,299,438
	S293.79,439.069,291.93,440.93z"/>
<path d="M123.67,149c2.63,0,5.21-1.07,7.07-2.931c1.859-1.859,2.93-4.439,2.93-7.069s-1.07-5.21-2.93-7.07
	c-1.86-1.86-4.44-2.93-7.07-2.93c-2.64,0-5.21,1.069-7.07,2.93c-1.87,1.86-2.93,4.44-2.93,7.07s1.06,5.21,2.93,7.069
	C118.45,147.93,121.03,149,123.67,149z"/>
<g>
</g>
<g>
</g>
<g>
</g>
<g>
</g>
<g>
</g>
<g>
</g>
<g>
</g>
<g>
</g>
<g>
</g>
<g>
</g>
<g>
</g>
<g>
</g>
<g>
</g>
<g>
</g>
<g>
</g>
</svg>
