<?xml version="1.0" encoding="iso-8859-1"?>
<!-- Generator: Adobe Illustrator 19.0.0, SVG Export Plug-In . SVG Version: 6.00 Build 0)  -->
<svg version="1.1" id="Capa_1" xmlns="http://www.w3.org/2000/svg" xmlns:xlink="http://www.w3.org/1999/xlink" x="0px" y="0px"
	 viewBox="0 0 512 512" style="enable-background:new 0 0 512 512;" xml:space="preserve">
<path style="fill:#FE7A77;" d="M461.457,74.543L461.457,74.543c-13.255,0-24-10.745-24-24l0,0c0-13.255,10.745-24,24-24l0,0
	c13.255,0,24,10.745,24,24l0,0C485.457,63.798,474.712,74.543,461.457,74.543z"/>
<circle style="fill:#FFD189;" cx="256" cy="256" r="181.09"/>
<circle style="fill:#BDED7E;" cx="256" cy="333.79" r="48"/>
<rect x="19.66" y="19.66" transform="matrix(-0.7071 0.7071 -0.7071 -0.7071 103.7649 42.9812)" style="fill:#ECEEFF;" width="46.642" height="46.642"/>
<path style="fill:#FFE5BB;" d="M64,502L64,502c-14.912,0-27-12.088-27-27l0,0c0-14.912,12.088-27,27-27l0,0
	c14.912,0,27,12.088,27,27l0,0C91,489.912,78.912,502,64,502z"/>
<path d="M436.23,192.515c-10.018-28.358-26.544-53.666-47.785-74.118c-0.569-0.709-1.233-1.335-1.972-1.866
	C352.295,84.536,306.399,64.914,256,64.914c-83.12,0-154.001,53.352-180.232,127.604C26.2,208.773,0,230.702,0,256
	c0,15.769,10.703,38.713,61.691,58.474c4.481,1.737,9.18,3.408,14.078,5.011c26.231,74.251,97.112,127.601,180.23,127.601
	c83.157,0,154.065-53.4,180.267-127.705C481.032,304.715,512,283.497,512,256C512,230.673,485.815,208.764,436.23,192.515z
	 M256,84.914c35.673,0,68.825,10.981,96.269,29.73H304c-5.522,0-10,4.478-10,10s4.478,10,10,10h72.473
	c29.026,28.817,47.798,67.94,50.313,111.355H390c-5.522,0-10,4.478-10,10s4.478,10,10,10h36.786
	c-0.749,12.919-2.933,25.459-6.403,37.46c-30.201,8.847-67.392,15.172-107.664,18.225c-5.585-26.187-28.89-45.891-56.719-45.891
	c-27.83,0-51.135,19.705-56.72,45.894c-40.271-3.052-77.468-9.385-107.664-18.229c-4.359-15.076-6.703-30.998-6.703-47.459
	C84.914,161.663,161.663,84.914,256,84.914z M294,333.794c0,20.953-17.047,38-38,38s-38-17.047-38-38s17.047-38,38-38
	S294,312.841,294,333.794z M68.919,295.825C37.83,283.776,20,269.261,20,256c0-13.4,18.083-27.908,49.117-39.899
	c-2.746,12.874-4.203,26.219-4.203,39.899c0,13.681,1.457,27.026,4.203,39.9C69.052,295.875,68.984,295.85,68.919,295.825z
	 M375.012,378.782c-0.939-0.292-1.937-0.449-2.972-0.449h-44.206c-5.522,0-10,4.478-10,10s4.478,10,10,10h22.988
	c-27.159,18.153-59.774,28.753-94.822,28.753c-69.224,0-128.976-41.327-155.884-100.603c28.895,7.287,62.57,12.524,98.435,15.204
	c3.864,28.259,28.146,50.107,57.449,50.107c29.304,0,53.585-21.849,57.449-50.108c34.264-2.571,68.407-7.691,98.478-15.294
	C402.979,346.134,390.381,363.88,375.012,378.782z M442.883,295.901c2.746-12.874,4.203-26.219,4.203-39.901
	c0-13.68-1.457-27.024-4.202-39.897C473.94,228.093,492,242.561,492,256C492,269.298,474.099,283.836,442.883,295.901z"/>
<path d="M316.097,259.191C299.15,245.526,277.808,238,256,238c-33.763,0-65.4,18.085-82.568,47.198
	c-2.805,4.757-1.223,10.888,3.535,13.693c1.595,0.94,3.344,1.388,5.069,1.388c3.424,0,6.759-1.76,8.624-4.923
	C204.247,272.314,229.284,258,256,258c17.506,0,33.945,5.796,47.542,16.76c4.3,3.468,10.595,2.793,14.062-1.507
	C321.07,268.954,320.396,262.658,316.097,259.191z"/>
<path d="M323.756,299.78c0.021,0.042,0.058,0.117,0.086,0.174c1.742,3.517,5.282,5.562,8.967,5.562c1.464,0,2.95-0.322,4.355-1.004
	c4.97-2.409,7.045-8.392,4.636-13.36c-0.021-0.042-0.058-0.117-0.086-0.174c-2.435-4.914-8.381-6.955-13.322-4.558
	C323.422,288.829,321.347,294.812,323.756,299.78z"/>
<path d="M256.25,134.649c2.63,0,5.21-1.069,7.069-2.939c1.87-1.86,2.931-4.43,2.931-7.061c0-2.64-1.061-5.21-2.931-7.08
	c-1.859-1.859-4.43-2.93-7.069-2.93c-2.63,0-5.21,1.07-7.07,2.93c-1.86,1.87-2.93,4.44-2.93,7.08c0,2.631,1.069,5.2,2.93,7.061
	C251.04,133.58,253.62,134.649,256.25,134.649z"/>
<path d="M135,191.082h80.078c5.522,0,10-4.478,10-10s-4.478-10-10-10H135c-5.522,0-10,4.478-10,10S129.478,191.082,135,191.082z"/>
<path d="M257,181.082c0,5.522,4.478,10,10,10h45.997c5.522,0,10-4.478,10-10s-4.478-10-10-10H267
	C261.478,171.082,257,175.56,257,181.082z"/>
<path d="M35.91,83.033c1.953,1.952,4.512,2.929,7.071,2.929s5.118-0.977,7.071-2.929l32.98-32.98c3.905-3.905,3.905-10.237,0-14.143
	L50.053,2.929C48.178,1.054,45.634,0,42.981,0s-5.195,1.054-7.071,2.929L2.929,35.91C1.054,37.786,0,40.329,0,42.981
	s1.054,5.196,2.929,7.071L35.91,83.033z M42.981,24.143L61.82,42.981L42.981,61.82L24.143,42.981L42.981,24.143z"/>
<path d="M472,467.612h-14v-14.387c0-5.522-4.478-10-10-10s-10,4.478-10,10v14.387h-14c-5.522,0-10,4.478-10,10s4.478,10,10,10h14
	V502c0,5.522,4.478,10,10,10s10-4.478,10-10v-14.388h14c5.522,0,10-4.478,10-10S477.522,467.612,472,467.612z"/>
<path d="M35.069,413.069C36.93,411.21,38,408.63,38,406s-1.07-5.21-2.931-7.07C33.21,397.069,30.63,396,28,396
	s-5.21,1.069-7.07,2.93S18,403.37,18,406s1.069,5.21,2.93,7.069C22.79,414.93,25.37,416,28,416S33.21,414.93,35.069,413.069z"/>
<path d="M372.04,41.09c2.63,0,5.21-1.07,7.069-2.93c1.86-1.86,2.931-4.44,2.931-7.07s-1.07-5.21-2.931-7.07
	c-1.859-1.859-4.439-2.93-7.069-2.93s-5.21,1.07-7.07,2.93c-1.86,1.86-2.93,4.44-2.93,7.07s1.069,5.21,2.93,7.07
	C366.83,40.02,369.41,41.09,372.04,41.09z"/>
<path d="M461.457,84.543c18.748,0,34-15.252,34-34s-15.252-34-34-34s-34,15.252-34,34S442.709,84.543,461.457,84.543z
	 M461.457,36.543c7.72,0,14,6.28,14,14s-6.28,14-14,14s-14-6.28-14-14S453.737,36.543,461.457,36.543z"/>
<path d="M64,438c-20.402,0-37,16.598-37,37s16.598,37,37,37s37-16.598,37-37S84.402,438,64,438z M64,492c-9.374,0-17-7.626-17-17
	s7.626-17,17-17s17,7.626,17,17S73.374,492,64,492z"/>
<g>
</g>
<g>
</g>
<g>
</g>
<g>
</g>
<g>
</g>
<g>
</g>
<g>
</g>
<g>
</g>
<g>
</g>
<g>
</g>
<g>
</g>
<g>
</g>
<g>
</g>
<g>
</g>
<g>
</g>
</svg>
