<?xml version="1.0" encoding="iso-8859-1"?>
<!-- Generator: Adobe Illustrator 19.0.0, SVG Export Plug-In . SVG Version: 6.00 Build 0)  -->
<svg version="1.1" id="Capa_1" xmlns="http://www.w3.org/2000/svg" xmlns:xlink="http://www.w3.org/1999/xlink" x="0px" y="0px"
	 viewBox="0 0 512 512" style="enable-background:new 0 0 512 512;" xml:space="preserve">
<circle style="fill:#FE7A77;" cx="256" cy="255.97" r="203.976"/>
<path d="M20.748,341.568c1.087,0.378,2.195,0.558,3.286,0.558c4.138,0,8.007-2.589,9.443-6.717l0.047-0.135
	c1.814-5.215-0.943-10.915-6.159-12.729c-5.214-1.813-10.915,0.943-12.729,6.159l-0.047,0.135
	C12.774,334.053,15.532,339.753,20.748,341.568z"/>
<path d="M483.559,28.418c-17.12-17.12-40.45-26.602-69.342-28.182c-26.825-1.476-57.24,3.959-90.392,16.129
	c-5.184,1.903-7.843,7.648-5.94,12.832c1.904,5.184,7.648,7.844,12.833,5.94C391.744,12.735,442.3,15.44,469.419,42.56
	c31.656,31.656,29.59,94.448-4.455,167.05c-8.673-39.454-28.404-75.686-57.656-104.939C366.893,64.257,313.159,42,256.004,42
	s-110.888,22.257-151.303,62.672c-40.414,40.415-62.672,94.149-62.672,151.303c0,55.495,20.987,107.762,59.2,147.747
	c0.048,0.05,0.097,0.1,0.146,0.149c1.096,1.145,2.202,2.284,3.326,3.408c29.263,29.263,65.511,48.997,104.983,57.665
	c-12.04,5.633-23.997,10.486-35.784,14.478c-58.418,19.789-105.053,16.227-131.311-10.031
	c-19.072-19.072-26.254-49.379-20.77-87.645c0.784-5.466-3.013-10.533-8.479-11.316c-5.464-0.786-10.533,3.013-11.317,8.478
	c-6.413,44.745,2.725,80.923,26.425,104.624c18.914,18.913,45.543,28.47,77.843,28.468c22.217-0.002,47.122-4.525,74.023-13.638
	c21.029-7.123,42.54-16.808,64.083-28.729c3.852,0.204,7.72,0.317,11.606,0.317c57.155,0,110.888-22.257,151.303-62.672
	c40.414-40.415,62.672-94.149,62.672-151.303c0-3.904-0.114-7.788-0.32-11.657c0.672-1.213,1.34-2.426,1.997-3.639
	c23.183-42.772,36.933-84.446,39.763-120.515C514.461,81.412,504.827,49.687,483.559,28.418z M63.265,234.121
	c37.468-18.225,75.113-45.719,109.196-79.801c3.905-3.905,3.906-10.236,0-14.141c-3.906-3.903-10.236-3.904-14.14,0
	c-28.502,28.501-59.504,52.122-90.61,69.143c20.942-84.498,97.412-147.325,188.292-147.325c33.625,0,65.276,8.605,92.875,23.721
	c-22.417,47.395-57.063,95.21-100.654,138.802c-52.986,52.985-112.39,92.817-168.216,112.963
	c-11.53-24.795-17.982-52.411-17.982-81.508C62.027,248.587,62.457,241.297,63.265,234.121z M127.498,401.145
	c61.985-21.877,129.57-66.717,187.953-125.1c3.905-3.905,3.905-10.236,0-14.141c-3.905-3.904-10.236-3.904-14.141,0
	C242.014,321.2,173.253,365.907,111.638,385.385c-8.311-9.262-15.744-19.324-22.171-30.056
	c57.769-21.428,118.721-62.49,172.899-116.667c44.579-44.58,80.213-93.581,103.63-142.372c26.491,18.304,48.23,43.014,62.948,71.883
	c-18.657,41.883-47.221,85.277-82.834,125.785c-3.646,4.147-3.24,10.465,0.908,14.111c1.899,1.67,4.254,2.489,6.598,2.489
	c2.775,0,5.537-1.149,7.513-3.397c32.297-36.738,59.055-75.875,78.285-114.357c5.15,14.91,8.527,30.638,9.884,46.933
	c-23.188,40.625-54.648,81.271-91.453,118.076c-37.291,37.291-77.698,68.48-117.996,91.461
	C196.941,445.718,157.959,428.14,127.498,401.145z M278.983,448.585c31.968-21.233,63.468-47.099,92.999-76.631
	c29.239-29.24,55.245-60.873,76.641-93.089C438.152,367.535,367.642,438.072,278.983,448.585z"/>
<path d="M203.256,199.664c2.559,0,5.118-0.977,7.07-2.929c28.885-28.886,53.552-59.768,73.315-91.791
	c2.9-4.698,1.442-10.86-3.258-13.76c-4.699-2.898-10.859-1.442-13.76,3.258c-18.951,30.704-42.649,60.363-70.439,88.153
	c-3.905,3.905-3.905,10.236,0,14.141C198.139,198.687,200.697,199.664,203.256,199.664z"/>
<path d="M318.794,323.076l-0.074,0.074c-3.905,3.905-3.905,10.236,0,14.141c1.953,1.952,4.511,2.929,7.07,2.929
	c2.559,0,5.118-0.977,7.07-2.929c0.008-0.008,0.066-0.066,0.08-0.08c3.899-3.906,3.897-10.232-0.006-14.135
	C329.029,319.172,322.698,319.172,318.794,323.076z"/>
<g>
</g>
<g>
</g>
<g>
</g>
<g>
</g>
<g>
</g>
<g>
</g>
<g>
</g>
<g>
</g>
<g>
</g>
<g>
</g>
<g>
</g>
<g>
</g>
<g>
</g>
<g>
</g>
<g>
</g>
</svg>
