<?xml version="1.0" encoding="iso-8859-1"?>
<!-- Generator: Adobe Illustrator 19.0.0, SVG Export Plug-In . SVG Version: 6.00 Build 0)  -->
<svg version="1.1" id="Capa_1" xmlns="http://www.w3.org/2000/svg" xmlns:xlink="http://www.w3.org/1999/xlink" x="0px" y="0px"
	 viewBox="0 0 512.001 512.001" style="enable-background:new 0 0 512.001 512.001;" xml:space="preserve">
<circle style="fill:#C6ECF6;" cx="280.969" cy="231.032" r="221.031"/>
<circle style="fill:#FE7A77;" cx="117.446" cy="394.555" r="98.374"/>
<path d="M20.567,49.507h9.684v10.001c0,5.523,4.478,10.001,10.001,10.001s10.001-4.479,10.001-10.001V49.507h9.683
	c5.524,0,10.001-4.479,10.001-10.001s-4.478-10.001-10.001-10.001h-9.683V19.503c0-5.523-4.478-10.001-10.001-10.001
	S30.251,13.98,30.251,19.503v10.001h-9.684c-5.524,0-10.001,4.479-10.001,10.001S15.043,49.507,20.567,49.507z"/>
<path d="M492.68,458.897h-9.683v-10.001c0-5.523-4.478-10.001-10.001-10.001s-10.001,4.479-10.001,10.001v10.001h-9.683
	c-5.524,0-10.001,4.479-10.001,10.001s4.478,10.001,10.001,10.001h9.683v10.001c0,5.523,4.478,10.001,10.001,10.001
	s10.001-4.479,10.001-10.001v-10.001h9.683c5.524,0,10.001-4.479,10.001-10.001S498.203,458.897,492.68,458.897z"/>
<path d="M281.281,442.061h-0.313c-5.524,0-10.001,4.479-10.001,10.001s4.478,10.001,10.001,10.001h0.313
	c5.524,0,10.001-4.479,10.001-10.001S286.805,442.061,281.281,442.061z"/>
<path d="M512,231.032c0-61.711-24.031-119.728-67.667-163.365C400.696,24.031,342.679,0,280.968,0S161.24,24.031,117.604,67.667
	c-43.636,43.637-67.667,101.654-67.667,163.365c0,5.523,4.478,10.001,10.001,10.001s10.001-4.479,10.001-10.001
	c0-19.705,2.722-38.783,7.798-56.89h41.549c5.524,0,10.001-4.479,10.001-10.001c0-5.523-4.478-10.001-10.001-10.001H84.444
	C115.245,75.69,191.724,20.003,280.968,20.003c42.281,0,81.69,12.508,114.742,34.005h-29.151c-21.365,0-41.95,6.419-59.529,18.562
	c-14.223,9.824-30.876,15.017-48.161,15.017h-16.925c-5.524,0-10.001,4.479-10.001,10.001c0,5.523,4.478,10.001,10.001,10.001
	h16.925c21.364,0,41.949-6.418,59.529-18.562c14.221-9.824,30.875-15.017,48.16-15.017h55.236
	c38.83,34.861,64.698,83.875,69.411,138.841H351.681c-21.264,0-32.204-7.807-43.787-16.07c-7.707-5.499-15.675-11.186-26.303-14.285
	c-38.419-11.212-60.455,8.621-78.161,24.554c-10.278,9.251-19.156,17.239-28.931,17.239h-55.215
	c-5.524,0-10.001,4.479-10.001,10.001c0,5.523,4.478,10.001,10.001,10.001h55.215c17.45,0,30.089-11.374,42.312-22.373
	c16.175-14.558,31.452-28.31,59.178-20.222c7.371,2.15,13.356,6.421,20.286,11.366c12.357,8.817,27.737,19.791,55.405,19.791
	h140.295c-0.276,32.796-7.993,63.965-21.679,91.754h-81.602c-24,0-47.124,7.21-66.87,20.851
	c-16.389,11.321-35.581,17.305-55.501,17.305h-45.262c-13.618-44.295-54.915-76.586-103.615-76.586
	c-12.401,0-24.318,2.099-35.425,5.952c-0.98-1.531-2.38-2.818-4.147-3.65c-30.778-14.502-55.055-15.159-68.359-1.855
	c-13.105,13.106-12.658,36.928,1.258,67.078c1.117,2.42,2.338,4.874,3.607,7.34c-3.441,10.558-5.31,21.82-5.31,33.513
	c0,59.759,48.618,108.376,108.376,108.376c11.692,0,22.954-1.868,33.513-5.31c2.466,1.268,4.92,2.489,7.34,3.607
	c15.552,7.178,29.418,10.772,41.001,10.772c10.873-0.001,19.733-3.168,26.078-9.514c13.633-13.633,12.616-38.658-2.864-70.467
	c-0.579-1.191-1.368-2.209-2.295-3.045c3.633-10.818,5.605-22.392,5.605-34.419c0-3.984-0.223-7.915-0.643-11.788h41.145
	c24,0,47.124-7.21,66.87-20.851c16.389-11.321,35.581-17.305,55.501-17.305h70.36c-31.015,48.737-81.683,84.071-142.273,94.425
	c-5.445,0.931-9.104,6.099-8.173,11.544c0.833,4.875,5.063,8.318,9.846,8.318c0.559,0,1.126-0.048,1.696-0.145
	c53.089-9.072,101.663-36.774,136.775-78C492.441,339.055,512,285.883,512,231.032z M205.819,394.555
	c0,36.304-22.007,67.561-53.38,81.143c-21.18-12.08-43.806-29.784-65.079-51.058c-23.211-23.21-40.041-45.635-51.091-65.003
	c13.564-31.412,44.842-53.455,81.176-53.455C166.174,306.181,205.819,345.825,205.819,394.555z M23.658,300.769
	c5.623-5.627,19.197-4.827,36.471,1.847c-14.02,8.772-25.899,20.658-34.661,34.684C18.546,319.393,18.194,306.233,23.658,300.769z
	 M117.445,482.928c-48.73,0-88.373-39.645-88.373-88.373c0-2.78,0.135-5.529,0.388-8.244c11.874,17.563,26.762,35.479,43.756,52.473
	s34.91,31.882,52.473,43.756C122.973,482.793,120.225,482.928,117.445,482.928z M211.232,488.341
	c-5.602,5.605-19.215,4.813-36.471-1.847c14.001-8.759,25.866-20.625,34.625-34.625
	C216.082,469.167,216.892,482.681,211.232,488.341z"/>
<path d="M202.446,104.655c1.86-1.859,2.93-4.44,2.93-7.071c0-2.63-1.07-5.211-2.93-7.07c-1.86-1.86-4.441-2.931-7.071-2.931
	c-2.63,0-5.211,1.07-7.071,2.931c-1.86,1.859-2.93,4.44-2.93,7.07c0,2.631,1.07,5.212,2.93,7.071c1.86,1.87,4.441,2.93,7.071,2.93
	C198.006,107.585,200.587,106.525,202.446,104.655z"/>
<path d="M424.654,160.022c5.524,0,10.001-4.479,10.001-10.001s-4.478-10.001-10.001-10.001h-89.179
	c-5.524,0-10.001,4.479-10.001,10.001s4.478,10.001,10.001,10.001H424.654z"/>
<path d="M160.856,164.141c0,5.523,4.478,10.001,10.001,10.001h30.1c5.524,0,10.001-4.479,10.001-10.001
	c0-5.523-4.478-10.001-10.001-10.001h-30.1C165.333,154.139,160.856,158.618,160.856,164.141z"/>
<path d="M294.311,317.044c14.545,0,28.21-6.423,37.491-17.621c5.469-6.598,13.521-10.382,22.091-10.382h94.097
	c5.524,0,10.001-4.479,10.001-10.001c0-5.523-4.478-10.001-10.001-10.001h-94.097c-14.545,0-28.21,6.423-37.491,17.621
	c-5.469,6.598-13.521,10.382-22.091,10.382h-38.347c-5.524,0-10.001,4.479-10.001,10.001s4.478,10.001,10.001,10.001H294.311z"/>
<g>
</g>
<g>
</g>
<g>
</g>
<g>
</g>
<g>
</g>
<g>
</g>
<g>
</g>
<g>
</g>
<g>
</g>
<g>
</g>
<g>
</g>
<g>
</g>
<g>
</g>
<g>
</g>
<g>
</g>
</svg>
