<?xml version="1.0" encoding="iso-8859-1"?>
<!-- Generator: Adobe Illustrator 19.0.0, SVG Export Plug-In . SVG Version: 6.00 Build 0)  -->
<svg version="1.1" id="Capa_1" xmlns="http://www.w3.org/2000/svg" xmlns:xlink="http://www.w3.org/1999/xlink" x="0px" y="0px"
	 viewBox="0 0 512 512" style="enable-background:new 0 0 512 512;" xml:space="preserve">
<path style="fill:#ECEEFF;" d="M358.57,461.938c-6.712,0-13.034,1.659-18.591,4.577v-0.009l0,0
	c-6.698-15.539-22.152-26.417-40.148-26.417c-17.994,0-33.443,10.88-40.141,26.417h-7.252
	c-6.698-15.537-22.147-26.417-40.141-26.417c-17.995,0-33.45,10.878-40.148,26.417v0.009c-5.557-2.918-11.879-4.577-18.592-4.577
	c-22.126,0-40.063,17.937-40.063,40.063h58.654h21.471h124.888h21.471h58.654C398.633,479.875,380.696,461.938,358.57,461.938z"/>
<g>
	<path style="fill:#FFDFAD;" d="M156.25,256.127l-25.941,11.355C109.466,276.606,96,297.2,96,319.952V421l100.728-48.975
		L156.25,256.127z"/>
	<path style="fill:#FFDFAD;" d="M355.751,256.127l25.941,11.355C402.534,276.606,416,297.2,416,319.952V421l-100.728-48.975
		L355.751,256.127z"/>
</g>
<path style="fill:#AFBAFF;" d="M256,393h42.899c0,0,59.13-58,59.13-176.127C358.029,78.334,256,10,256,10
	S153.971,78.334,153.971,216.874C153.971,335,213.102,393,213.102,393H256z"/>
<path style="fill:#FE7A77;" d="M176.961,109H335.04C304.951,42.801,256,10,256,10S207.05,42.801,176.961,109z"/>
<circle style="fill:#FFFFFF;" cx="256" cy="218.01" r="56"/>
<path d="M302.67,171.345c-12.466-12.466-29.04-19.331-46.669-19.331s-34.204,6.865-46.669,19.331
	C196.865,183.811,190,200.385,190,218.014s6.865,34.203,19.331,46.669c12.867,12.866,29.768,19.3,46.669,19.3
	s33.802-6.434,46.669-19.3l0,0C315.135,252.217,322,235.643,322,218.014S315.135,183.811,302.67,171.345z M223.473,185.488
	c8.688-8.688,20.24-13.474,32.527-13.474c8.881,0,17.371,2.512,24.679,7.178l-63.501,63.501c-4.666-7.309-7.178-15.799-7.178-24.679
	C210,205.727,214.785,194.175,223.473,185.488z M288.528,250.541c-15.507,15.507-39.416,17.595-57.199,6.288l63.494-63.494
	c4.666,7.309,7.178,15.799,7.178,24.679C302,230.301,297.216,241.853,288.528,250.541z"/>
<path d="M416,357c-2.63,0-5.21,1.069-7.07,2.93c-1.86,1.86-2.93,4.44-2.93,7.07s1.07,5.21,2.93,7.069
	c1.86,1.86,4.44,2.931,7.07,2.931s5.21-1.07,7.07-2.931c1.86-1.859,2.93-4.439,2.93-7.069s-1.07-5.21-2.93-7.07S418.63,357,416,357z
	"/>
<path d="M385.702,258.322l-19.246-8.425c1.006-10.435,1.573-21.443,1.573-33.023c0-74.295-28.812-128.748-52.981-161.345
	c-26.236-35.384-52.382-53.101-53.482-53.837c-3.367-2.256-7.763-2.256-11.13,0c-1.1,0.736-27.246,18.453-53.482,53.837
	c-24.17,32.597-52.981,87.05-52.981,161.345c0,11.58,0.567,22.588,1.573,33.023l-19.246,8.425
	c-24.481,10.716-40.3,34.907-40.3,61.63V421c0,3.446,1.774,6.649,4.696,8.478c1.616,1.011,3.457,1.522,5.305,1.522
	c1.492,0,2.988-0.334,4.372-1.007l93.02-45.228c7.188,9.901,12.336,15.011,12.706,15.374c1.87,1.834,4.384,2.861,7.002,2.861H246v18
	c0,5.522,4.477,10,10,10c5.523,0,10-4.478,10-10v-18h32.898c2.619,0,5.133-1.027,7.002-2.861c0.37-0.362,5.519-5.473,12.706-15.374
	l93.02,45.228c1.384,0.674,2.88,1.007,4.372,1.007c1.847,0,3.689-0.512,5.305-1.522C424.226,427.65,426,424.447,426,421v-15.333
	c0-5.522-4.477-10-10-10c-5.308,0-9.65,4.137-9.98,9.361l-76.374-37.134c2.537-4.29,5.142-8.999,7.744-14.151
	c9.644-19.093,20.563-47.013,26.409-83.177l13.883,6.077c17.203,7.53,28.318,24.53,28.318,43.309v3.716c0,5.522,4.477,10,10,10
	s10-4.478,10-10v-3.716C426,293.229,410.182,269.038,385.702,258.322z M212.544,68.083c17.307-23.492,34.813-38.761,43.467-45.609
	c8.555,6.755,25.741,21.729,42.971,44.968c6.53,8.806,13.423,19.35,19.915,31.56H192.98
	C198.674,88.378,205.19,78.064,212.544,68.083z M106,405.019v-85.067c0-18.778,11.116-35.778,28.319-43.308l13.883-6.077
	c5.845,36.164,16.765,64.084,26.408,83.177c2.602,5.152,5.207,9.861,7.744,14.151L106,405.019z M319.98,343.845
	c-10.314,20.637-20.739,33.736-25.465,39.155H266v-40.667c0-5.522-4.477-10-10-10c-5.523,0-10,4.478-10,10V383h-28.522
	c-11.096-12.707-53.506-67.738-53.506-166.127c0-34.701,6.518-67.44,19.425-97.873h145.027
	c11.264,26.655,19.607,59.383,19.607,97.873C348.029,275.434,332.776,318.245,319.98,343.845z"/>
<path d="M358.571,451.938c-4.886,0-9.605,0.716-14.073,2.027c-9.844-14.752-26.501-23.876-44.667-23.876
	c-18.044,0-34.026,8.956-43.767,22.646c-9.741-13.69-25.723-22.646-43.767-22.646c-18.166,0-34.822,9.124-44.667,23.876
	c-4.468-1.311-9.187-2.028-14.073-2.028c-27.604,0-50.063,22.458-50.063,50.063c0,5.522,4.477,10,10,10s10-4.478,10-10
	c0-16.576,13.486-30.063,30.063-30.063S183.62,485.423,183.62,502c0,5.522,4.477,10,10,10s10-4.478,10-10
	c0-15.498-7.08-29.372-18.174-38.562c6.281-8.286,16.142-13.349,26.851-13.349c18.581,0,33.698,15.116,33.698,33.697
	c0,5.522,4.477,10,10,10c0.023,0,0.046-0.003,0.069-0.003s0.046,0.003,0.069,0.003c5.523,0,10-4.478,10-10
	c0-18.581,15.117-33.697,33.698-33.697c10.709,0,20.57,5.063,26.851,13.349c-11.094,9.19-18.173,23.064-18.173,38.562
	c0,5.522,4.477,10,10,10s10-4.478,10-10c0-16.576,13.486-30.063,30.063-30.063s30.063,13.486,30.063,30.063c0,5.522,4.477,10,10,10
	s10-4.478,10-10C408.633,474.396,386.175,451.938,358.571,451.938z"/>
<path d="M256,300.331c-2.63,0-5.21,1.069-7.07,2.93c-1.86,1.86-2.93,4.44-2.93,7.07s1.07,5.21,2.93,7.069
	c1.86,1.87,4.44,2.931,7.07,2.931c2.63,0,5.21-1.061,7.07-2.931c1.86-1.859,2.93-4.439,2.93-7.069s-1.07-5.21-2.93-7.07
	S258.63,300.331,256,300.331z"/>
<g>
</g>
<g>
</g>
<g>
</g>
<g>
</g>
<g>
</g>
<g>
</g>
<g>
</g>
<g>
</g>
<g>
</g>
<g>
</g>
<g>
</g>
<g>
</g>
<g>
</g>
<g>
</g>
<g>
</g>
</svg>
