<?xml version="1.0" encoding="iso-8859-1"?>
<!-- Generator: Adobe Illustrator 19.0.0, SVG Export Plug-In . SVG Version: 6.00 Build 0)  -->
<svg version="1.1" id="Capa_1" xmlns="http://www.w3.org/2000/svg" xmlns:xlink="http://www.w3.org/1999/xlink" x="0px" y="0px"
	 viewBox="0 0 512 512" style="enable-background:new 0 0 512 512;" xml:space="preserve">
<path style="fill:#ACB8FF;" d="M462,430H50c-22.091,0-40,17.909-40,40v15.333C10,494.538,17.462,502,26.667,502h458.667
	c9.205,0,16.667-7.462,16.667-16.667V470C502,447.909,484.091,430,462,430z"/>
<path style="fill:#C8D0FF;" d="M256,10L256,10C130.253,10,28.316,111.938,28.316,237.684v132.632C28.316,403.278,55.037,430,88,430
	h336c32.963,0,59.684-26.722,59.684-59.684V237.684C483.684,111.938,381.747,10,256,10z"/>
<path style="fill:#FFFFFF;" d="M466.436,412.274c10.661-10.781,17.248-25.599,17.248-41.958V237.684
	c0-76.069-37.312-143.414-94.624-184.761L385.316,52L208.598,228.718l8.422,57.475l239.953,129.403L466.436,412.274z"/>
<path style="fill:#ECEEFF;" d="M298.423,330.091l171.223-171.223c-7.427-20.12-17.607-38.902-30.096-55.888L242.564,299.967
	L298.423,330.091z"/>
<circle style="fill:#FFE5BB;" cx="174.21" cy="263.11" r="48.632"/>
<path d="M471.782,420.967c13.47-12.714,21.902-30.712,21.902-50.652V237.684c0-63.488-24.724-123.176-69.616-168.068
	S319.488,0,256,0S132.824,24.724,87.932,69.616c-44.893,44.892-69.616,104.58-69.616,168.068v132.631
	c0,19.94,8.432,37.938,21.902,50.652C17.315,425.529,0,445.777,0,470v15.333C0,500.037,11.963,512,26.667,512h458.666
	C500.037,512,512,500.037,512,485.333V470C512,445.777,494.685,425.529,471.782,420.967z M426.224,102.164L323.089,205.299
	c-3.905,3.905-3.905,10.237,0,14.143c1.953,1.953,4.512,2.929,7.071,2.929s5.118-0.976,7.071-2.929l100.876-100.876
	c7.791,11.87,14.453,24.541,19.833,37.865l-73.01,73.01c-3.905,3.905-3.905,10.237,0,14.143c1.953,1.953,4.512,2.929,7.071,2.929
	s5.118-0.976,7.071-2.929l66.128-66.128c5.518,19.135,8.482,39.342,8.482,60.229v132.631c0,13.684-5.562,26.094-14.542,35.088
	L229.795,281.72c1.965-5.853,3.046-12.108,3.046-18.614c0-12.561-3.983-24.202-10.735-33.754L387.29,64.168
	C401.793,75.169,414.878,87.942,426.224,102.164z M212.842,263.105c0,21.302-17.33,38.632-38.631,38.632
	c-21.302,0-38.632-17.33-38.632-38.632s17.33-38.632,38.632-38.632C195.512,224.474,212.842,241.804,212.842,263.105z
	 M38.315,370.315V237.684C38.315,117.653,135.969,20,256,20c41.992,0,81.237,11.964,114.528,32.645L207.965,215.209
	c-9.552-6.752-21.193-10.735-33.754-10.735c-32.33,0-58.632,26.302-58.632,58.632s26.302,58.632,58.632,58.632
	c18.672,0,35.321-8.785,46.066-22.427l219.196,118.21C434.601,419.122,429.402,420,424,420H88
	C60.604,420,38.315,397.712,38.315,370.315z M492,485.333c0,3.676-2.991,6.667-6.667,6.667H26.667c-3.676,0-6.667-2.991-6.667-6.667
	V470c0-16.542,13.458-30,30-30h38h336h38c16.542,0,30,13.458,30,30V485.333z"/>
<path d="M167.14,256.04c-1.86,1.85-2.93,4.43-2.93,7.06c0,2.641,1.069,5.21,2.93,7.08c1.86,1.86,4.44,2.93,7.07,2.93
	s5.21-1.069,7.069-2.93c1.86-1.87,2.931-4.45,2.931-7.08s-1.07-5.2-2.931-7.06c-1.859-1.87-4.43-2.93-7.069-2.93
	C171.58,253.11,169,254.17,167.14,256.04z"/>
<path d="M297.279,235.25c-2.63,0-5.21,1.07-7.069,2.93c-1.86,1.86-2.931,4.44-2.931,7.07s1.07,5.21,2.931,7.07
	c1.859,1.86,4.439,2.93,7.069,2.93c2.631,0,5.211-1.07,7.07-2.93c1.86-1.86,2.93-4.44,2.93-7.07s-1.069-5.21-2.93-7.07
	C302.49,236.32,299.91,235.25,297.279,235.25z"/>
<path d="M129.391,121.075c2.56,0,5.118-0.977,7.071-2.929c20.766-20.766,46.623-35.817,74.776-43.527
	c5.326-1.459,8.462-6.959,7.003-12.286c-1.459-5.328-6.959-8.461-12.286-7.004c-31.497,8.625-60.418,25.457-83.636,48.675
	c-3.905,3.905-3.905,10.237,0,14.142C124.272,120.099,126.831,121.075,129.391,121.075z"/>
<path d="M255.515,68.632c0.011,0,0.021,0,0.031,0L256,68.631c5.522,0,10-4.477,10-10s-4.478-10-10-10l-0.515,0.001
	c-5.522,0.017-9.986,4.507-9.97,10.03C245.532,64.175,250.006,68.632,255.515,68.632z"/>
<path d="M174.211,360.894c5.522,0,10-4.478,10-10s-4.478-10-10-10c-42.893,0-77.789-34.896-77.789-77.788
	s34.896-77.789,77.789-77.789c5.522,0,10-4.477,10-10s-4.478-10-10-10c-53.921,0-97.789,43.868-97.789,97.789
	S120.29,360.894,174.211,360.894z"/>
<g>
</g>
<g>
</g>
<g>
</g>
<g>
</g>
<g>
</g>
<g>
</g>
<g>
</g>
<g>
</g>
<g>
</g>
<g>
</g>
<g>
</g>
<g>
</g>
<g>
</g>
<g>
</g>
<g>
</g>
</svg>
