<?xml version="1.0" encoding="iso-8859-1"?>
<!-- Generator: Adobe Illustrator 19.0.0, SVG Export Plug-In . SVG Version: 6.00 Build 0)  -->
<svg version="1.1" id="Capa_1" xmlns="http://www.w3.org/2000/svg" xmlns:xlink="http://www.w3.org/1999/xlink" x="0px" y="0px"
	 viewBox="0 0 512 512" style="enable-background:new 0 0 512 512;" xml:space="preserve">
<path style="fill:#FFE5BB;" d="M135.966,245.589c24.303,40.953,68.959,68.41,120.034,68.41s95.731-27.457,120.034-68.41H135.966z"/>
<ellipse style="fill:#ECEEFF;" cx="255.998" cy="174.029" rx="245.999" ry="81.969"/>
<path style="fill:#C8D0FF;" d="M256,10L256,10C200.771,10,156,54.771,156,109.999v35.243c0,8.378,5.625,15.712,13.716,17.885l0,0
	c56.521,15.177,116.045,15.177,172.567,0l0,0c8.091-2.173,13.716-9.507,13.716-17.885v-35.243C355.999,54.771,311.228,10,256,10z"/>
<rect x="19.656" y="333.68" transform="matrix(-0.7071 0.7071 -0.7071 -0.7071 325.804 579.049)" style="fill:#ECEEFF;" width="46.641" height="46.641"/>
<path d="M466.193,120.123c-25.557-12.947-60.728-23.232-101.968-29.852C354.901,39,309.921,0,256,0s-98.901,39-108.224,90.271
	c-41.233,6.618-76.398,16.901-101.952,29.844C7.95,139.296,0.001,160.021,0.001,174.03c0,26.928,27.28,50.251,78.891,67.448
	c15.454,5.149,32.554,9.54,50.883,13.127c12.842,20.194,30.44,37.14,51.139,49.189c22.707,13.218,48.672,20.205,75.087,20.205
	s52.38-6.987,75.088-20.205c20.698-12.049,38.296-28.995,51.139-49.189c18.329-3.587,35.429-7.978,50.883-13.127
	c51.61-17.197,78.891-40.521,78.891-67.448C511.998,160.024,504.05,139.302,466.193,120.123z M166,109.999
	C166,60.374,206.374,20,256,20s89.999,40.374,89.999,89.999v35.243c0,3.846-2.595,7.229-6.31,8.227
	c-54.751,14.702-112.629,14.703-167.38,0c-3.715-0.998-6.31-4.381-6.31-8.227L166,109.999L166,109.999z M256,303.998
	c-37.632,0-73.345-16.67-97.725-44.608c30.542,4.33,63.627,6.608,97.725,6.608s67.184-2.277,97.725-6.608
	C329.343,287.328,293.631,303.998,256,303.998z M426.786,222.503c-15.641,5.212-33.079,9.618-51.858,13.156
	c-0.494,0.055-0.983,0.14-1.462,0.268C338.005,242.5,297.846,245.999,256,245.999c-41.848,0-82.01-3.499-117.47-10.072
	c-0.475-0.126-0.96-0.21-1.449-0.265c-18.782-3.539-36.223-7.945-51.867-13.158c-40.834-13.606-65.213-31.727-65.213-48.474
	c0-20.542,39.525-48.552,125.999-63.197v34.409c0,12.877,8.686,24.203,21.122,27.542c29.072,7.807,58.976,11.71,88.877,11.71
	s59.806-3.903,88.877-11.71c12.437-3.34,21.122-14.666,21.122-27.542v-34.409c86.475,14.645,125.999,42.656,125.999,63.197
	C491.998,190.776,467.62,208.897,426.786,222.503z"/>
<path d="M450.344,315.558c-16.542,0-30,13.458-30,30s13.458,30,30,30s30-13.458,30-30S466.886,315.558,450.344,315.558z
	 M450.344,355.558c-5.514,0-10-4.486-10-10s4.486-10,10-10s10,4.486,10,10S455.858,355.558,450.344,355.558z"/>
<path d="M256,206.999c-2.63,0-5.21,1.07-7.07,2.93c-1.86,1.86-2.93,4.44-2.93,7.07s1.069,5.21,2.93,7.07
	c1.861,1.86,4.44,2.93,7.07,2.93s5.21-1.07,7.069-2.93c1.86-1.86,2.931-4.44,2.931-7.07s-1.07-5.21-2.931-7.07
	C261.21,208.069,258.629,206.999,256,206.999z"/>
<path d="M74.171,152.939c-2.64,0-5.21,1.07-7.07,2.93c-1.859,1.86-2.93,4.43-2.93,7.07c0,2.63,1.07,5.21,2.93,7.07
	c1.86,1.86,4.431,2.93,7.07,2.93c2.63,0,5.2-1.07,7.07-2.93c1.859-1.86,2.93-4.44,2.93-7.07c0-2.64-1.07-5.21-2.93-7.07
	C79.38,154.009,76.8,152.939,74.171,152.939z"/>
<path d="M437.829,152.939c-2.63,0-5.21,1.06-7.07,2.92c-1.86,1.87-2.93,4.44-2.93,7.08c0,2.63,1.069,5.21,2.93,7.07
	s4.44,2.93,7.07,2.93c2.64,0,5.21-1.07,7.069-2.93c1.86-1.86,2.931-4.44,2.931-7.07c0-2.64-1.07-5.21-2.931-7.08
	C443.039,153.999,440.468,152.939,437.829,152.939z"/>
<path d="M363.669,196.379c-2.641,0-5.21,1.06-7.07,2.92c-1.87,1.87-2.93,4.44-2.93,7.07c0,2.64,1.06,5.22,2.93,7.08
	c1.86,1.86,4.43,2.93,7.07,2.93c2.63,0,5.21-1.07,7.07-2.93c1.859-1.87,2.93-4.44,2.93-7.08c0-2.62-1.07-5.2-2.93-7.07
	C368.869,197.439,366.298,196.379,363.669,196.379z"/>
<path d="M148.33,196.369c-2.63,0-5.21,1.07-7.07,2.93c-1.86,1.87-2.93,4.44-2.93,7.07c0,2.64,1.069,5.22,2.93,7.07
	c1.86,1.87,4.44,2.94,7.07,2.94c2.64,0,5.21-1.07,7.069-2.94c1.87-1.86,2.931-4.43,2.931-7.07c0-2.62-1.061-5.2-2.931-7.07
	C153.54,197.439,150.969,196.369,148.33,196.369z"/>
<path d="M196.333,119.966c5.523,0,10-4.511,10-10.034l0.001-0.184c0-5.523-4.478-9.967-10-9.967c-5.523,0-10,4.511-10,10.034
	l-0.001,0.184C186.333,115.522,190.81,119.966,196.333,119.966z"/>
<path d="M201.707,83.282c1.768,1.273,3.811,1.886,5.835,1.886c3.106,0,6.169-1.444,8.123-4.157
	C224.99,68.063,240.069,60.333,256,60.333c5.522,0,10-4.477,10-10s-4.478-10-10-10c-22.345,0-43.49,10.837-56.563,28.99
	C196.209,73.805,197.224,80.054,201.707,83.282z"/>
<path d="M159.492,299.411c-5.176-1.931-10.935,0.704-12.862,5.878l-72,193.216c-1.929,5.176,0.703,10.935,5.878,12.862
	C81.66,511.797,82.84,512,84,512c4.056,0,7.872-2.487,9.371-6.511l72-193.216C167.298,307.098,164.667,301.339,159.492,299.411z"/>
<path d="M365.369,305.289c-1.928-5.175-7.685-7.81-12.862-5.878c-5.175,1.928-7.807,7.687-5.878,12.862l72,193.216
	c1.499,4.024,5.314,6.511,9.371,6.511c1.16,0,2.34-0.203,3.491-0.633c5.175-1.928,7.807-7.687,5.878-12.862L365.369,305.289z"/>
<path d="M256,387.913c-5.522,0-10,4.478-10,10v77.085c0,5.522,4.478,10,10,10c5.522,0,10-4.478,10-10v-77.085
	C266,392.391,261.522,387.913,256,387.913z"/>
<path d="M256,346.998c-2.63,0-5.21,1.069-7.07,2.93c-1.86,1.861-2.93,4.44-2.93,7.07c0,2.63,1.069,5.21,2.93,7.069
	c1.86,1.86,4.44,2.931,7.07,2.931s5.21-1.07,7.069-2.931c1.86-1.859,2.931-4.439,2.931-7.069c0-2.63-1.07-5.21-2.931-7.07
	C261.21,348.067,258.629,346.998,256,346.998z"/>
<path d="M83.034,349.927l-32.98-32.981c-1.875-1.875-4.419-2.929-7.071-2.929s-5.195,1.054-7.071,2.929L2.929,349.927
	c-3.905,3.905-3.905,10.237,0,14.143l32.981,32.981c1.876,1.875,4.419,2.929,7.071,2.929s5.196-1.054,7.071-2.929l32.98-32.981
	C86.939,360.164,86.939,353.832,83.034,349.927z M42.982,375.837l-18.839-18.839l18.839-18.839l18.839,18.839L42.982,375.837z"/>
<path d="M462.634,40h9.682v10c0,5.523,4.478,10,10,10s10-4.477,10-10V40h9.683c5.522,0,10-4.477,10-10s-4.478-10-10-10h-9.683V10
	c0-5.523-4.478-10-10-10s-10,4.477-10,10v10h-9.682c-5.522,0-10,4.477-10,10S457.112,40,462.634,40z"/>
<path d="M64.001,51c2.63,0,5.21-1.07,7.069-2.93c1.86-1.86,2.931-4.44,2.931-7.07s-1.07-5.21-2.931-7.07
	C69.211,32.07,66.63,31,64.001,31s-5.21,1.07-7.07,2.93s-2.93,4.44-2.93,7.07c0,2.64,1.069,5.21,2.93,7.07
	C58.792,49.93,61.371,51,64.001,51z"/>
<path d="M501.998,451.936c-2.63,0-5.21,1.07-7.07,2.931c-1.86,1.859-2.93,4.439-2.93,7.069c0,2.63,1.069,5.21,2.93,7.07
	c1.861,1.86,4.44,2.93,7.07,2.93c2.63,0,5.21-1.069,7.069-2.93c1.86-1.86,2.931-4.44,2.931-7.07c0-2.63-1.07-5.21-2.931-7.069
	C507.208,453.007,504.627,451.936,501.998,451.936z"/>
<g>
</g>
<g>
</g>
<g>
</g>
<g>
</g>
<g>
</g>
<g>
</g>
<g>
</g>
<g>
</g>
<g>
</g>
<g>
</g>
<g>
</g>
<g>
</g>
<g>
</g>
<g>
</g>
<g>
</g>
</svg>
