<?xml version="1.0" encoding="iso-8859-1"?>
<!-- Generator: Adobe Illustrator 19.0.0, SVG Export Plug-In . SVG Version: 6.00 Build 0)  -->
<svg version="1.1" id="Capa_1" xmlns="http://www.w3.org/2000/svg" xmlns:xlink="http://www.w3.org/1999/xlink" x="0px" y="0px"
	 viewBox="0 0 512 512" style="enable-background:new 0 0 512 512;" xml:space="preserve">
<g>
	<rect x="450" y="117.1" style="fill:#DDE2FF;" width="52" height="52"/>
	<rect x="450" y="342.85" style="fill:#DDE2FF;" width="52" height="52"/>
</g>
<circle style="fill:#C6ECF6;" cx="256" cy="255.85" r="156"/>
<g>
	<path style="fill:#BDED7E;" d="M411.819,248.393C407.927,165.7,339.656,99.849,256,99.849c-2.886,0-5.753,0.085-8.6,0.239v55.733
		c0,7.487,2.995,14.663,8.319,19.928l14.728,14.566c5.247,5.19,12.33,8.101,19.71,8.101h33.005l43.616,49.977L411.819,248.393
		L411.819,248.393z"/>
	<path style="fill:#BDED7E;" d="M324.619,327.388l-58.43-17.745c-5.071-1.54-10.189,2.254-10.189,7.554v18.632
		c0,8.603-3.672,16.797-10.092,22.523l-44.245,39.457l-4.686,2.475c18.209,7.449,38.134,11.565,59.023,11.565
		c35.633,0,68.468-11.955,94.733-32.062l-15.486-42.346C333.48,332.607,329.544,328.884,324.619,327.388z"/>
	<path style="fill:#BDED7E;" d="M100,255.849c0,26.745,6.735,51.915,18.594,73.915c3.835-2.51,6.517-4.297,6.517-4.297
		l17.733-31.058c2.578-4.516,7.379-7.303,12.579-7.303h22.22c3.842,0,7.526-1.526,10.243-4.243l22.212-22.212
		c3.152-3.152,4.923-7.428,4.923-11.886V228.48c0-9.284-7.526-16.81-16.81-16.81H164.71c-9.284,0-16.81-7.526-16.81-16.81v-51.478
		C118.377,171.767,100,211.66,100,255.849z"/>
</g>
<circle style="fill:#FE7A77;" cx="37" cy="255.85" r="27"/>
<path style="fill:#FFE5BB;" d="M492,302.849h-32c-5.523,0-10-4.477-10-10v-74c0-5.523,4.477-10,10-10h32c5.523,0,10,4.477,10,10v74
	C502,298.372,497.523,302.849,492,302.849z"/>
<path d="M383.676,165.61c-4.702,2.896-6.166,9.057-3.27,13.759c11.385,18.481,18.229,38.615,20.708,59.024h-29.792l-40.628-46.552
	c-1.899-2.176-4.646-3.425-7.534-3.425h-33.005c-4.778,0-9.281-1.851-12.678-5.21l-14.728-14.566
	c-3.401-3.364-5.352-8.036-5.352-12.818v-45.264c0-0.307-0.019-0.61-0.046-0.911c26.014,0.255,52.166,7.518,75.644,22.115
	c4.69,2.916,10.856,1.478,13.772-3.212c2.916-4.69,1.479-10.856-3.212-13.772C312.269,95.325,274.754,86.82,237.931,90.83
	c-35.711,3.889-69.48,19.501-95.659,44.109c-0.905,0.617-3.226,3.101-3.655,3.531c-64.724,64.724-64.724,170.036,0,234.76
	c32.362,32.361,74.871,48.542,117.38,48.542s85.018-16.181,117.38-48.542c26.564-26.564,43.47-61.717,47.604-98.981
	c4.069-36.691-4.294-74.111-23.548-105.368C394.539,164.177,388.379,162.713,383.676,165.61z M137.9,169.971v24.89
	c0,14.783,12.026,26.81,26.81,26.81h33.502c3.755,0,6.81,3.055,6.81,6.81v20.285c0,1.818-0.709,3.529-1.995,4.815l-22.212,22.212
	c-0.847,0.847-1.974,1.313-3.172,1.313h-22.22c-8.769,0-16.916,4.73-21.264,12.345l-12.953,22.687
	C113.857,294.542,110,275.492,110,255.849C110,224.555,119.787,194.769,137.9,169.971z M217.871,396.752l34.691-30.936
	C261.103,358.2,266,347.271,266,335.829v-15.793l55.713,16.92c1.908,0.58,3.457,2.045,4.143,3.919l12.897,35.266
	C302.944,400.798,258.495,407.672,217.871,396.752z M359.237,359.086c-1.318,1.318-2.662,2.596-4.018,3.853l-10.581-28.933
	c-2.83-7.74-9.228-13.791-17.113-16.187l-58.431-17.745c-5.479-1.664-11.258-0.663-15.857,2.747S246,311.472,246,317.198v18.632
	c0,5.746-2.46,11.234-6.748,15.06l-42.868,38.229c-15.829-7.06-30.653-17.063-43.622-30.031
	c-8.041-8.041-15.02-16.858-20.884-26.277c0.737-0.679,1.393-1.467,1.917-2.384l17.733-31.059c0.796-1.395,2.288-2.261,3.895-2.261
	h22.22c6.541,0,12.689-2.547,17.314-7.171l22.213-22.213c5.063-5.065,7.852-11.797,7.852-18.957V228.48
	c0-14.783-12.026-26.81-26.81-26.81H164.71c-3.755,0-6.81-3.055-6.81-6.81v-47.142c22.768-20.71,50.591-33.157,79.499-36.884v44.986
	c0,10.088,4.114,19.942,11.287,27.038l14.728,14.566c7.166,7.087,16.663,10.991,26.742,10.991h28.459l40.628,46.552
	c1.899,2.176,4.646,3.425,7.534,3.425h35.378C401.521,295.185,386.902,331.421,359.237,359.086z"/>
<path d="M359.237,138.469c-3.905,3.905-3.905,10.237,0,14.143l0.056,0.056c1.946,1.945,4.487,2.915,7.03,2.915
	c2.562,0,5.125-0.983,7.084-2.943c3.905-3.905,3.878-10.265-0.027-14.17C369.474,134.564,363.144,134.564,359.237,138.469z"/>
<path d="M84.026,118.269c1.898,1.667,4.251,2.485,6.594,2.485c2.777,0,5.542-1.151,7.519-3.402c2.095-2.386,4.268-4.75,6.457-7.028
	c3.828-3.981,3.704-10.312-0.276-14.139c-3.98-3.829-10.312-3.705-14.14,0.277c-2.398,2.494-4.777,5.083-7.07,7.695
	C79.466,108.307,79.876,114.626,84.026,118.269z"/>
<path d="M127.565,87.218c2.024,0,4.068-0.613,5.836-1.887c2.571-1.852,5.22-3.669,7.872-5.403c4.624-3.021,5.923-9.218,2.901-13.841
	c-3.02-4.623-9.216-5.923-13.841-2.901c-2.906,1.898-5.807,3.89-8.622,5.918c-4.481,3.228-5.497,9.478-2.27,13.959
	C121.397,85.775,124.459,87.218,127.565,87.218z"/>
<path d="M171.093,62.835c1.287,0,2.596-0.25,3.857-0.778c2.929-1.226,5.921-2.399,8.894-3.487c5.187-1.897,7.854-7.64,5.956-12.827
	c-1.898-5.186-7.637-7.854-12.827-5.956c-3.258,1.191-6.536,2.477-9.745,3.82c-5.095,2.133-7.496,7.991-5.363,13.086
	C163.469,60.527,167.183,62.835,171.093,62.835z"/>
<path d="M404.492,107.356c1.952,1.953,4.512,2.93,7.071,2.93c2.559,0,5.118-0.976,7.07-2.928c3.905-3.905,3.906-10.236,0.002-14.142
	c-2.451-2.451-4.993-4.881-7.556-7.222c-4.076-3.725-10.403-3.438-14.127,0.639c-3.726,4.078-3.439,10.403,0.639,14.128
	C399.932,102.898,402.253,105.117,404.492,107.356z"/>
<path d="M315.174,54.299c3.037,0.89,6.095,1.862,9.089,2.891c1.076,0.37,2.172,0.545,3.25,0.545c4.151,0,8.031-2.607,9.456-6.753
	c1.795-5.223-0.984-10.912-6.208-12.707c-3.281-1.127-6.634-2.194-9.963-3.169c-5.294-1.55-10.854,1.484-12.408,6.785
	C306.837,47.19,309.874,52.745,315.174,54.299z"/>
<path d="M219.014,48.945c0.555,0,1.117-0.046,1.683-0.142c3.111-0.527,6.287-0.991,9.44-1.378c5.481-0.673,9.38-5.662,8.707-11.144
	s-5.658-9.383-11.145-8.707c-3.454,0.424-6.935,0.932-10.345,1.51c-5.445,0.923-9.111,6.085-8.188,11.53
	C209.993,45.494,214.225,48.945,219.014,48.945z"/>
<path d="M359.024,72.813c2.76,1.557,5.521,3.198,8.203,4.877c1.649,1.032,3.483,1.524,5.295,1.524c3.332,0,6.589-1.665,8.486-4.697
	c2.931-4.682,1.51-10.852-3.172-13.782c-2.938-1.839-5.962-3.636-8.984-5.342c-4.81-2.713-10.908-1.015-13.624,3.796
	C352.516,64,354.215,70.099,359.024,72.813z"/>
<path d="M268.262,46.2c3.168,0.183,6.37,0.44,9.517,0.764c0.349,0.036,0.693,0.054,1.036,0.054c5.063,0,9.406-3.832,9.936-8.977
	c0.565-5.494-3.43-10.406-8.923-10.971c-3.443-0.354-6.947-0.636-10.413-0.836c-5.527-0.316-10.241,3.895-10.56,9.407
	C258.536,41.154,262.748,45.882,268.262,46.2z"/>
<path d="M57.421,160.513c1.508,0.812,3.131,1.197,4.731,1.197c3.561,0,7.008-1.907,8.813-5.261c1.499-2.784,3.084-5.574,4.711-8.292
	c2.836-4.739,1.293-10.88-3.445-13.716c-4.743-2.837-10.88-1.293-13.717,3.445c-1.781,2.977-3.517,6.032-5.158,9.081
	C50.738,151.831,52.558,157.895,57.421,160.513z"/>
<path d="M250.901,465.786c-3.169-0.075-6.378-0.223-9.537-0.44c-5.499-0.362-10.282,3.781-10.662,9.291
	c-0.379,5.51,3.781,10.283,9.291,10.662c3.457,0.237,6.968,0.399,10.436,0.481c0.081,0.002,0.161,0.003,0.241,0.003
	c5.413,0,9.863-4.323,9.992-9.764C260.793,470.498,256.423,465.916,250.901,465.786z"/>
<path d="M298.361,461.576c-3.104,0.635-6.265,1.207-9.396,1.701c-5.455,0.86-9.18,5.98-8.319,11.437
	c0.777,4.928,5.03,8.442,9.865,8.442c0.519,0,1.043-0.04,1.571-0.123c3.428-0.541,6.889-1.168,10.288-1.863
	c5.41-1.107,8.899-6.391,7.792-11.802C309.056,463.958,303.77,460.464,298.361,461.576z"/>
<path d="M203.73,459.295c-3.058-0.783-6.142-1.648-9.167-2.572c-5.281-1.616-10.871,1.359-12.484,6.643
	c-1.613,5.282,1.36,10.871,6.643,12.484c3.314,1.013,6.694,1.962,10.046,2.82c0.832,0.213,1.667,0.314,2.488,0.314
	c4.458,0,8.523-3.003,9.681-7.521C212.307,466.115,209.081,460.666,203.73,459.295z"/>
<path d="M343.605,446.761c-2.874,1.322-5.821,2.596-8.758,3.786c-5.118,2.075-7.586,7.906-5.511,13.024
	c1.576,3.888,5.319,6.246,9.271,6.246c1.251,0,2.523-0.236,3.754-0.735c3.219-1.305,6.448-2.701,9.6-4.149
	c5.018-2.308,7.215-8.245,4.908-13.264C354.561,446.652,348.623,444.455,343.605,446.761z"/>
<path d="M384.339,422.082c-2.516,1.944-5.102,3.852-7.685,5.668c-4.518,3.177-5.604,9.415-2.427,13.933
	c1.947,2.768,5.043,4.248,8.188,4.248c1.987,0,3.995-0.591,5.744-1.821c2.827-1.988,5.657-4.075,8.409-6.203
	c4.37-3.377,5.175-9.657,1.797-14.027C394.988,419.507,388.707,418.704,384.339,422.082z"/>
<path d="M63.411,339.71c-1.266-2.9-2.482-5.876-3.618-8.842c-1.973-5.158-7.756-7.737-12.913-5.765
	c-5.158,1.974-7.739,7.756-5.765,12.913c1.243,3.249,2.576,6.509,3.962,9.688c1.641,3.761,5.315,6.006,9.172,6.006
	c1.335,0,2.69-0.27,3.992-0.836C63.304,350.666,65.618,344.773,63.411,339.71z"/>
<path d="M159.303,442.313c-2.807-1.459-5.619-3.002-8.358-4.588c-4.779-2.767-10.897-1.135-13.664,3.645
	c-2.768,4.779-1.136,10.897,3.645,13.664c3,1.737,6.081,3.428,9.155,5.025c1.474,0.766,3.05,1.129,4.603,1.129
	c3.613,0,7.102-1.964,8.882-5.391C166.111,450.896,164.203,444.859,159.303,442.313z"/>
<path d="M81.771,373.124c-3.089-4.579-9.306-5.788-13.882-2.698c-4.579,3.088-5.787,9.304-2.698,13.882
	c1.93,2.862,3.962,5.732,6.038,8.531c1.963,2.645,4.981,4.042,8.039,4.042c2.071,0,4.16-0.642,5.951-1.97
	c4.435-3.291,5.362-9.555,2.072-13.99C85.392,378.362,83.534,375.739,81.771,373.124z"/>
<path d="M119.816,415.709c-2.402-2.047-4.797-4.184-7.118-6.353c-4.035-3.77-10.362-3.555-14.134,0.481
	c-3.77,4.035-3.555,10.363,0.481,14.134c2.542,2.375,5.166,4.717,7.798,6.96c1.883,1.604,4.188,2.389,6.481,2.389
	c2.828,0,5.639-1.193,7.616-3.514C124.523,425.603,124.02,419.291,119.816,415.709z"/>
<path d="M74,255.849c0-20.402-16.598-37-37-37s-37,16.598-37,37s16.598,37,37,37S74,276.251,74,255.849z M37,272.849
	c-9.374,0-17-7.626-17-17s7.626-17,17-17s17,7.626,17,17S46.374,272.849,37,272.849z"/>
<path d="M502,179.103c5.522,0,10-4.477,10-10v-52c0-5.523-4.478-10-10-10h-52c-5.522,0-10,4.477-10,10v52c0,5.523,4.478,10,10,10h16
	v19.746h-6c-11.028,0-20,8.972-20,20v74c0,11.028,8.972,20,20,20h6v20h-16c-5.522,0-10,4.478-10,10v52c0,5.522,4.478,10,10,10h52
	c5.522,0,10-4.478,10-10v-52c0-5.522-4.478-10-10-10h-16v-20h6c11.028,0,20-8.972,20-20v-74c0-11.028-8.972-20-20-20h-6v-19.746H502
	z M492,384.849h-32v-32h32V384.849z M492.013,292.848c0,0-0.004,0.001-0.013,0.001h-32v-74h32L492.013,292.848z M460,127.103h32v32
	h-32V127.103z"/>
<g>
</g>
<g>
</g>
<g>
</g>
<g>
</g>
<g>
</g>
<g>
</g>
<g>
</g>
<g>
</g>
<g>
</g>
<g>
</g>
<g>
</g>
<g>
</g>
<g>
</g>
<g>
</g>
<g>
</g>
</svg>
