<?xml version="1.0" encoding="iso-8859-1"?>
<!-- Generator: Adobe Illustrator 19.0.0, SVG Export Plug-In . SVG Version: 6.00 Build 0)  -->
<svg version="1.1" id="Capa_1" xmlns="http://www.w3.org/2000/svg" xmlns:xlink="http://www.w3.org/1999/xlink" x="0px" y="0px"
	 viewBox="0 0 512 512" style="enable-background:new 0 0 512 512;" xml:space="preserve">
<path style="fill:#BDED7E;" d="M502,502v-18.076C502,433.708,461.292,393,411.076,393h-60.085
	c-21.544,0-39.009-17.465-39.009-39.009v-17.738H200.018v17.738c0,21.544-17.465,39.009-39.009,39.009h-60.085
	C50.708,393,10,433.708,10,483.924V502H502z"/>
<g>
	<path style="fill:#FFFFFF;" d="M98,502v-16.063c0-13.255-10.745-24-24-24l0,0c-13.255,0-24,10.745-24,24V502H98z"/>
	<path style="fill:#FFFFFF;" d="M454.991,502v-16.063c0-13.255-10.745-24-24-24l0,0c-13.255,0-24,10.745-24,24V502H454.991z"/>
</g>
<path style="fill:#BDED7E;" d="M402.956,143.444C402.956,48.154,337.162,10,256,10S109.044,48.154,109.044,143.444
	S174.838,355.073,256,355.073S402.956,238.733,402.956,143.444z"/>
<g>
	<path style="fill:#8396FF;" d="M223.783,159.292c-6.811-24.463-27.905-40.311-47.115-35.398s-29.262,28.727-22.45,53.19
		s27.905,40.311,47.115,35.398C220.543,207.568,230.594,183.755,223.783,159.292z"/>
	<path style="fill:#8396FF;" d="M288.217,159.292c6.811-24.463,27.905-40.311,47.115-35.398s29.262,28.727,22.45,53.19
		s-27.905,40.311-47.115,35.398C291.457,207.568,281.406,183.755,288.217,159.292z"/>
</g>
<path d="M233.417,156.609L233.417,156.609c-8.248-29.624-34.813-48.652-59.227-42.404c-10.349,2.646-19.213,9.576-24.961,19.513
	c-7.494,12.954-9.188,29.737-4.646,46.047c7.19,25.824,28.301,43.591,49.768,43.591c3.159,0,6.327-0.385,9.459-1.186
	c10.349-2.646,19.213-9.576,24.961-19.513C236.265,189.703,237.958,172.919,233.417,156.609z M211.459,192.642
	c-2.146,3.709-6.074,8.481-12.604,10.151c-13.715,3.504-29.742-9.497-35.004-28.393c-3.062-10.998-2.057-22.462,2.69-30.668
	c2.146-3.709,6.074-8.481,12.604-10.151c1.51-0.386,3.048-0.572,4.597-0.572c12.515,0,25.725,12.148,30.407,28.964
	C217.212,172.972,216.205,184.437,211.459,192.642z"/>
<path d="M367.417,179.765c4.541-16.31,2.848-33.093-4.646-46.047c-5.748-9.937-14.612-16.866-24.961-19.513
	c-24.413-6.244-50.978,12.781-59.227,42.404l0,0c-4.541,16.31-2.848,33.094,4.646,46.047c5.748,9.937,14.612,16.866,24.961,19.513
	c3.133,0.801,6.299,1.186,9.459,1.186C339.115,223.355,360.227,205.586,367.417,179.765z M348.149,174.4
	c-4.683,16.817-17.892,28.966-30.408,28.965c-1.547,0-3.087-0.186-4.596-0.572c-6.53-1.67-10.459-6.442-12.604-10.151
	c-4.746-8.206-5.753-19.67-2.69-30.668l0,0c5.262-18.897,21.296-31.894,35.004-28.393c6.53,1.67,10.459,6.442,12.604,10.151
	C350.206,151.938,351.211,163.403,348.149,174.4z"/>
<path d="M186.461,72.361c1.156,0,2.333-0.202,3.48-0.628c25.158-9.343,63.391-12.538,97.397-8.135
	c5.478,0.709,10.491-3.157,11.2-8.634s-3.156-10.492-8.634-11.201c-37.551-4.859-78.524-1.326-106.927,9.221
	c-5.177,1.923-7.815,7.678-5.893,12.856C178.582,69.87,182.4,72.361,186.461,72.361z"/>
<path d="M322.264,71.714c1.162,0.439,2.355,0.647,3.528,0.647c4.041,0,7.847-2.468,9.358-6.472
	c1.949-5.167-0.658-10.937-5.826-12.887l-0.232-0.086c-5.177-1.906-10.893,0.763-12.799,5.946
	C314.386,64.045,317.08,69.808,322.264,71.714z"/>
<path d="M289.566,85.456c-18.752-6.964-48.127-6.964-66.879,0c-5.178,1.923-7.815,7.679-5.893,12.856s7.679,7.813,12.855,5.893
	c14.352-5.33,38.602-5.33,52.953,0c1.147,0.426,2.323,0.628,3.48,0.628c4.061,0,7.879-2.492,9.375-6.521
	C297.382,93.134,294.744,87.378,289.566,85.456z"/>
<path d="M20.771,439.811c-5.104-2.122-10.953,0.295-13.073,5.394C2.59,457.488,0,470.515,0,483.924V502c0,5.522,4.478,10,10,10
	s10-4.478,10-10v-18.076c0-10.76,2.074-21.203,6.164-31.041C28.285,447.784,25.869,441.931,20.771,439.811z"/>
<path d="M43.24,427.168c3.851-3.96,3.763-10.291-0.196-14.142c-3.961-3.849-10.29-3.761-14.142,0.196l-0.208,0.213
	c-3.851,3.96-3.763,10.291,0.196,14.142c1.944,1.89,4.459,2.831,6.972,2.831c2.605,0,5.209-1.013,7.17-3.027L43.24,427.168z"/>
<path d="M411.076,383h-60.085c-15.996,0-29.01-13.014-29.01-29.009v-12.489c16.729-12.432,32.39-29.591,46.322-51.069
	c27.96-43.102,44.652-98.052,44.652-146.99c0-48.121-15.733-85.21-46.765-110.239C339.26,11.482,301.156,0,256,0
	s-83.26,11.482-110.191,33.205c-31.031,25.028-46.765,62.118-46.765,110.239c0,48.938,16.692,103.888,44.652,146.99
	c13.933,21.478,29.593,38.636,46.322,51.069v12.489c0,15.995-13.014,29.009-29.01,29.009h-60.085
	c-14.342,0-28.202,2.949-41.195,8.766c-5.041,2.256-7.298,8.172-5.041,13.213c1.662,3.714,5.311,5.917,9.133,5.917
	c1.365,0,2.753-0.281,4.08-0.876c10.405-4.658,21.517-7.02,33.023-7.02h60.085c27.024,0,49.01-21.985,49.01-49.009v-0.138
	c14.87,7.384,30.33,11.22,45.981,11.22s31.112-3.836,45.981-11.22v0.138c0,27.023,21.985,49.009,49.01,49.009h60.085
	C455.697,403,492,439.303,492,483.924V502c0,5.522,4.478,10,10,10s10-4.478,10-10v-18.076C512,428.274,466.726,383,411.076,383z
	 M160.476,279.55c-25.943-39.994-41.432-90.875-41.432-136.106C119.044,36.037,204.852,20,256,20s136.956,16.037,136.956,123.443
	c0,45.232-15.488,96.113-41.432,136.106c-27.012,41.641-61.829,65.523-95.524,65.523S187.487,321.19,160.476,279.55z"/>
<path d="M74,451.938c-18.748,0-34,15.252-34,34V502c0,5.522,4.478,10,10,10s10-4.478,10-10v-16.063c0-7.72,6.28-14,14-14
	s14,6.28,14,14V502c0,5.522,4.478,10,10,10s10-4.478,10-10v-16.063C108,467.189,92.748,451.938,74,451.938z"/>
<path d="M430.991,451.938c-18.748,0-34,15.252-34,34V502c0,5.522,4.478,10,10,10s10-4.478,10-10v-16.063c0-7.72,6.28-14,14-14
	s14,6.28,14,14V502c0,5.522,4.478,10,10,10s10-4.478,10-10v-16.063C464.991,467.189,449.739,451.938,430.991,451.938z"/>
<path d="M315.547,417.738c-12.279,0-22.27,9.99-22.27,22.271c0,5.522,4.478,10,10,10s10-4.478,10-10c0-1.252,1.019-2.271,2.27-2.271
	c5.522,0,10-4.478,10-10S321.069,417.738,315.547,417.738z"/>
<path d="M196.453,417.738c-5.522,0-10,4.478-10,10s4.478,10,10,10c1.251,0,2.27,1.019,2.27,2.271c0,5.522,4.478,10,10,10
	s10-4.478,10-10C218.723,427.729,208.732,417.738,196.453,417.738z"/>
<path d="M271,269.795h-30c-5.522,0-10,4.478-10,10s4.478,10,10,10h30c5.522,0,10-4.478,10-10S276.522,269.795,271,269.795z"/>
<g>
</g>
<g>
</g>
<g>
</g>
<g>
</g>
<g>
</g>
<g>
</g>
<g>
</g>
<g>
</g>
<g>
</g>
<g>
</g>
<g>
</g>
<g>
</g>
<g>
</g>
<g>
</g>
<g>
</g>
</svg>
