<?xml version="1.0" encoding="iso-8859-1"?>
<!-- Generator: Adobe Illustrator 19.0.0, SVG Export Plug-In . SVG Version: 6.00 Build 0)  -->
<svg version="1.1" id="Capa_1" xmlns="http://www.w3.org/2000/svg" xmlns:xlink="http://www.w3.org/1999/xlink" x="0px" y="0px"
	 viewBox="0 0 512 512" style="enable-background:new 0 0 512 512;" xml:space="preserve">
<circle style="fill:#AFBAFF;" cx="388.539" cy="442" r="60.001"/>
<circle style="fill:#FFCB79;" cx="346.038" cy="165.994" r="156.003"/>
<circle style="fill:#C6ECF6;" cx="110.033" cy="401.999" r="100.002"/>
<g>
	<path style="fill:#BDED7E;" d="M209.922,397.218c-2.495-53.01-46.259-95.223-99.886-95.223c-1.85,0-3.688,0.054-5.513,0.153v35.727
		c0,4.799,1.92,9.399,5.332,12.774l9.441,9.337c3.364,3.327,7.904,5.193,12.635,5.193h21.157l27.96,32.038h28.874V397.218z"/>
	<path style="fill:#BDED7E;" d="M154.024,447.857l-37.456-11.375c-3.25-0.987-6.531,1.445-6.531,4.842v11.943
		c0,5.515-2.354,10.767-6.469,14.438l-28.363,25.294l-3.004,1.586c11.672,4.775,24.446,7.414,37.837,7.414
		c22.841,0,43.891-7.664,60.727-20.552l-9.927-27.146C159.704,451.202,157.181,448.816,154.024,447.857z"/>
	<path style="fill:#BDED7E;" d="M10.034,401.998c0,17.144,4.317,33.28,11.919,47.382c2.459-1.609,4.177-2.754,4.177-2.754
		l11.368-19.909c1.653-2.895,4.73-4.681,8.064-4.681h14.243c2.463,0,4.824-0.978,6.566-2.72l14.239-14.239
		c2.021-2.021,3.156-4.762,3.156-7.619v-13.003c0-5.951-4.824-10.775-10.775-10.775H51.516c-5.951,0-10.775-4.824-10.775-10.775v-33
		C21.815,348.098,10.034,373.67,10.034,401.998z"/>
</g>
<path d="M110.036,291.996c-60.655,0-110.002,49.347-110.002,110.002S49.381,512,110.036,512s110.002-49.347,110.002-110.002
	S170.692,291.996,110.036,291.996z M198.818,387.218h-13.223l-24.971-28.613c-1.899-2.176-4.646-3.425-7.534-3.425h-21.157
	c-2.112,0-4.102-0.817-5.603-2.302l-9.441-9.338c-1.503-1.486-2.365-3.551-2.365-5.664v-25.769
	C157.101,314.208,191.985,346.036,198.818,387.218z M30.74,359.46v3.442c0,11.456,9.32,20.775,20.775,20.775h21.475
	c0.428,0,0.775,0.348,0.775,0.775v13.003c0,0.204-0.083,0.403-0.228,0.548l-14.029,14.03H45.562c-6.906,0-13.324,3.726-16.748,9.723
	l-4.456,7.805c-2.803-8.691-4.323-17.953-4.323-27.566C20.034,386.621,23.914,372.134,30.74,359.46z M93.142,490.402l17.081-15.233
	c6.236-5.563,9.813-13.545,9.813-21.9v-5.281l31.081,9.438c0.151,0.046,0.274,0.162,0.328,0.311l7.285,19.92
	C144.684,486.728,127.964,492,110.036,492C104.262,492,98.616,491.446,93.142,490.402z M175.082,464.139l-4.854-13.272
	c-2.2-6.015-7.171-10.717-13.299-12.578l-37.456-11.375c-4.543-1.378-9.531-0.516-13.346,2.313
	c-3.814,2.827-6.091,7.351-6.091,12.099v11.943c0,2.661-1.139,5.203-3.125,6.974l-25.719,22.934
	c-14.782-7.102-27.335-18.127-36.308-31.715l11.092-19.426h13.829c5.15,0,9.993-2.006,13.637-5.648L87.68,412.15
	c3.924-3.924,6.086-9.142,6.086-14.691v-13.003c0-11.456-9.32-20.775-20.775-20.775H51.516c-0.428,0-0.775-0.348-0.775-0.775
	v-28.552c12.154-10.667,27.195-18.118,43.782-21.012v24.539c0,7.418,3.025,14.665,8.3,19.883l9.441,9.338
	c5.27,5.213,12.254,8.083,19.667,8.083h16.612l24.971,28.613c1.899,2.176,4.646,3.425,7.534,3.425h18.833
	C198.618,429.23,189.41,449.149,175.082,464.139z"/>
<path d="M463.423,48.61C436.851,22.038,401.687,5.13,364.41,1.002c-36.701-4.063-74.134,4.312-105.394,23.585
	c-4.701,2.898-6.163,9.059-3.264,13.76c2.898,4.7,9.058,6.162,13.76,3.264c57.776-35.621,131.7-26.928,179.769,21.141
	c15.889,15.889,27.338,34.561,34.358,54.459c-19.551,34.463-47.526,63.896-80.973,85.147c-4.662,2.962-6.04,9.142-3.078,13.803
	c1.905,2.999,5.142,4.639,8.45,4.639c1.834,0,3.691-0.504,5.354-1.561c30.501-19.379,56.782-45.057,76.967-74.967
	c6.602,44.248-7.085,90.967-41.077,124.959c-27.395,27.395-63.056,41.6-99.028,42.628c11.435-6.636,22.043-14.696,31.479-24.005
	l0.756-0.746c3.932-3.879,3.975-10.21,0.097-14.142c-3.878-3.932-10.21-3.976-14.142-0.097l-0.757,0.746
	c-16.014,15.8-35.882,27.511-57.458,33.876c-24.724-6.214-48.127-18.961-67.426-38.261c-28.338-28.337-43.017-66.688-42.605-105.221
	c19.701-2.993,38.655-10.404,55.138-21.635l0.737-0.502c4.564-3.11,5.742-9.331,2.632-13.895c-3.111-4.564-9.333-5.741-13.895-2.632
	l-0.737,0.502c-12.706,8.658-27.139,14.647-42.206,17.587c2.469-16.185,7.678-32.09,15.742-46.969
	c2.631-4.856,0.828-10.925-4.027-13.557c-4.857-2.631-10.925-0.828-13.557,4.027c-16.692,30.803-23.234,66.978-18.421,101.863
	c4.976,36.064,21.247,68.767,47.056,94.576c32.363,32.362,74.873,48.543,117.383,48.543s85.02-16.181,117.383-48.543
	C528.148,218.65,528.148,113.335,463.423,48.61z"/>
<path d="M235.731,65.682c2.559,0,5.119-0.976,7.071-2.929l0.213-0.213c3.905-3.905,3.905-10.237,0-14.143
	c-3.905-3.905-10.237-3.905-14.143,0l-0.213,0.213c-3.905,3.905-3.905,10.237,0,14.143
	C230.611,64.706,233.172,65.682,235.731,65.682z"/>
<path d="M407.755,73.286c3.562-4.221,3.026-10.53-1.195-14.091c-4.221-3.562-10.531-3.026-14.091,1.195
	c-14.228,16.864-30.936,31.336-49.659,43.014c-4.686,2.922-6.116,9.091-3.193,13.777c1.896,3.04,5.157,4.709,8.494,4.709
	c1.807,0,3.637-0.49,5.283-1.517C373.891,107.591,392.18,91.748,407.755,73.286z"/>
<path d="M262.807,245.359c1.707,3.615,5.3,5.732,9.049,5.732c1.43,0,2.884-0.309,4.263-0.96
	c30.54-14.42,58.374-33.594,82.731-56.987l1.572-1.509c3.983-3.825,4.112-10.155,0.287-14.139
	c-3.825-3.984-10.156-4.112-14.139-0.287l-1.572,1.51c-22.792,21.891-48.839,39.833-77.418,53.327
	C262.586,234.405,260.449,240.365,262.807,245.359z"/>
<path d="M388.542,371.997c-38.599,0-70.001,31.403-70.001,70.001S349.943,512,388.542,512s70.001-31.403,70.001-70.002
	S427.142,371.997,388.542,371.997z M388.542,492c-27.571,0-50.001-22.43-50.001-50.001c0-27.571,22.43-50.001,50.001-50.001
	c27.571,0,50.001,22.43,50.001,50.001C438.543,469.569,416.113,492,388.542,492z"/>
<path d="M370.301,149.421c-1.86,1.86-2.93,4.44-2.93,7.07c0,2.63,1.07,5.21,2.93,7.07c1.87,1.86,4.44,2.93,7.07,2.93
	c2.64,0,5.21-1.07,7.07-2.93c1.87-1.86,2.93-4.44,2.93-7.07c0-2.63-1.06-5.21-2.93-7.07c-1.86-1.86-4.43-2.93-7.07-2.93
	C374.742,146.492,372.171,147.561,370.301,149.421z"/>
<path d="M92.955,201.202h9.683v10c0,5.523,4.477,10,10,10c5.523,0,10-4.477,10-10v-10h9.682c5.523,0,10-4.477,10-10s-4.477-10-10-10
	h-9.682v-10c0-5.523-4.477-10-10-10c-5.523,0-10,4.477-10,10v10h-9.683c-5.523,0-10,4.477-10,10S87.431,201.202,92.955,201.202z"/>
<path d="M30.034,129.707c16.542,0,30.001-13.458,30.001-30.001S46.577,69.706,30.034,69.706S0.034,83.164,0.034,99.706
	S13.492,129.707,30.034,129.707z M30.034,89.706c5.514,0,10,4.486,10,10c0,5.514-4.486,10-10,10s-10-4.486-10-10
	C20.034,94.192,24.52,89.706,30.034,89.706z"/>
<path d="M143.707,29.859c2.63,0,5.21-1.07,7.07-2.93c1.86-1.87,2.93-4.44,2.93-7.07s-1.07-5.21-2.93-7.07
	c-1.86-1.87-4.44-2.93-7.07-2.93c-2.64,0-5.21,1.06-7.07,2.93c-1.87,1.86-2.93,4.44-2.93,7.07s1.06,5.2,2.93,7.07
	C138.496,28.789,141.067,29.859,143.707,29.859z"/>
<g>
</g>
<g>
</g>
<g>
</g>
<g>
</g>
<g>
</g>
<g>
</g>
<g>
</g>
<g>
</g>
<g>
</g>
<g>
</g>
<g>
</g>
<g>
</g>
<g>
</g>
<g>
</g>
<g>
</g>
</svg>
