<?xml version="1.0" encoding="iso-8859-1"?>
<!-- Generator: Adobe Illustrator 19.0.0, SVG Export Plug-In . SVG Version: 6.00 Build 0)  -->
<svg version="1.1" id="Capa_1" xmlns="http://www.w3.org/2000/svg" xmlns:xlink="http://www.w3.org/1999/xlink" x="0px" y="0px"
	 viewBox="0 0 512 512" style="enable-background:new 0 0 512 512;" xml:space="preserve">
<path style="fill:#FFDFAD;" d="M79.652,256H70c-11.046,0-20-8.954-20-20v-27c0-11.046,8.954-20,20-20h54.25v-40H66
	c-30.928,0-56,25.072-56,56v35c0,30.928,25.072,56,56,56l0,0L79.652,256z"/>
<path style="fill:#9AA9FF;" d="M440,224.5v-85.182c0-14.736-11.946-26.682-26.682-26.682H392H176h-21.318
	c-14.736,0-26.682,11.946-26.682,26.682V224.5H440z"/>
<path style="fill:#ECEEFF;" d="M177.983,213l-65.35,21.009C84.844,242.942,66,268.794,66,297.983V482h436V297.983
	c0-29.19-18.844-55.041-46.633-63.975L390.017,213H177.983z"/>
<g>
	<path style="fill:#C8D0FF;" d="M284,30L284,30c-59.647,0-108,48.353-108,108v59.662c0,9.048,6.075,16.969,14.813,19.316l0,0
		c61.043,16.391,125.33,16.391,186.373,0l0,0C385.925,214.631,392,206.71,392,197.662V138C392,78.353,343.647,30,284,30z"/>
	<path style="fill:#C8D0FF;" d="M416,482H152V327c0-11.046,8.954-20,20-20h224c11.046,0,20,8.954,20,20V482z"/>
</g>
<rect x="191.75" y="366.06" style="fill:#FFFFFF;" width="61.938" height="61.938"/>
<path d="M458.428,224.489l-8.428-2.71v-82.462c0-20.227-16.456-36.682-36.682-36.682h-16.734
	c-8.446-26.83-26.238-49.553-49.541-64.34c-0.471-0.353-0.963-0.663-1.475-0.922C327.633,26.36,306.546,20,284,20
	c-52.75,0-97.523,34.794-112.584,82.636h-16.734c-20.12,0-36.502,16.284-36.674,36.364H66c-36.393,0-66,29.607-66,66v35
	c0,11.391,2.902,22.117,8.003,31.479c0.059,0.117,0.108,0.237,0.172,0.353c0.087,0.157,0.194,0.295,0.288,0.446
	c9.764,17.336,27.12,29.85,47.537,32.966V482c0,5.522,4.477,10,10,10h86h264h86c5.523,0,10-4.478,10-10V297.983
	C512,264.325,490.471,234.79,458.428,224.489z M426,390h66v28h-66V390z M492,297.983V370h-66v-43c0-16.542-13.458-30-30-30H172
	c-16.542,0-30,13.458-30,30v43H76v-72.017c0-24.938,15.952-46.822,39.693-54.455l64.145-20.621c2.543,1.632,5.351,2.914,8.382,3.728
	c31.333,8.414,63.551,12.62,95.78,12.62c32.221,0,64.454-4.208,95.779-12.619c3.032-0.814,5.84-2.096,8.383-3.728l64.144,20.621
	C476.048,251.162,492,273.045,492,297.983z M20,240v-17h20v13c0,2.217,0.249,4.376,0.708,6.458l-18.863,10.409
	C20.652,248.781,20,244.466,20,240z M31.294,174.86l12.961,18.759c-1.712,2.855-2.965,6.015-3.651,9.38H20.051
	C20.513,192.26,24.677,182.47,31.294,174.86z M70,246c-5.514,0-10-4.486-10-10v-27c0-5.514,4.486-10,10-10h48v22.779l-8.428,2.709
	c-13.217,4.25-24.639,11.778-33.505,21.512H70z M118,179H98v-20h20V179z M76,390h66v28H76V390z M413.318,122.636
	c9.199,0,16.682,7.483,16.682,16.682v76.032l-29.198-9.387c0.768-2.654,1.198-5.437,1.198-8.301V138c0-5.207-0.343-10.334-1-15.364
	H413.318z M284,40c14.422,0,28.125,3.133,40.468,8.752l-80.396,80.396c-3.905,3.905-3.905,10.237,0,14.143
	c1.952,1.953,4.512,2.929,7.071,2.929s5.119-0.977,7.071-2.929l84.043-84.044C366.353,77.118,382,105.765,382,138v59.662
	c0,4.515-3.045,8.487-7.407,9.658c-37.769,10.142-76.913,13.809-115.681,11.025l78.756-78.756c3.905-3.905,3.905-10.237,0-14.143
	c-3.905-3.905-10.237-3.905-14.143,0l-90.128,90.128c-13.448-1.965-26.804-4.714-39.992-8.255c-4.361-1.17-7.406-5.142-7.406-9.657
	V138C186,83.962,229.962,40,284,40z M154.682,122.636H167c-0.657,5.03-1,10.158-1,15.364v59.662c0,2.864,0.431,5.647,1.198,8.301
	L138,215.35v-76.032C138,130.119,145.483,122.636,154.682,122.636z M78,159v20h-8c-3.61,0-7.073,0.642-10.282,1.816l-12.341-17.862
	C53.074,160.42,59.373,159,66,159H78z M31.503,270.381l19.814-10.934c3.442,2.748,7.498,4.753,11.929,5.777
	c-2.919,6.25-5.01,12.934-6.174,19.899C46.975,283.128,38.061,277.819,31.503,270.381z M76,438h66v34H76V438z M162,472V327
	c0-5.514,4.486-10,10-10h224c5.514,0,10,4.486,10,10v145H162z M426,472v-34h66v34H426z"/>
<path d="M253.688,356.063H191.75c-5.523,0-10,4.478-10,10V428c0,5.522,4.477,10,10,10h61.938c5.523,0,10-4.478,10-10v-61.938
	C263.688,360.54,259.21,356.063,253.688,356.063z M243.688,418H201.75v-41.938h41.938V418z"/>
<path d="M293.75,385.06c2.63,0,5.21-1.06,7.07-2.93c1.86-1.86,2.93-4.44,2.93-7.07s-1.07-5.21-2.93-7.069
	c-1.86-1.86-4.44-2.931-7.07-2.931s-5.21,1.07-7.07,2.931c-1.86,1.859-2.93,4.439-2.93,7.069s1.07,5.21,2.93,7.07
	C288.54,384,291.12,385.06,293.75,385.06z"/>
<path d="M375,365.06c-2.63,0-5.21,1.07-7.07,2.931c-1.86,1.859-2.93,4.439-2.93,7.069s1.07,5.21,2.93,7.07
	c1.86,1.87,4.44,2.93,7.07,2.93s5.21-1.06,7.07-2.93c1.86-1.86,2.93-4.44,2.93-7.07s-1.07-5.21-2.93-7.069
	C380.21,366.13,377.63,365.06,375,365.06z"/>
<path d="M334.38,385.06c2.63,0,5.2-1.06,7.07-2.93c1.86-1.86,2.92-4.44,2.92-7.07s-1.06-5.21-2.92-7.069
	c-1.87-1.86-4.44-2.931-7.07-2.931c-2.64,0-5.21,1.07-7.08,2.931c-1.86,1.859-2.93,4.439-2.93,7.069s1.07,5.21,2.93,7.07
	C329.17,384,331.74,385.06,334.38,385.06z"/>
<path d="M341,404.063h-47.25c-5.523,0-10,4.478-10,10s4.477,10,10,10H341c5.523,0,10-4.478,10-10S346.523,404.063,341,404.063z"/>
<path d="M375,404.06c-2.63,0-5.21,1.07-7.07,2.931c-1.86,1.859-2.93,4.439-2.93,7.069s1.07,5.21,2.93,7.07
	c1.86,1.87,4.44,2.93,7.07,2.93s5.21-1.06,7.07-2.93c1.86-1.86,2.93-4.43,2.93-7.07c0-2.63-1.07-5.21-2.93-7.069
	C380.21,405.13,377.63,404.06,375,404.06z"/>
<path d="M225.58,171.78c2.63,0,5.21-1.07,7.07-2.93c1.86-1.86,2.93-4.44,2.93-7.07s-1.07-5.21-2.93-7.07
	c-1.86-1.86-4.44-2.93-7.07-2.93s-5.21,1.07-7.07,2.93c-1.86,1.86-2.93,4.44-2.93,7.07s1.07,5.21,2.93,7.07
	C220.37,170.71,222.95,171.78,225.58,171.78z"/>
<g>
</g>
<g>
</g>
<g>
</g>
<g>
</g>
<g>
</g>
<g>
</g>
<g>
</g>
<g>
</g>
<g>
</g>
<g>
</g>
<g>
</g>
<g>
</g>
<g>
</g>
<g>
</g>
<g>
</g>
</svg>
