<?xml version="1.0" encoding="iso-8859-1"?>
<!-- Generator: Adobe Illustrator 19.0.0, SVG Export Plug-In . SVG Version: 6.00 Build 0)  -->
<svg version="1.1" id="Capa_1" xmlns="http://www.w3.org/2000/svg" xmlns:xlink="http://www.w3.org/1999/xlink" x="0px" y="0px"
	 viewBox="0 0 512 512" style="enable-background:new 0 0 512 512;" xml:space="preserve">
<circle style="fill:#BDED7E;" cx="64.952" cy="64.952" r="54.952"/>
<circle style="fill:#FFCB79;" cx="256" cy="256" r="246"/>
<g>
	<circle style="fill:#FFDFAD;" cx="189.35" cy="366.85" r="47.982"/>
	<circle style="fill:#FFDFAD;" cx="242" cy="96.82" r="31.871"/>
	<circle style="fill:#FFDFAD;" cx="385.37" cy="180.21" r="45.815"/>
</g>
<circle style="fill:#FE7A77;" cx="430" cy="430" r="72"/>
<path d="M330.654,479.951C306.659,487.946,281.541,492,256,492c-117.469,0-215.155-86.273-233.056-198.782h90.222
	c5.523,0,10-4.478,10-10s-4.477-10-10-10H20.631C20.219,267.531,20,261.791,20,256c0-23.629,3.506-46.451,9.999-67.991h17.492
	c17.831,0,34.595-6.944,47.204-19.552c8.831-8.832,20.572-13.695,33.061-13.695h2.64c12.488,0,24.229,4.863,33.061,13.695l2.2,2.199
	c12.609,12.608,29.373,19.552,47.203,19.552H287c5.523,0,10-4.477,10-10s-4.477-10-10-10h-74.141
	c-12.488,0-24.23-4.864-33.061-13.695l-2.199-2.199c-12.609-12.608-29.373-19.552-47.203-19.552h-2.64
	c-17.831,0-34.595,6.944-47.204,19.552c-8.831,8.832-20.572,13.695-33.061,13.695H37.027C71.982,81.334,156.957,20,256,20
	c130.131,0,236,105.869,236,236c0,25.438-4.021,50.458-11.952,74.365c-1.739,5.242,1.101,10.9,6.343,12.64
	c5.241,1.739,10.901-1.101,12.64-6.343C507.636,310.72,512,283.581,512,256c0-68.38-26.628-132.667-74.981-181.019
	C388.667,26.628,324.38,0,256,0c-47.461,0-92.944,12.839-132.502,36.855c-4.721-9.831-11.879-18.404-20.909-24.839
	C91.555,4.155,78.541,0,64.952,0C29.137,0,0,29.137,0,64.952c0,6.989,1.106,13.869,3.288,20.447c1.392,4.197,5.298,6.855,9.49,6.855
	c1.043,0,2.105-0.165,3.149-0.511c5.242-1.739,8.082-7.397,6.344-12.64C20.764,74.559,20,69.798,20,64.952
	C20,40.166,40.166,20,64.952,20c9.404,0,18.406,2.872,26.032,8.305c7.031,5.01,12.424,11.884,15.619,19.76
	c-11.138,8.038-21.719,17.013-31.622,26.916C26.628,123.333,0,187.62,0,256s26.628,132.667,74.981,181.02
	C123.333,485.371,187.62,512,256,512c27.694,0,54.938-4.398,80.977-13.074c5.24-1.746,8.072-7.408,6.326-12.648
	C341.557,481.038,335.895,478.204,330.654,479.951z"/>
<path d="M189.351,308.864c-31.972,0-57.982,26.011-57.982,57.982s26.011,57.982,57.982,57.982s57.982-26.011,57.982-57.982
	S221.322,308.864,189.351,308.864z M189.351,404.829c-20.943,0-37.982-17.039-37.982-37.982s17.039-37.982,37.982-37.982
	s37.982,17.039,37.982,37.982S210.294,404.829,189.351,404.829z"/>
<path d="M430,348c-45.215,0-82,36.785-82,82s36.785,82,82,82s82-36.785,82-82S475.215,348,430,348z M430,492
	c-34.187,0-62-27.813-62-62s27.813-62,62-62s62,27.813,62,62S464.187,492,430,492z"/>
<path d="M200.129,96.824c0,23.088,18.783,41.871,41.871,41.871s41.871-18.783,41.871-41.871S265.088,54.952,242,54.952
	S200.129,73.736,200.129,96.824z M263.871,96.824c0,12.06-9.812,21.871-21.871,21.871s-21.871-9.812-21.871-21.871
	c0-12.06,9.812-21.872,21.871-21.872S263.871,84.764,263.871,96.824z"/>
<path d="M329.559,180.208c0,30.776,25.038,55.814,55.814,55.814s55.815-25.038,55.815-55.814s-25.039-55.815-55.815-55.815
	S329.559,149.432,329.559,180.208z M421.188,180.208c0,19.748-16.066,35.814-35.815,35.814c-19.748,0-35.814-16.066-35.814-35.814
	c0-19.749,16.066-35.815,35.814-35.815C405.122,144.393,421.188,160.459,421.188,180.208z"/>
<path d="M445.4,276.66c-1.86,1.87-2.93,4.439-2.93,7.069c0,2.641,1.07,5.21,2.93,7.08c1.86,1.86,4.44,2.931,7.07,2.931
	s5.21-1.07,7.07-2.931c1.86-1.87,2.93-4.439,2.93-7.08c0-2.63-1.07-5.199-2.93-7.069c-1.86-1.86-4.44-2.92-7.07-2.92
	S447.26,274.8,445.4,276.66z"/>
<path d="M392.411,293.735h21.923c5.523,0,10-4.478,10-10s-4.477-10-10-10h-21.923c-11.319,0-21.96,4.407-29.965,12.412
	c-4.226,4.226-9.845,6.554-15.822,6.554H328.11c-6.213,0-12.054-2.419-16.447-6.813c-8.171-8.171-19.035-12.671-30.589-12.671H242
	c-5.523,0-10,4.478-10,10s4.477,10,10,10h39.074c6.212,0,12.053,2.42,16.446,6.813c8.171,8.17,19.034,12.67,30.589,12.67h18.514
	c11.319,0,21.961-4.408,29.964-12.412C380.814,296.063,386.434,293.735,392.411,293.735z"/>
<path d="M157.5,293.22c2.63,0,5.21-1.07,7.07-2.93s2.93-4.44,2.93-7.07c0-2.64-1.07-5.21-2.93-7.07c-1.86-1.869-4.44-2.93-7.07-2.93
	s-5.21,1.061-7.07,2.93c-1.86,1.86-2.93,4.431-2.93,7.07c0,2.63,1.07,5.21,2.93,7.07C152.29,292.149,154.87,293.22,157.5,293.22z"/>
<path d="M216.819,446h-27.468c-5.523,0-10,4.478-10,10s4.477,10,10,10h27.468c10.447,0,20.354-3.981,27.895-11.209l9.54-9.144
	c3.799-3.642,8.791-5.647,14.055-5.647H320c5.523,0,10-4.478,10-10s-4.477-10-10-10h-51.692c-10.447,0-20.354,3.981-27.895,11.209
	l-9.54,9.144C227.075,443.994,222.083,446,216.819,446z"/>
<g>
</g>
<g>
</g>
<g>
</g>
<g>
</g>
<g>
</g>
<g>
</g>
<g>
</g>
<g>
</g>
<g>
</g>
<g>
</g>
<g>
</g>
<g>
</g>
<g>
</g>
<g>
</g>
<g>
</g>
</svg>
