<?xml version="1.0" encoding="iso-8859-1"?>
<!-- Generator: Adobe Illustrator 19.0.0, SVG Export Plug-In . SVG Version: 6.00 Build 0)  -->
<svg version="1.1" id="Capa_1" xmlns="http://www.w3.org/2000/svg" xmlns:xlink="http://www.w3.org/1999/xlink" x="0px" y="0px"
	 viewBox="0 0 512 512" style="enable-background:new 0 0 512 512;" xml:space="preserve">
<circle style="fill:#FE7A77;" cx="391.76" cy="120.23" r="26"/>
<circle style="fill:#C8D0FF;" cx="81.84" cy="430.22" r="36.974"/>
<circle style="fill:#FFDFAD;" cx="256" cy="256" r="80"/>
<circle style="fill:#FFEDD1;" cx="210.51" cy="281.58" r="28.1"/>
<circle style="fill:#9AA9FF;" cx="256" cy="392" r="20"/>
<circle style="fill:#FFEDD1;" cx="296.9" cy="224.08" r="28.1"/>
<path d="M327.818,201.823c-0.565-0.784-1.167-1.55-1.8-2.298C309.506,179.092,284.255,166,256,166c-49.626,0-90,40.374-90,90
	s40.374,90,90,90s90-40.374,90-90C346,235.675,339.224,216.905,327.818,201.823z M309.697,236.872
	c-7.055,7.056-18.535,7.057-25.591,0c-7.056-7.056-7.056-18.536,0-25.592c3.528-3.528,8.162-5.292,12.795-5.292
	c4.634,0,9.268,1.764,12.796,5.292c0.344,0.344,0.658,0.708,0.969,1.072c0.26,0.325,0.517,0.651,0.771,0.98
	C316.673,220.411,316.107,230.462,309.697,236.872z M256,326c-27.65,0-51.602-16.117-62.968-39.448
	c-0.041-0.313-0.094-0.627-0.166-0.941c-1.077-4.712-0.255-9.562,2.315-13.655s6.581-6.941,11.293-8.019
	c4.712-1.076,9.562-0.255,13.656,2.315c4.093,2.571,6.941,6.581,8.018,11.294c1.23,5.383,6.589,8.747,11.977,7.521
	c5.384-1.231,8.751-6.593,7.521-11.978c-2.268-9.92-8.262-18.363-16.88-23.774c-8.619-5.411-18.827-7.144-28.747-4.875
	c-5.953,1.361-11.368,4.072-15.921,7.879C188.018,215.426,218.637,186,256,186c8.295,0,16.254,1.459,23.644,4.119
	c-3.491,1.771-6.767,4.104-9.681,7.019c-7.195,7.196-11.158,16.763-11.158,26.938s3.963,19.743,11.158,26.938
	c7.427,7.427,17.183,11.14,26.938,11.14c9.756,0,19.512-3.713,26.938-11.14c0.635-0.635,1.233-1.293,1.813-1.96
	C325.88,251.339,326,253.656,326,256C326,294.598,294.598,326,256,326z"/>
<path d="M256,458c111.383,0,202-90.617,202-202c0-28.061-5.647-55.227-16.786-80.742c-2.209-5.062-8.105-7.375-13.166-5.165
	c-5.062,2.209-7.374,8.104-5.165,13.166C432.915,206.236,438,230.709,438,256c0,100.355-81.645,182-182,182S74,356.355,74,256
	S155.645,74,256,74c13.985,0,27.915,1.591,41.404,4.728c5.377,1.25,10.754-2.096,12.005-7.475s-2.096-10.754-7.475-12.005
	C286.962,55.766,271.508,54,256,54C144.617,54,54,144.617,54,256c0,50.776,18.838,97.232,49.885,132.76
	c-6.578-3.511-14.081-5.51-22.044-5.51c-25.902,0-46.974,21.072-46.974,46.974s21.072,46.975,46.974,46.975
	s46.974-21.072,46.974-46.975c0-7.968-2.001-15.476-5.516-22.057C158.818,439.183,205.251,458,256,458z M81.84,457.198
	c-14.874,0-26.974-12.101-26.974-26.975c0-14.873,12.101-26.974,26.974-26.974s26.974,12.101,26.974,26.974
	C108.814,445.098,96.714,457.198,81.84,457.198z"/>
<path d="M331.837,90.502c1.344,0.615,2.749,0.905,4.131,0.905c3.784,0,7.394-2.18,9.078-5.858
	c2.298-5.022,0.044-10.977-4.978-13.275l-0.302-0.138c-5.034-2.274-10.957-0.035-13.229,5c-2.272,5.034-0.034,10.957,5,13.229
	L331.837,90.502z"/>
<path d="M152.762,152.762c-56.925,56.926-56.925,149.55,0,206.476c11.953,11.952,25.696,21.643,40.85,28.802
	c1.38,0.651,2.833,0.96,4.265,0.96c3.748,0,7.341-2.117,9.048-5.73c2.359-4.993,0.224-10.954-4.77-13.313
	c-13.069-6.174-24.929-14.538-35.25-24.86c-49.128-49.127-49.128-129.063,0-178.191c49.127-49.127,129.063-49.127,178.19,0
	c49.128,49.128,49.128,129.064,0,178.191c-3.319,3.32-6.852,6.482-10.499,9.401c-4.312,3.45-5.01,9.744-1.56,14.056
	c3.451,4.313,9.744,5.011,14.056,1.56c4.22-3.377,8.306-7.035,12.145-10.874c56.925-56.926,56.925-149.55,0-206.476
	C302.312,95.837,209.688,95.837,152.762,152.762z"/>
<path d="M307.89,370.859l-0.656,0.295c-5.047,2.242-7.32,8.152-5.077,13.199c1.656,3.727,5.313,5.941,9.144,5.941
	c1.357,0,2.736-0.278,4.056-0.865l0.793-0.355c5.03-2.28,7.258-8.207,4.978-13.237C318.847,370.807,312.922,368.578,307.89,370.859z
	"/>
<path d="M437.019,74.981C388.667,26.628,324.38,0,256,0S123.333,26.628,74.981,74.981C26.628,123.333,0,187.62,0,256
	c0,43.983,11.344,87.37,32.804,125.468c2.711,4.812,8.808,6.516,13.621,3.805c4.812-2.711,6.516-8.809,3.805-13.621
	C30.453,336.544,20,296.552,20,256C20,125.869,125.869,20,256,20s236,105.869,236,236S386.131,492,256,492
	c-39.106,0-77.84-9.759-112.013-28.222c-4.86-2.625-10.927-0.815-13.551,4.044c-2.625,4.859-0.814,10.927,4.044,13.552
	C171.564,501.41,213.585,512,256,512c68.38,0,132.667-26.629,181.019-74.98C485.372,388.667,512,324.38,512,256
	S485.372,123.333,437.019,74.981z"/>
<path d="M391.765,156.235c19.851,0,36-16.149,36-36s-16.149-36-36-36s-36,16.149-36,36S371.914,156.235,391.765,156.235z
	 M391.765,104.235c8.822,0,16,7.178,16,16s-7.178,16-16,16s-16-7.178-16-16S382.942,104.235,391.765,104.235z"/>
<path d="M226,392c0,16.542,13.458,30,30,30s30-13.458,30-30s-13.458-30-30-30S226,375.458,226,392z M266,392c0,5.514-4.486,10-10,10
	s-10-4.486-10-10s4.486-10,10-10S266,386.486,266,392z"/>
<path d="M290,284c-2.63,0-5.21,1.069-7.07,2.93c-1.86,1.86-2.93,4.44-2.93,7.07s1.07,5.21,2.93,7.069
	c1.86,1.86,4.44,2.931,7.07,2.931s5.21-1.07,7.07-2.931c1.86-1.859,2.93-4.439,2.93-7.069s-1.07-5.21-2.93-7.07S292.63,284,290,284z
	"/>
<path d="M223.41,211c-2.63,0-5.2,1.07-7.07,2.93c-1.86,1.86-2.93,4.44-2.93,7.07s1.07,5.21,2.93,7.07s4.44,2.93,7.07,2.93
	c2.64,0,5.21-1.07,7.07-2.93c1.87-1.86,2.93-4.44,2.93-7.07s-1.06-5.21-2.93-7.07C228.62,212.07,226.04,211,223.41,211z"/>
<g>
</g>
<g>
</g>
<g>
</g>
<g>
</g>
<g>
</g>
<g>
</g>
<g>
</g>
<g>
</g>
<g>
</g>
<g>
</g>
<g>
</g>
<g>
</g>
<g>
</g>
<g>
</g>
<g>
</g>
</svg>
