<?xml version="1.0" encoding="iso-8859-1"?>
<!-- Generator: Adobe Illustrator 19.0.0, SVG Export Plug-In . SVG Version: 6.00 Build 0)  -->
<svg version="1.1" id="Capa_1" xmlns="http://www.w3.org/2000/svg" xmlns:xlink="http://www.w3.org/1999/xlink" x="0px" y="0px"
	 viewBox="0 0 512 512" style="enable-background:new 0 0 512 512;" xml:space="preserve">
<circle style="fill:#C6ECF6;" cx="255.998" cy="255.998" r="159.999"/>
<path style="fill:#6A80FF;" d="M256.001,415.999C344.366,415.999,416,344.366,416,256S344.366,96.001,256.001,96.001V415.999z"/>
<path style="fill:#2CB7DE;" d="M256.001,96.001c-3.128,0-6.232,0.1-9.316,0.277v45.077c0,7.496,2.999,14.681,8.329,19.953
	l14.746,14.584c5.254,5.196,12.345,8.111,19.734,8.111h24.923c5.162,0,10.071,2.232,13.465,6.121l36.276,41.566
	c1.304,1.495,3.191,2.352,5.175,2.352h11.844c3.794,0,6.869,3.075,6.869,6.869v16.67c0,1.822,0.724,3.569,2.012,4.857l22.22,22.22
	l0.96,1.043c1.807-9.625,2.763-19.55,2.763-29.7C416,167.635,344.365,96.001,256.001,96.001z"/>
<path style="fill:#BDED7E;" d="M96.002,256c0,27.431,6.907,53.246,19.071,75.809c3.934-2.575,6.684-4.407,6.684-4.407l18.188-31.854
	c2.644-4.631,7.568-7.49,12.902-7.49h22.789c3.94,0,7.719-1.565,10.505-4.351l22.782-22.782c3.233-3.233,5.05-7.618,5.05-12.191
	V227.93c0-9.522-7.719-17.241-17.241-17.241h-34.36c-9.522,0-17.241-7.719-17.241-17.241v-52.798
	C114.85,169.763,96.002,210.679,96.002,256z"/>
<path style="fill:#2CB7DE;" d="M406.626,310.06l-1.599-1.417l-46.096,5.762l-14.465,41.708c-2.233,6.439-8.3,10.757-15.116,10.757
	l0,0c-5.877,0-11.281-3.223-14.075-8.393l-13.018-24.092c-3.572-6.61-10.481-10.73-17.995-10.73l0,0
	c-16.754,0-32.822,6.656-44.669,18.503l-7.417,7.417c-6.466,6.466-7.854,16.438-3.401,24.424l23.392,41.952l0.003,0.001
	c1.273,0.03,2.549,0.048,3.83,0.048C325.391,415.999,384.457,371.821,406.626,310.06z"/>
<path style="fill:#BDED7E;" d="M239.594,342.158l-7.417,7.417c-6.466,6.466-7.854,16.438-3.401,24.424l23.392,41.952l0.003,0.001
	c1.273,0.03,2.549,0.048,3.83,0.048v-85.648C249.99,333.358,244.435,337.316,239.594,342.158z"/>
<g>
	
		<rect x="445.699" y="391.692" transform="matrix(-0.7071 -0.7071 0.7071 -0.7071 507.2082 1040.1187)" style="fill:#FFE5BB;" width="46.641" height="46.641"/>
	
		<rect x="350.485" y="19.664" transform="matrix(-0.7071 -0.7071 0.7071 -0.7071 607.7311 337.7003)" style="fill:#FFE5BB;" width="46.641" height="46.641"/>
</g>
<path d="M266.001,86.304V10.002c0-5.523-4.478-10-10-10c-5.522,0-10,4.477-10,10v76.301c-40.923,2.386-78,19.311-106.138,45.677
	c-1.204,0.749-2.242,1.738-3.033,2.912C105.477,165.748,86.002,208.64,86.002,256c0,90.38,70.898,164.502,159.999,169.697v76.301
	c0,5.523,4.478,10,10,10c5.522,0,10-4.477,10-10v-76.301C355.101,420.502,426,346.38,426,256S355.1,91.498,266.001,86.304z M406,256
	c0,2.691-0.075,5.365-0.216,8.022l-7.74-7.74v-15.374c0-9.301-7.567-16.869-16.869-16.869h-10.422l-35.338-40.493
	c-5.294-6.066-12.948-9.546-21-9.546h-24.923c-5.522,0-10,4.477-10,10c0,5.523,4.478,10,10,10h24.923
	c2.274,0,4.436,0.982,5.931,2.696l36.276,41.567c3.204,3.671,7.836,5.776,12.709,5.776h8.713v13.539
	c0,4.506,1.755,8.742,4.94,11.928l19.375,19.375c-0.786,3.5-1.696,6.954-2.722,10.358l-41.946,5.243
	c-3.778,0.472-6.96,3.049-8.208,6.646l-14.466,41.708c-0.836,2.413-3.114,4.034-5.667,4.034c-2.207,0-4.229-1.206-5.278-3.147
	l-13.018-24.092c-5.325-9.854-15.592-15.976-26.793-15.976c-6.244,0-12.367,0.785-18.262,2.293V106.342
	C344.064,111.506,406,176.651,406,256z M237.509,369.128c-2.265-4.062-1.55-9.194,1.738-12.482l6.753-6.753v34.464L237.509,369.128z
	 M135.13,167.283v26.167c0,15.021,12.22,27.241,27.24,27.241h34.36c3.993,0,7.241,3.248,7.241,7.24v20.805
	c0,1.934-0.753,3.752-2.121,5.12l-22.782,22.782c-0.917,0.917-2.137,1.423-3.434,1.423h-22.789c-8.901,0-17.173,4.802-21.587,12.532
	l-13.495,23.635C110.19,296.316,106,276.639,106,256.002C106.002,222.83,116.831,192.147,135.13,167.283z M128.436,334.821
	c0.773-0.696,1.461-1.508,2.005-2.46l18.187-31.854c0.863-1.51,2.479-2.449,4.219-2.449h22.789c6.639,0,12.881-2.585,17.576-7.28
	l22.781-22.781c5.146-5.145,7.979-11.986,7.979-19.263v-20.805c0-15.021-12.221-27.24-27.241-27.24h-34.36
	c-3.992,0-7.24-3.248-7.24-7.241v-48.373c24.35-22.163,56.002-36.428,90.87-38.735v218.099c-4.835,2.977-9.362,6.529-13.479,10.645
	l-7.417,7.417c-9.579,9.58-11.661,24.533-5.064,36.365l14.249,25.554C189.623,397.917,151.281,371.658,128.436,334.821z
	 M266.001,405.657v-68.79c5.774-2.107,11.932-3.212,18.262-3.212c3.845,0,7.369,2.102,9.197,5.484l13.018,24.092
	c4.546,8.413,13.311,13.64,22.874,13.64c11.065,0,20.937-7.025,24.563-17.48l12.428-35.833l25.103-3.138
	C368.659,368.131,321.392,401.993,266.001,405.657z"/>
<path d="M10.003,266h49.101c5.522,0,10-4.477,10-10c0-5.523-4.478-10-10-10H10.003c-5.522,0-10,4.477-10,10
	C0.003,261.523,4.48,266,10.003,266z"/>
<path d="M141.174,76.742c1.844,3.237,5.222,5.053,8.698,5.053c1.678,0,3.379-0.423,4.94-1.313c4.799-2.733,6.474-8.84,3.74-13.639
	L123.358,5.052c-2.733-4.799-8.841-6.473-13.639-3.74c-4.799,2.733-6.474,8.84-3.74,13.639L141.174,76.742z"/>
<path d="M73.36,349.815L5.029,388.99c-4.791,2.747-6.448,8.858-3.702,13.649c1.849,3.223,5.218,5.028,8.686,5.028
	c1.687,0,3.396-0.427,4.964-1.326l68.331-39.175c4.791-2.747,6.448-8.858,3.702-13.649C84.261,348.726,78.153,347.068,73.36,349.815
	z"/>
<path d="M10.003,126.001c2.63,0,5.21-1.07,7.069-2.93c1.86-1.86,2.931-4.44,2.931-7.07s-1.07-5.21-2.931-7.07
	c-1.859-1.86-4.439-2.93-7.069-2.93s-5.21,1.07-7.07,2.93s-2.93,4.44-2.93,7.07s1.069,5.21,2.93,7.07S7.373,126.001,10.003,126.001z
	"/>
<path d="M35.022,141.314l38.462,21.333c1.537,0.853,3.2,1.257,4.842,1.257c3.517,0,6.927-1.858,8.754-5.151
	c2.679-4.83,0.935-10.917-3.895-13.596l-38.462-21.334c-4.831-2.677-10.916-0.936-13.596,3.895
	C28.449,132.548,30.193,138.634,35.022,141.314z"/>
<path d="M156.591,428.395c-4.799-2.732-10.904-1.059-13.639,3.74l-36.974,64.913c-2.733,4.799-1.059,10.905,3.74,13.639
	c1.563,0.89,3.263,1.313,4.94,1.313c3.476,0,6.854-1.816,8.698-5.053l36.974-64.913C163.065,437.235,161.39,431.129,156.591,428.395
	z"/>
<path d="M476.088,374.965c-1.876-1.875-4.419-2.929-7.071-2.929c-2.652,0-5.195,1.054-7.071,2.929l-32.98,32.981
	c-3.905,3.905-3.905,10.237,0,14.142l32.98,32.981c1.876,1.875,4.419,2.929,7.071,2.929c2.652,0,5.195-1.054,7.071-2.929
	l32.981-32.981c1.875-1.875,2.929-4.419,2.929-7.071s-1.054-5.196-2.929-7.071L476.088,374.965z M469.017,433.857l-18.839-18.839
	l18.839-18.839l18.839,18.839L469.017,433.857z"/>
<path d="M366.736,83.035c1.876,1.875,4.419,2.929,7.071,2.929s5.195-1.054,7.071-2.929l32.98-32.981
	c3.905-3.905,3.905-10.237,0-14.142l-32.98-32.981c-1.876-1.875-4.419-2.929-7.071-2.929s-5.195,1.054-7.071,2.929l-32.981,32.981
	c-1.875,1.875-2.929,4.419-2.929,7.071c0,2.652,1.054,5.196,2.929,7.071L366.736,83.035z M373.807,24.144l18.839,18.839
	l-18.839,18.838l-18.839-18.839L373.807,24.144z"/>
<path d="M361.557,458.508h-10v-9.682c0-5.523-4.478-10-10-10c-5.522,0-10,4.477-10,10v9.682h-10c-5.522,0-10,4.477-10,10
	c0,5.523,4.478,10,10,10h10v9.683c0,5.523,4.478,10,10,10c5.522,0,10-4.477,10-10v-9.683h10c5.522,0,10-4.477,10-10
	C371.557,462.985,367.08,458.508,361.557,458.508z"/>
<path d="M461.999,138.001h10v9.682c0,5.523,4.478,10,10,10c5.522,0,10-4.477,10-10v-9.682h10c5.522,0,10-4.477,10-10
	c0-5.523-4.478-10-10-10h-10v-9.682c0-5.523-4.478-10-10-10c-5.522,0-10,4.477-10,10v9.682h-10c-5.522,0-10,4.477-10,10
	C451.999,133.524,456.476,138.001,461.999,138.001z"/>
<path d="M474.068,248.409c-1.859-1.87-4.439-2.93-7.069-2.93s-5.21,1.06-7.07,2.93c-1.86,1.86-2.93,4.43-2.93,7.07
	c0,2.63,1.069,5.21,2.93,7.07c1.861,1.86,4.44,2.93,7.07,2.93s5.21-1.07,7.069-2.93c1.86-1.87,2.931-4.44,2.931-7.07
	C476.999,252.839,475.928,250.27,474.068,248.409z"/>
<path d="M456.999,292v29c0,5.523,4.478,10,10,10c5.522,0,10-4.477,10-10v-29c0-5.523-4.478-10-10-10
	C461.477,282,456.999,286.477,456.999,292z"/>
<path d="M420.33,491.998c-2.63,0-5.21,1.07-7.07,2.93c-1.86,1.86-2.93,4.44-2.93,7.07c0,2.63,1.069,5.21,2.93,7.07
	c1.87,1.86,4.44,2.93,7.07,2.93s5.21-1.07,7.069-2.93c1.87-1.86,2.931-4.44,2.931-7.07c0-2.63-1.061-5.21-2.931-7.07
	C425.54,493.067,422.96,491.998,420.33,491.998z"/>
<g>
</g>
<g>
</g>
<g>
</g>
<g>
</g>
<g>
</g>
<g>
</g>
<g>
</g>
<g>
</g>
<g>
</g>
<g>
</g>
<g>
</g>
<g>
</g>
<g>
</g>
<g>
</g>
<g>
</g>
</svg>
