<?xml version="1.0" encoding="iso-8859-1"?>
<!-- Generator: Adobe Illustrator 19.0.0, SVG Export Plug-In . SVG Version: 6.00 Build 0)  -->
<svg version="1.1" id="Capa_1" xmlns="http://www.w3.org/2000/svg" xmlns:xlink="http://www.w3.org/1999/xlink" x="0px" y="0px"
	 viewBox="0 0 512 512" style="enable-background:new 0 0 512 512;" xml:space="preserve">
<g>
	<path style="fill:#C8D0FF;" d="M66,266.5v203.437c-9.715,7.298-16,18.977-16,32.063l0,0h72v-0.063v-40V361.234v100.703v40V502h72
		l0,0c0-13.086-6.285-24.765-16-32.063V172L66,266.5z"/>
	<path style="fill:#C8D0FF;" d="M159.459,188h179.808v-56H185.902H122H70c-33.137,0-60,26.863-60,60v104.5
		c0,19.606,15.894,35.5,35.5,35.5h18.515"/>
</g>
<g>
	<path style="fill:#FE7A77;" d="M98.069,221.838v-27.549c0-5.124,4.154-9.279,9.279-9.279h25.443c5.124,0,9.279,4.154,9.279,9.279
		v27.549c0,5.124-4.154,9.279-9.279,9.279h-25.443C102.223,231.116,98.069,226.962,98.069,221.838z"/>
	<polygon style="fill:#FE7A77;" points="502,160 339.267,160 339.267,64 502,64 453.731,112 	"/>
</g>
<path style="fill:#ECEEFF;" d="M123.203,10L123.203,10c-35.56,0-64.386,28.827-64.386,64.386v34.272
	C58.816,121.55,69.267,132,82.158,132h82.089c12.891,0,23.342-10.451,23.342-23.342V74.386C187.589,38.827,158.762,10,123.203,10z"
	/>
<path d="M144.262,64.929l-26,26c-3.905,3.905-3.905,10.237,0,14.143c1.953,1.952,4.512,2.929,7.071,2.929s5.118-0.977,7.071-2.929
	l26-26c3.905-3.905,3.905-10.237,0-14.143C154.498,61.025,148.168,61.025,144.262,64.929z"/>
<path d="M107.348,175.01c-10.63,0-19.278,8.648-19.278,19.278v27.549c0,10.63,8.648,19.278,19.278,19.278h25.443
	c10.63,0,19.278-8.648,19.278-19.278v-27.549c0-10.63-8.648-19.278-19.278-19.278H107.348z M132.069,221.116h-24V195.01h24V221.116z
	"/>
<path d="M212,178c-2.63,0-5.21,1.07-7.07,2.93c-1.86,1.86-2.93,4.44-2.93,7.07s1.069,5.21,2.93,7.07S209.37,198,212,198
	s5.21-1.07,7.069-2.93c1.86-1.86,2.931-4.44,2.931-7.07s-1.07-5.21-2.931-7.07C217.21,179.07,214.63,178,212,178z"/>
<path d="M467.913,112l41.139-40.909c2.871-2.855,3.737-7.161,2.192-10.905S506.05,54,502,54H349.267v-7.308c0-5.523-4.478-10-10-10
	s-10,4.477-10,10V64v58H194.794c1.792-4.088,2.794-8.599,2.794-13.342V74.386C197.589,33.37,164.219,0,123.202,0
	S48.816,33.37,48.816,74.386v34.272c0,5.601,1.395,10.88,3.845,15.518C22.422,131.911,0,159.385,0,192v104.5
	C0,321.589,20.411,342,45.5,342H56v123.286C45.902,474.693,40,488.069,40,502c0,5.523,4.478,10,10,10h72h72c5.522,0,10-4.477,10-10
	c0-13.931-5.901-27.308-16-36.714V188c0-5.523-4.478-10-10-10s-10,4.477-10,10v100.505H76V220c0-5.523-4.478-10-10-10
	s-10,4.477-10,10v59.667H20V192c0-27.57,22.43-50,50-50h215.667v36h-41c-5.522,0-10,4.477-10,10s4.478,10,10,10h84.6v304
	c0,5.523,4.478,10,10,10s10-4.477,10-10V188v-18h29.066c5.522,0,10-4.477,10-10s-4.478-10-10-10h-29.066v-18V74h128.496
	l-31.083,30.909c-1.887,1.877-2.948,4.429-2.948,7.091s1.062,5.214,2.948,7.091L477.763,150h-16.027c-5.522,0-10,4.477-10,10
	s4.478,10,10,10H502c4.05,0,7.699-2.442,9.244-6.186c1.545-3.744,0.679-8.049-2.192-10.905L467.913,112z M168,308.506v161.432
	c0,3.145,1.479,6.106,3.994,7.996c4.775,3.587,8.328,8.526,10.285,14.067H132V389.127v-42.711c0-5.523-4.478-10-10-10
	s-10,4.477-10,10v42.711V492H61.721c1.957-5.541,5.51-10.48,10.285-14.068c2.515-1.889,3.994-4.85,3.994-7.995V308.506H168z M56,322
	H45.5c-12.988,0-23.731-9.763-25.296-22.333H56V322z M155,122h-33H82.158c-7.356,0-13.342-5.985-13.342-13.342V74.386
	C68.816,44.398,93.214,20,123.202,20c3.575,0,7.066,0.356,10.45,1.018L97.741,56.929c-3.905,3.905-3.905,10.237,0,14.142
	c1.953,1.953,4.512,2.929,7.071,2.929s5.118-0.977,7.071-2.929l41.744-41.743c14.448,9.787,23.961,26.332,23.961,45.058v34.272
	c0,7.356-5.985,13.342-13.342,13.342C164.246,122,155,122,155,122z M305.667,178v-36h23.6v18v18H305.667z"/>
<path d="M420.63,150c-2.63,0-5.21,1.07-7.07,2.93c-1.859,1.86-2.93,4.44-2.93,7.07s1.07,5.21,2.93,7.07S418,170,420.63,170
	c2.64,0,5.21-1.07,7.07-2.93c1.869-1.86,2.93-4.44,2.93-7.07s-1.061-5.21-2.93-7.07C425.84,151.07,423.27,150,420.63,150z"/>
<g>
</g>
<g>
</g>
<g>
</g>
<g>
</g>
<g>
</g>
<g>
</g>
<g>
</g>
<g>
</g>
<g>
</g>
<g>
</g>
<g>
</g>
<g>
</g>
<g>
</g>
<g>
</g>
<g>
</g>
</svg>
