<?xml version="1.0" encoding="iso-8859-1"?>
<!-- Generator: Adobe Illustrator 19.0.0, SVG Export Plug-In . SVG Version: 6.00 Build 0)  -->
<svg version="1.1" id="Capa_1" xmlns="http://www.w3.org/2000/svg" xmlns:xlink="http://www.w3.org/1999/xlink" x="0px" y="0px"
	 viewBox="0 0 512.001 512.001" style="enable-background:new 0 0 512.001 512.001;" xml:space="preserve">
<circle style="fill:#FFE5BB;" cx="255.999" cy="255.998" r="133.129"/>
<g>
	<circle style="fill:#FFD189;" cx="321.548" cy="190.699" r="40.5"/>
	<circle style="fill:#FFD189;" cx="190.349" cy="321.388" r="40.5"/>
	<path style="fill:#FFD189;" d="M129.537,214.327c9.558,10.984,23.629,17.938,39.333,17.938c28.792,0,52.132-23.34,52.132-52.132
		c0-18.282-9.419-34.356-23.66-43.662C165.471,152.142,140.784,180.18,129.537,214.327z"/>
</g>
<path d="M256.001,112.874c-22.331,0-43.482,5.144-62.336,14.305c-0.518,0.204-1.017,0.455-1.497,0.745
	c-46.967,23.503-79.293,72.081-79.293,128.076c0,38.238,15.073,73.022,39.59,98.722c1.406,1.596,2.909,3.102,4.502,4.51
	c25.731,24.694,60.64,39.894,99.034,39.894c78.919,0,143.126-64.207,143.126-143.126S334.92,112.874,256.001,112.874z
	 M352.052,190.701c0,16.818-13.682,30.5-30.5,30.5c-16.818,0-30.5-13.682-30.5-30.5s13.682-30.5,30.5-30.5
	C338.37,160.201,352.052,173.883,352.052,190.701z M159.855,321.391c0-16.818,13.682-30.5,30.5-30.5s30.5,13.682,30.5,30.5
	c0,16.818-13.682,30.5-30.5,30.5c-7.553,0-14.469-2.766-19.801-7.33c-1.16-1.12-2.301-2.26-3.416-3.424
	C162.601,335.811,159.855,328.918,159.855,321.391z M256.001,379.126c-17.35,0-33.869-3.615-48.855-10.118
	c19.614-6.938,33.708-25.659,33.708-47.618c0-27.846-22.654-50.5-50.5-50.5c-21.891,0-40.566,14.004-47.555,33.522
	c-6.383-14.868-9.924-31.234-9.924-48.412c0-46.293,25.684-86.692,63.546-107.718c9.212,7.957,14.58,19.497,14.58,31.851
	c0,23.232-18.9,42.132-42.132,42.132c-5.523,0-10,4.477-10,10s4.477,10,10,10c34.26,0,62.132-27.873,62.132-62.132
	c0-15.128-5.444-29.431-15.061-40.563c12.565-4.335,26.042-6.696,40.061-6.696c17.379,0,33.924,3.627,48.929,10.151
	c-19.702,6.889-33.878,25.653-33.878,47.676c0,27.846,22.654,50.5,50.5,50.5c21.956,0,40.674-14.088,47.614-33.696
	c6.406,14.891,9.961,31.285,9.961,48.496C379.127,323.893,323.893,379.126,256.001,379.126z"/>
<path d="M345.122,256.652c-5.489-0.654-10.459,3.263-11.112,8.748c-2.692,22.615-15.118,42.937-34.09,55.754
	c-4.576,3.092-5.78,9.308-2.688,13.884c1.932,2.86,5.085,4.403,8.295,4.403c1.926,0,3.873-0.555,5.589-1.715
	c23.791-16.073,39.374-41.573,42.753-69.961C354.522,262.28,350.605,257.304,345.122,256.652z"/>
<path d="M501.999,246h-65.167c-5.523,0-10,4.477-10,10c0,5.523,4.477,10,10,10h65.167c5.523,0,10-4.477,10-10
	C511.999,250.477,507.522,246,501.999,246z"/>
<path d="M10.003,266H75.17c5.523,0,10-4.477,10-10c0-5.523-4.477-10-10-10H10.003c-5.523,0-10,4.477-10,10
	C0.003,261.523,4.48,266,10.003,266z"/>
<path d="M256.001,85.169c5.523,0,10-4.477,10-10V10.002c0-5.523-4.477-10-10-10c-5.523,0-10,4.477-10,10V75.17
	C246.001,80.692,250.478,85.169,256.001,85.169z"/>
<path d="M256.001,426.831c-5.523,0-10,4.477-10,10v65.167c0,5.523,4.477,10,10,10c5.523,0,10-4.477,10-10v-65.167
	C266.001,431.308,261.524,426.831,256.001,426.831z"/>
<path d="M156.897,104.346c1.844,3.237,5.222,5.053,8.699,5.053c1.677,0,3.378-0.423,4.94-1.313c4.799-2.733,6.474-8.84,3.74-13.639
	L123.358,5.053c-2.733-4.799-8.841-6.475-13.639-3.74c-4.799,2.733-6.474,8.84-3.74,13.639L156.897,104.346z"/>
<path d="M400,491.998c-2.63,0-5.21,1.07-7.07,2.93c-1.86,1.86-2.93,4.44-2.93,7.07s1.07,5.21,2.93,7.07
	c1.86,1.86,4.44,2.93,7.07,2.93c2.63,0,5.21-1.07,7.07-2.93c1.86-1.86,2.93-4.44,2.93-7.07s-1.07-5.21-2.93-7.07
	C405.21,493.068,402.63,491.998,400,491.998z"/>
<path d="M354.993,407.463c-2.84-4.738-8.982-6.274-13.718-3.436c-4.737,2.839-6.275,8.981-3.436,13.718l29.57,49.333
	c1.875,3.127,5.188,4.86,8.586,4.86c1.75,0,3.522-0.459,5.132-1.424c4.737-2.839,6.275-8.981,3.436-13.718L354.993,407.463z"/>
<path d="M403.86,170.436c1.827,3.293,5.237,5.151,8.754,5.151c1.641,0,3.305-0.405,4.841-1.257l89.394-49.584
	c4.83-2.679,6.573-8.766,3.895-13.596c-2.678-4.829-8.764-6.574-13.596-3.895l-89.394,49.584
	C402.925,159.519,401.181,165.606,403.86,170.436z"/>
<path d="M108.072,341.442c-2.746-4.791-8.858-6.447-13.649-3.702L5.029,388.99c-4.792,2.747-6.449,8.857-3.702,13.649
	c1.848,3.223,5.218,5.028,8.685,5.028c1.687,0,3.396-0.427,4.964-1.326l89.394-51.25
	C109.162,352.344,110.819,346.233,108.072,341.442z"/>
<path d="M10.003,126.001c2.63,0,5.21-1.07,7.07-2.93s2.93-4.44,2.93-7.07c0-2.63-1.07-5.21-2.93-7.07s-4.44-2.93-7.07-2.93
	s-5.21,1.07-7.07,2.93s-2.93,4.44-2.93,7.07c0,2.63,1.07,5.21,2.93,7.07S7.373,126.001,10.003,126.001z"/>
<path d="M35.023,141.314l59.525,33.016c1.537,0.852,3.201,1.257,4.841,1.257c3.517,0,6.928-1.858,8.754-5.151
	c2.679-4.83,0.935-10.917-3.895-13.596l-59.525-33.016c-4.83-2.679-10.917-0.935-13.596,3.895S30.193,138.635,35.023,141.314z"/>
<path d="M506.875,387.602l-89.394-49.917c-4.823-2.692-10.914-0.966-13.606,3.855c-2.693,4.822-0.966,10.914,3.855,13.606
	l89.394,49.917c1.543,0.862,3.216,1.271,4.866,1.271c3.506,0,6.909-1.848,8.74-5.126
	C513.423,396.386,511.696,390.294,506.875,387.602z"/>
<path d="M378.42,42.272c1.546,0.866,3.224,1.278,4.878,1.278c3.501,0,6.9-1.842,8.733-5.114l13.192-23.546
	c2.699-4.818,0.982-10.912-3.836-13.612c-4.818-2.699-10.912-0.982-13.612,3.836L374.584,28.66
	C371.885,33.478,373.602,39.573,378.42,42.272z"/>
<path d="M341.528,108.12c1.546,0.866,3.224,1.278,4.878,1.278c3.501,0,6.9-1.842,8.733-5.114l15.635-27.908
	c2.699-4.818,0.982-10.913-3.836-13.612c-4.819-2.699-10.913-0.981-13.612,3.836l-15.634,27.909
	C334.993,99.327,336.71,105.421,341.528,108.12z"/>
<path d="M170.534,403.915c-4.797-2.732-10.905-1.059-13.639,3.74l-50.917,89.394c-2.733,4.799-1.059,10.905,3.74,13.639
	c1.562,0.89,3.262,1.313,4.94,1.313c3.477,0,6.855-1.816,8.699-5.053l50.917-89.394
	C177.008,412.755,175.333,406.648,170.534,403.915z"/>
<g>
</g>
<g>
</g>
<g>
</g>
<g>
</g>
<g>
</g>
<g>
</g>
<g>
</g>
<g>
</g>
<g>
</g>
<g>
</g>
<g>
</g>
<g>
</g>
<g>
</g>
<g>
</g>
<g>
</g>
</svg>
