<?xml version="1.0" encoding="iso-8859-1"?>
<!-- Generator: Adobe Illustrator 19.0.0, SVG Export Plug-In . SVG Version: 6.00 Build 0)  -->
<svg version="1.1" id="Capa_1" xmlns="http://www.w3.org/2000/svg" xmlns:xlink="http://www.w3.org/1999/xlink" x="0px" y="0px"
	 viewBox="0 0 512 512" style="enable-background:new 0 0 512 512;" xml:space="preserve">
<polygon style="fill:#9AA9FF;" points="100.967,207.589 100.967,256.044 195.035,256.044 152.654,172.213 "/>
<path style="fill:#C8D0FF;" d="M329.936,10H221.937c-11.046,0-20,8.954-20,20v63.999c0,11.046,8.954,20,20,20h107.999
	c11.046,0,20-8.954,20-20V30C349.936,18.954,340.982,10,329.936,10z"/>
<circle style="fill:#8396FF;" cx="275.938" cy="62" r="24"/>
<rect x="255.938" y="113.999" style="fill:#C8D0FF;" width="40" height="142.049"/>
<circle style="fill:#9AA9FF;" cx="73.999" cy="437.997" r="63.999"/>
<circle style="fill:#FFFFFF;" cx="73.999" cy="437.997" r="24"/>
<circle style="fill:#9AA9FF;" cx="255.998" cy="437.997" r="63.999"/>
<circle style="fill:#FFFFFF;" cx="255.998" cy="437.997" r="24"/>
<circle style="fill:#9AA9FF;" cx="437.997" cy="437.997" r="63.999"/>
<circle style="fill:#FFFFFF;" cx="437.997" cy="437.997" r="24"/>
<rect x="64" y="256.048" style="fill:#ECEEFF;" width="383.997" height="117.959"/>
<path style="fill:#DDE2FF;" d="M10.002,183.109c36.806,36.806,96.48,36.806,133.286,0s36.806-96.48,0-133.286L10.002,183.109z"/>
<path d="M256,472c18.748,0,34-15.252,34-34s-15.252-34-34-34s-34,15.252-34,34S237.252,472,256,472z M256,424.001
	c7.72,0,14,6.28,14,14s-6.28,14-14,14s-14-6.28-14-14S248.28,424.001,256,424.001z"/>
<path d="M74.001,472c18.748,0,34-15.252,34-34s-15.252-34-34-34s-34,15.252-34,34S55.254,472,74.001,472z M74.001,424.001
	c7.72,0,14,6.28,14,14s-6.28,14-14,14s-14-6.28-14-14S66.282,424.001,74.001,424.001z"/>
<path d="M403.999,438.001c0,18.748,15.252,34,34,34s34-15.252,34-34s-15.252-34-34-34S403.999,419.253,403.999,438.001z
	 M451.999,438.001c0,7.72-6.28,14-14,14s-14-6.28-14-14s6.28-14,14-14S451.999,430.281,451.999,438.001z"/>
<path d="M106.001,288.998c-5.523,0-10,4.477-10,10v32.131c0,5.523,4.477,10,10,10c5.523,0,10-4.477,10-10v-32.131
	C116.001,293.475,111.524,288.998,106.001,288.998z"/>
<path d="M148.001,288.998c-5.523,0-10,4.477-10,10v32.131c0,5.523,4.477,10,10,10s10-4.477,10-10v-32.131
	C158.001,293.475,153.524,288.998,148.001,288.998z"/>
<path d="M190.001,288.998c-5.523,0-10,4.477-10,10v32.131c0,5.523,4.477,10,10,10c5.523,0,10-4.477,10-10v-32.131
	C200,293.475,195.523,288.998,190.001,288.998z"/>
<path d="M309.937,62c0-18.748-15.252-34-34-34s-34,15.252-34,34s15.252,34,34,34S309.937,80.747,309.937,62z M261.937,62
	c0-7.72,6.28-14,14-14s14,6.28,14,14s-6.28,14-14,14S261.937,69.719,261.937,62z"/>
<path d="M295.94,173.669c-2.63,0-5.21,1.06-7.07,2.93c-1.86,1.86-2.93,4.44-2.93,7.07c0,2.63,1.06,5.2,2.93,7.07
	c1.86,1.86,4.44,2.93,7.07,2.93s5.21-1.07,7.07-2.93c1.86-1.86,2.93-4.44,2.93-7.07c0-2.64-1.07-5.21-2.93-7.07
	C301.15,174.729,298.57,173.669,295.94,173.669z"/>
<path d="M448.841,106.929l8.481,15.06c1.772,3.146,5.103,5.093,8.713,5.093h35.963c5.523,0,10-4.477,10-10c0-5.523-4.477-10-10-10
	h-30.118l-9.316-16.542l9.316-16.541h30.119c5.523,0,10-4.477,10-10s-4.477-10-10-10h-35.963c-3.611,0-6.941,1.947-8.713,5.093
	l-14.276,25.347l-51.521,51.521c-1.875,1.875-2.929,4.419-2.929,7.071v103.013h-82.66v-26.046c0-5.523-4.477-10-10-10
	s-10,4.477-10,10v26.046h-20V123.999h20v25.333c0,5.523,4.477,10,10,10s10-4.477,10-10v-25.333h24c16.542,0,30-13.458,30-30V30
	c0-16.542-13.458-30-30-30H221.937c-16.542,0-30,13.458-30,30v63.999c0,16.542,13.458,30,30,30h24v122.045h-44.754l-36.936-73.061
	c26.051-40.363,21.427-94.916-13.888-130.232c-3.905-3.905-10.238-3.905-14.142,0L103.96,75.008H45.188c-5.523,0-10,4.477-10,10
	v58.772L2.931,176.038c-3.905,3.905-3.905,10.237,0,14.142c19.69,19.69,45.869,30.534,73.714,30.534
	c4.833,0,9.615-0.334,14.323-0.977v26.309H64.002c-5.523,0-10,4.477-10,10V366.77c-31.115,8.749-54,37.358-54,71.23
	C0.002,478.804,33.198,512,74.001,512s73.999-33.196,73.999-73.999c0-21.285-9.046-40.487-23.48-54h80.959
	c-14.434,13.513-23.48,32.715-23.48,54C182.001,478.804,215.196,512,256,512s73.999-33.196,73.999-73.999
	c0-21.285-9.046-40.487-23.48-54h80.959c-14.434,13.513-23.48,32.715-23.48,54c0,40.804,33.196,73.999,73.999,73.999
	s73.999-33.196,73.999-73.999c0-33.873-22.885-62.482-54-71.23V256.044c0-5.523-4.477-10-10-10h-39.402v-98.871L448.841,106.929z
	 M211.937,93.999V30c0-5.514,4.486-10,10-10h107.999c5.514,0,10,4.486,10,10v63.999c0,5.514-4.486,10-10,10H221.937
	C216.423,103.999,211.937,99.513,211.937,93.999z M55.188,95.008h28.772L55.188,123.78V95.008z M24.557,182.696L142.871,64.382
	c26.021,33.035,23.803,81.199-6.654,111.655c-15.913,15.913-37.069,24.676-59.573,24.676
	C57.51,200.713,39.348,194.376,24.557,182.696z M110.967,214.95c14.659-5.096,28.095-13.474,39.393-24.771
	c0.038-0.038,0.075-0.078,0.113-0.116l28.301,55.981h-67.806C110.967,246.044,110.967,214.95,110.967,214.95z M128.001,438.001
	c0,29.776-24.224,54-54,54s-54-24.224-54-54s24.224-54,54-54S128.001,408.225,128.001,438.001z M310,438.001
	c0,29.776-24.224,54-54,54c-29.776,0-54-24.224-54-54s24.224-54,54-54C285.776,384.001,310,408.225,310,438.001z M491.998,438.001
	c0,29.776-24.224,54-54,54c-29.776,0-54-24.224-54-54s24.224-54,54-54C467.774,384.001,491.998,408.225,491.998,438.001z
	 M437.999,364.001H74.001v-97.957h363.997V364.001z"/>
<path d="M295.937,288.998c-5.523,0-10,4.477-10,10c0,5.523,4.477,10,10,10h100.395c5.523,0,10-4.477,10-10c0-5.523-4.477-10-10-10
	H295.937z"/>
<path d="M255.94,288.998c-2.64,0-5.21,1.07-7.07,2.93c-1.87,1.86-2.93,4.44-2.93,7.07s1.06,5.21,2.93,7.07
	c1.86,1.86,4.43,2.93,7.07,2.93c2.63,0,5.21-1.07,7.07-2.93c1.86-1.86,2.93-4.44,2.93-7.07s-1.07-5.21-2.93-7.07
	C261.15,290.068,258.57,288.998,255.94,288.998z"/>
<g>
</g>
<g>
</g>
<g>
</g>
<g>
</g>
<g>
</g>
<g>
</g>
<g>
</g>
<g>
</g>
<g>
</g>
<g>
</g>
<g>
</g>
<g>
</g>
<g>
</g>
<g>
</g>
<g>
</g>
</svg>
