<?xml version="1.0" encoding="iso-8859-1"?>
<!-- Generator: Adobe Illustrator 19.0.0, SVG Export Plug-In . SVG Version: 6.00 Build 0)  -->
<svg version="1.1" id="Capa_1" xmlns="http://www.w3.org/2000/svg" xmlns:xlink="http://www.w3.org/1999/xlink" x="0px" y="0px"
	 viewBox="0 0 512.001 512.001" style="enable-background:new 0 0 512.001 512.001;" xml:space="preserve">
<g>
	
		<rect x="185.379" y="105.28" transform="matrix(-0.5 -0.866 0.866 -0.5 210.3091 372.3885)" style="fill:#C8D0FF;" width="54.547" height="40.408"/>
	<path style="fill:#C8D0FF;" d="M440.938,176.224l-72.233-125.11c-3.828-6.631-1.557-15.11,5.075-18.938l35.182-20.312
		c6.631-3.828,15.11-1.557,18.938,5.075l72.233,125.11c3.828,6.631,1.557,15.11-5.075,18.938l-35.182,20.312
		C453.245,185.127,444.767,182.855,440.938,176.224z"/>
</g>
<rect x="60.085" y="272.087" transform="matrix(-0.5 -0.866 0.866 -0.5 -136.229 521.0912)" style="fill:#7C8FFF;" width="44.448" height="55.567"/>
<polygon style="fill:#ACB8FF;" points="130.178,327.326 82.468,244.691 372.329,57.389 437.315,169.948 "/>
<path style="fill:#ECEEFF;" d="M38.977,356.634l-27.49-47.614c-3.046-5.276-1.238-12.023,4.038-15.069l23.456-13.543l38.521,66.72
	l-23.456,13.543C48.768,363.717,42.022,361.909,38.977,356.634z"/>
<circle style="fill:#FFDFAD;" cx="256.122" cy="256.124" r="23.999"/>
<path d="M508.792,137.048L436.56,11.937c-6.58-11.396-21.203-15.312-32.598-8.734L368.78,23.515
	c-5.521,3.187-9.469,8.333-11.119,14.49c-1.453,5.42-0.968,11.053,1.343,16.089l-111.213,71.864l-17.624-30.525l0.916-0.529
	c4.783-2.761,6.422-8.877,3.66-13.66c-2.761-4.784-8.877-6.422-13.66-3.66l-27.071,15.63l-17.496,10.102
	c-0.001,0.001-0.002,0.001-0.003,0.002l-9.573,5.527c-4.783,2.761-6.422,8.877-3.66,13.66c1.852,3.208,5.213,5.001,8.669,5.001
	c1.696,0,3.416-0.432,4.991-1.341l0.916-0.529l19.138,33.147L77.041,236.292c-4.475,2.892-5.897,8.785-3.233,13.399l7.744,13.412
	l-30.763,17.76l-3.149-5.454c-2.762-4.783-8.877-6.423-13.66-3.66l-23.456,13.543c-4.865,2.809-8.345,7.344-9.799,12.771
	c-1.454,5.426-0.708,11.094,2.102,15.958l27.489,47.614c3.892,6.74,10.974,10.511,18.249,10.511c3.564,0,7.177-0.906,10.48-2.813
	l23.456-13.543c2.297-1.326,3.973-3.51,4.659-6.072c0.687-2.562,0.327-5.292-0.999-7.588l-3.149-5.454l30.763-17.761l7.744,13.412
	c1.846,3.197,5.202,5.001,8.667,5.001c1.537,0,3.096-0.355,4.553-1.102l101.944-52.236c5.515,3.86,12.217,6.134,19.444,6.134
	c0.84,0,1.671-0.041,2.496-0.101l79.68,201.968h-25.97c-5.523,0-10,4.477-10,10s4.477,10,10,10h40.636
	c0.011,0,0.022,0.002,0.033,0.002c0.018,0,0.035-0.002,0.053-0.002h37.944c5.523,0,10-4.477,10-10s-4.477-10-10-10h-31.195
	l-82.554-209.254c7.719-6.139,12.715-15.554,12.865-26.125l143.404-73.481c4.583,6.443,11.931,10.021,19.467,10.021
	c4.046,0,8.144-1.028,11.892-3.192l35.183-20.312c5.52-3.187,9.469-8.333,11.119-14.49
	C512.827,148.999,511.98,142.568,508.792,137.048z M49.045,352.011c-0.494,0.286-1.125,0.115-1.41-0.377L20.146,304.02
	c-0.142-0.245-0.176-0.508-0.103-0.782c0.073-0.274,0.235-0.485,0.48-0.626l14.797-8.543l28.521,49.4L49.045,352.011z
	 M195.176,115.635l8.836-5.102l8.836-5.102l18.125,31.393l-17.16,11.089L195.176,115.635z M73.013,319.355l-12.224-21.171
	l30.763-17.76l12.224,21.171L73.013,319.355z M242.127,256.124c0-7.72,6.28-14,14-14c7.72,0,14,6.28,14,14c0,7.72-6.28,14-14,14
	C248.406,270.123,242.127,263.842,242.127,256.124z M284.302,237.116c-6.117-9.039-16.465-14.992-28.176-14.992
	c-18.747,0-33.999,15.252-33.999,33.999c0,4.137,0.745,8.103,2.104,11.773l-20.668,10.591l-20.049-34.726
	c-2.761-4.783-8.878-6.422-13.66-3.66c-4.783,2.761-6.422,8.877-3.66,13.66l19.547,33.858l-51.659,26.47l-38.199-66.162
	l170.253-110.014l15.188,26.304c1.852,3.208,5.213,5.001,8.669,5.001c1.696,0,3.416-0.432,4.991-1.341
	c4.783-2.761,6.422-8.877,3.66-13.66l-15.689-27.173l85.97-55.551l54.472,94.349L284.302,237.116z M491.858,149.98
	c-0.155,0.578-0.594,1.65-1.8,2.346l-35.183,20.312c-1.845,1.065-4.212,0.431-5.278-1.415L377.365,46.114
	c-0.696-1.206-0.541-2.354-0.386-2.931c0.155-0.578,0.595-1.65,1.801-2.347l35.183-20.312c1.845-1.064,4.212-0.431,5.278,1.414
	l72.233,125.11C492.168,148.254,492.013,149.403,491.858,149.98z"/>
<path d="M309.228,182.559c-2.63,0-5.21,1.07-7.07,2.93c-1.86,1.86-2.92,4.43-2.92,7.07c0,2.63,1.06,5.21,2.92,7.07
	c1.86,1.86,4.44,2.93,7.07,2.93c2.64,0,5.21-1.07,7.08-2.93c1.86-1.86,2.92-4.44,2.92-7.07s-1.06-5.21-2.92-7.07
	C314.447,183.629,311.868,182.559,309.228,182.559z"/>
<path d="M232.13,307.495c-2.64,0-5.21,1.07-7.07,2.93c-1.87,1.86-2.93,4.44-2.93,7.07c0,2.63,1.06,5.21,2.93,7.07
	c1.86,1.86,4.43,2.93,7.07,2.93c2.63,0,5.21-1.07,7.07-2.93c1.86-1.86,2.93-4.44,2.93-7.07c0-2.63-1.07-5.21-2.93-7.07
	C237.34,308.565,234.76,307.495,232.13,307.495z"/>
<path d="M221.482,343.617c-5.138-2.025-10.945,0.496-12.972,5.632l-56.312,142.74h-21.062c-5.523,0-10,4.477-10,10s4.477,10,10,10
	h27.811c0.018,0,0.035,0.002,0.053,0.002c0.011,0,0.022-0.002,0.033-0.002h50.769c5.523,0,10-4.477,10-10s-4.477-10-10-10h-36.103
	l53.417-135.4C229.141,351.452,226.619,345.644,221.482,343.617z"/>
<g>
</g>
<g>
</g>
<g>
</g>
<g>
</g>
<g>
</g>
<g>
</g>
<g>
</g>
<g>
</g>
<g>
</g>
<g>
</g>
<g>
</g>
<g>
</g>
<g>
</g>
<g>
</g>
<g>
</g>
</svg>
