<?xml version="1.0" encoding="iso-8859-1"?>
<!-- Generator: Adobe Illustrator 19.0.0, SVG Export Plug-In . SVG Version: 6.00 Build 0)  -->
<svg version="1.1" id="Capa_1" xmlns="http://www.w3.org/2000/svg" xmlns:xlink="http://www.w3.org/1999/xlink" x="0px" y="0px"
	 viewBox="0 0 512 512" style="enable-background:new 0 0 512 512;" xml:space="preserve">
<path style="fill:#FFE5BB;" d="M236,256V30c0-11.046,8.954-20,20-20l0,0c11.046,0,20,8.954,20,20v226H236z"/>
<polygon style="fill:#FE7A77;" points="429.541,126 276,126 276,30 429.541,30 381.273,78 "/>
<path style="fill:#C6ECF6;" d="M502,502c0-135.862-110.138-246-246-246S10,366.138,10,502H502z"/>
<g>
	<circle style="fill:#70CEE8;" cx="221.22" cy="359.19" r="31.871"/>
	<circle style="fill:#70CEE8;" cx="392.62" cy="365.9" r="53.06"/>
	<path style="fill:#70CEE8;" d="M54.794,502c36.63,0,66.324-29.694,66.324-66.323c0-36.63-29.694-66.324-66.324-66.324
		c-2.09,0-4.153,0.112-6.193,0.302c-21.587,33.758-35.143,73.139-38.013,115.453C22.32,495.61,37.809,502,54.794,502z"/>
	<circle style="fill:#70CEE8;" cx="291.1" cy="466.9" r="35.1"/>
</g>
<path d="M54.958,492h-0.164c-5.523,0-10,4.477-10,10s4.477,10,10,10h0.164c5.523,0,10-4.477,10-10S60.481,492,54.958,492z"/>
<path d="M437.019,320.98c-41.208-41.208-93.993-66.622-151.019-73.237V136h143.541c4.05,0,7.7-2.442,9.244-6.186
	s0.679-8.049-2.193-10.905L395.455,78l41.138-40.909c2.872-2.855,3.737-7.161,2.193-10.905S433.591,20,429.541,20H284.28
	C280.152,8.361,269.036,0,256,0c-16.542,0-30,13.458-30,30v70.5c0,5.523,4.477,10,10,10s10-4.477,10-10V30c0-5.514,4.486-10,10-10
	s10,4.486,10,10v96v120.21c-3.324-0.127-6.655-0.21-10-0.21s-6.676,0.083-10,0.21V184.5c0-5.523-4.477-10-10-10s-10,4.477-10,10
	v63.243c-57.026,6.615-109.811,32.029-151.019,73.237C26.628,369.333,0,433.62,0,502c0,5.523,4.477,10,10,10s10-4.477,10-10
	c0-44.893,12.604-86.897,34.454-122.664c0.114,0.004,0.226,0.017,0.341,0.017c31.057,0,56.323,25.267,56.323,56.323
	c0,16.622-7.291,32.313-20.004,43.051c-4.219,3.564-4.75,9.874-1.187,14.092c1.979,2.342,4.802,3.547,7.645,3.547
	c2.279,0,4.571-0.775,6.448-2.36c17.222-14.547,27.099-35.807,27.099-58.331c0-37.818-27.653-69.282-63.797-75.278
	C110.42,303.114,178.955,266,256,266c46.946,0,90.732,13.783,127.531,37.509c-30.479,4.419-53.972,30.71-53.972,62.395
	c0,34.771,28.288,63.059,63.059,63.059c31.602,0,57.842-23.368,62.365-53.731C478.407,411.873,492,455.378,492,502
	c0,5.523,4.477,10,10,10s10-4.477,10-10C512,433.62,485.372,369.333,437.019,320.98z M374.222,70.909
	c-1.888,1.877-2.949,4.429-2.949,7.091s1.061,5.214,2.949,7.091L405.304,116H286V40h119.304L374.222,70.909z M392.618,408.963
	c-23.743,0-43.059-19.316-43.059-43.059s19.316-43.059,43.059-43.059s43.059,19.316,43.059,43.059S416.36,408.963,392.618,408.963z"
	/>
<path d="M263.093,359.188c0-23.088-18.783-41.871-41.871-41.871s-41.871,18.783-41.871,41.871s18.783,41.871,41.871,41.871
	S263.093,382.275,263.093,359.188z M221.222,381.059c-12.06,0-21.871-9.812-21.871-21.871s9.812-21.871,21.871-21.871
	s21.871,9.812,21.871,21.871S233.281,381.059,221.222,381.059z"/>
<path d="M291.099,421.802c-24.868,0-45.099,20.231-45.099,45.099S266.231,512,291.099,512s45.099-20.231,45.099-45.099
	S315.967,421.802,291.099,421.802z M291.099,492C277.259,492,266,480.741,266,466.901s11.259-25.099,25.099-25.099
	s25.099,11.259,25.099,25.099S304.939,492,291.099,492z"/>
<path d="M236,155c2.63,0,5.21-1.07,7.07-2.93S246,147.63,246,145s-1.07-5.21-2.93-7.07c-1.86-1.86-4.44-2.93-7.07-2.93
	s-5.21,1.07-7.07,2.93c-1.86,1.86-2.93,4.44-2.93,7.07s1.07,5.21,2.93,7.07C230.79,153.93,233.37,155,236,155z"/>
<g>
</g>
<g>
</g>
<g>
</g>
<g>
</g>
<g>
</g>
<g>
</g>
<g>
</g>
<g>
</g>
<g>
</g>
<g>
</g>
<g>
</g>
<g>
</g>
<g>
</g>
<g>
</g>
<g>
</g>
</svg>
