<?xml version="1.0" encoding="iso-8859-1"?>
<!-- Generator: Adobe Illustrator 19.0.0, SVG Export Plug-In . SVG Version: 6.00 Build 0)  -->
<svg version="1.1" id="Capa_1" xmlns="http://www.w3.org/2000/svg" xmlns:xlink="http://www.w3.org/1999/xlink" x="0px" y="0px"
	 viewBox="0 0 512 512" style="enable-background:new 0 0 512 512;" xml:space="preserve">
<g>
	<path style="fill:#F3F5FF;" d="M148,296.936l-93.98,65.832C26.43,382.094,10,413.662,10,447.347v14.647h138V296.936z"/>
	<path style="fill:#F3F5FF;" d="M364,296.936l93.98,65.832c27.59,19.326,44.02,50.894,44.02,84.58v14.647H364V296.936z"/>
</g>
<g>
	<path style="fill:#C8D0FF;" d="M462,365.583v-102.64c0-24.786-10.545-48.402-29-64.948l0,0l-0.276,0.266
		C415.648,214.704,406,237.389,406,261.095v65.261L462,365.583z"/>
	<path style="fill:#C8D0FF;" d="M50,365.583v-102.64c0-24.786,10.545-48.402,29-64.948l0,0l0.276,0.266
		C96.352,214.704,106,237.389,106,261.095v65.261L50,365.583z"/>
</g>
<rect x="50" y="461.991" style="fill:#ACB8FF;" width="56" height="40"/>
<path style="fill:#FE7A77;" d="M364,461.995H148V210.303c0-80.704,40.628-155.987,108.089-200.284l0.038-0.025l0,0
	C323.464,54.314,364,129.524,364,210.136V461.995z"/>
<path style="fill:#C8D0FF;" d="M256.089,10.02c-42.142,27.672-73.813,67.435-91.649,113.058h183.186
	c-17.793-45.613-49.411-85.382-91.499-113.083l0,0L256.089,10.02z"/>
<path style="fill:#FFFFFF;" d="M300,501.995h-88V304.257c0-39.863,15.848-78.091,44.052-106.262l0,0l0.022,0.022
	C284.201,226.177,300,264.351,300,304.153V501.995z"/>
<rect x="406" y="461.991" style="fill:#ACB8FF;" width="56" height="40"/>
<path d="M472,360.972v-98.029c0-27.59-11.782-53.977-32.324-72.394c-3.901-3.498-9.839-3.391-13.612,0.242l-0.276,0.267
	C406.857,209.287,396,234.815,396,261.095v46.047l-22-15.411v-81.596c0-84.24-42.01-162.181-112.375-208.494
	c-3.334-2.193-7.689-2.171-11.025,0.019C180.094,47.958,138,125.955,138,210.303v81.428l-22,15.411v-46.047
	c0-26.28-10.857-51.808-29.787-70.038l-0.276-0.266c-3.775-3.634-9.711-3.739-13.612-0.242C51.782,208.966,40,235.353,40,262.943
	v98.029c-25.216,21.396-40,52.971-40,86.375v14.647c0,5.523,4.478,10,10,10h30v30c0,5.523,4.478,10,10,10h56c5.522,0,10-4.477,10-10
	v-30h86v30c0,5.523,4.478,10,10,10h88c5.522,0,10-4.477,10-10v-30h86v30c0,5.523,4.478,10,10,10h56c5.522,0,10-4.477,10-10v-30h30
	c5.522,0,10-4.477,10-10v-14.647C512,413.943,497.216,382.368,472,360.972z M433.231,212.481
	c8.755,10.15,14.695,22.415,17.286,35.514h-33.383C419.39,235.024,424.944,222.74,433.231,212.481z M416,267.995h36v78.374
	l-36-25.217V267.995z M60,346.369v-78.374h36v53.157L60,346.369z M78.769,212.481c8.287,10.259,13.842,22.544,16.097,35.514H61.482
	C64.074,234.896,70.014,222.631,78.769,212.481z M20,447.347c0-30.395,14.862-58.951,39.757-76.389L138,316.15v135.844H20V447.347z
	 M96,491.995H60v-20h36V491.995z M266,491.995v-112.53c0-5.523-4.478-10-10-10s-10,4.477-10,10v112.529h-24V314.257h68v177.738
	L266,491.995L266,491.995z M222.354,294.257c2.119-30.273,13.836-58.653,33.691-81.591c19.822,22.947,31.513,51.329,33.609,81.591
	H222.354z M310,304.153c0-42.752-16.639-82.956-46.877-113.23c-3.903-3.902-10.232-3.905-14.138-0.004
	C218.687,221.183,202,261.433,202,304.257v147.738h-44V210.303c0-75.378,36.549-145.245,98.12-188.229
	c33.555,23.484,59.64,54.987,76.42,91.003h-82.874c-5.522,0-10,4.477-10,10c0,5.523,4.478,10,10,10h91.067
	c8.66,24.368,13.267,50.365,13.267,77.059v241.859h-44V304.153z M452,491.995h-36v-20h36V491.995z M492,451.995H374V316.15
	l78.243,54.808C477.138,388.396,492,416.953,492,447.347V451.995z"/>
<path d="M212,113.075c-2.63,0-5.21,1.07-7.07,2.93s-2.93,4.44-2.93,7.07s1.069,5.21,2.93,7.07c1.86,1.87,4.44,2.93,7.07,2.93
	s5.21-1.06,7.069-2.93c1.86-1.86,2.931-4.44,2.931-7.07s-1.07-5.21-2.931-7.07C217.21,114.145,214.63,113.075,212,113.075z"/>
<path d="M256,334.495c-2.641,0-5.21,1.07-7.07,2.93s-2.93,4.44-2.93,7.07s1.069,5.21,2.93,7.07s4.44,2.93,7.07,2.93
	s5.21-1.07,7.069-2.93c1.86-1.86,2.931-4.44,2.931-7.07s-1.07-5.21-2.931-7.07C261.21,335.564,258.63,334.495,256,334.495z"/>
<g>
</g>
<g>
</g>
<g>
</g>
<g>
</g>
<g>
</g>
<g>
</g>
<g>
</g>
<g>
</g>
<g>
</g>
<g>
</g>
<g>
</g>
<g>
</g>
<g>
</g>
<g>
</g>
<g>
</g>
</svg>
