<?xml version="1.0" encoding="iso-8859-1"?>
<!-- Generator: Adobe Illustrator 19.0.0, SVG Export Plug-In . SVG Version: 6.00 Build 0)  -->
<svg version="1.1" id="Capa_1" xmlns="http://www.w3.org/2000/svg" xmlns:xlink="http://www.w3.org/1999/xlink" x="0px" y="0px"
	 viewBox="0 0 511.999 511.999" style="enable-background:new 0 0 511.999 511.999;" xml:space="preserve">
<path style="fill:#FFDFAD;" d="M210.075,345.861v101.798l-88.066,53.904l-80.317-35.226L9.988,406.452l55.558-104.103l84.643-16.373
	L210.075,345.861z"/>
<g>
	<path style="fill:#FFD189;" d="M408.365,452.742L408.365,452.742c-7.942,15.586-25.016,24.287-42.295,21.551l0,0
		c-17.278-2.736-30.828-16.287-33.565-33.565l0,0c-2.736-17.278,5.963-34.353,21.551-42.295l0,0
		c15.586-7.942,34.515-4.944,46.884,7.426l0,0C413.309,418.229,416.307,437.156,408.365,452.742z"/>
	<path style="fill:#FFD189;" d="M86.346,185.558L86.346,185.558c-7.942,15.586-25.016,24.287-42.295,21.551l0,0
		c-17.278-2.736-30.828-16.287-33.565-33.565l0,0c-2.736-17.278,5.963-34.353,21.551-42.295l0,0
		c15.586-7.942,34.515-4.944,46.884,7.426l0,0C91.29,151.043,94.288,169.97,86.346,185.558z"/>
</g>
<path d="M248.606,129.269c2.555,0,5.109-0.974,7.058-2.924l80.016-80.016c3.898-3.898,3.898-10.219,0-14.118
	c-3.899-3.898-10.218-3.898-14.118,0l-80.016,80.016c-3.898,3.898-3.898,10.219,0,14.118
	C243.497,128.294,246.052,129.269,248.606,129.269z"/>
<path d="M160.259,207.635c1.95,1.95,4.504,2.924,7.058,2.924s5.109-0.975,7.058-2.924l50.745-50.744
	c3.898-3.898,3.898-10.219,0-14.117c-3.898-3.898-10.217-3.898-14.118,0l-50.745,50.744
	C156.359,197.416,156.359,203.737,160.259,207.635z"/>
<path d="M501.113,20.418c2.625,0,5.201-1.068,7.056-2.925c1.857-1.857,2.926-4.432,2.926-7.057s-1.068-5.201-2.926-7.057
	c-1.856-1.857-4.431-2.925-7.056-2.925s-5.201,1.068-7.057,2.925c-1.857,1.857-2.925,4.432-2.925,7.057s1.067,5.201,2.925,7.057
	C495.913,19.35,498.489,20.418,501.113,20.418z"/>
<path d="M380.899,290.884c3.898-3.898,3.898-10.219,0-14.118c-3.899-3.898-10.218-3.898-14.118,0L220.057,423.49v-77.63
	c0-2.647-1.052-5.187-2.924-7.058l-15.134-15.134L483.716,41.952c3.898-3.898,3.898-10.219,0-14.117
	c-3.897-3.898-10.218-3.898-14.118,0L187.881,309.551l-30.633-30.633c-2.345-2.344-5.698-3.376-8.955-2.742l-84.644,16.373
	c-2.955,0.571-5.493,2.446-6.911,5.1L1.181,401.751c-1.561,2.927-1.567,6.439-0.016,9.37l31.705,59.885
	c1.054,1.99,2.75,3.567,4.812,4.471l80.316,35.227c1.282,0.562,2.647,0.84,4.009,0.84c1.814,0,3.621-0.494,5.213-1.468
	l88.067-53.904c0.9-0.551,1.679-1.245,2.348-2.024L380.899,290.884z M200.093,442.065l-78.849,48.262l-72.356-31.736l-27.595-52.121
	l50.82-95.225l74.768-14.462l33.937,33.937c0.002,0.002,0.004,0.005,0.006,0.007c0.002,0.002,0.005,0.004,0.007,0.006l19.263,19.263
	V442.065z"/>
<path d="M440.803,202.744l-40.444,40.444c-3.898,3.898-3.898,10.219,0,14.118c1.95,1.95,4.504,2.924,7.058,2.924
	s5.109-0.974,7.058-2.924l40.444-40.444c3.898-3.898,3.898-10.219,0-14.118C451.021,198.846,444.702,198.846,440.803,202.744z"/>
<path d="M477.515,170.162c-2.625,0-5.201,1.068-7.056,2.925c-1.857,1.857-2.926,4.432-2.926,7.057c0,2.625,1.068,5.201,2.926,7.057
	c1.856,1.857,4.431,2.925,7.056,2.925c2.636,0,5.201-1.068,7.067-2.925c1.857-1.857,2.926-4.432,2.926-7.057
	c0-2.625-1.068-5.201-2.926-7.057C482.716,171.231,480.15,170.162,477.515,170.162z"/>
<path d="M151.571,336.216c-3.897-3.898-10.216-3.898-14.118,0c-3.898,3.898-3.898,10.219,0,14.117l22.933,22.933v41.725
	c0,5.513,4.47,9.982,9.982,9.982c5.512,0,9.982-4.469,9.982-9.982v-45.859c0-2.647-1.052-5.187-2.924-7.058L151.571,336.216z"/>
<path d="M60.506,414.493c-2.579-4.872-8.62-6.731-13.493-4.152c-4.872,2.579-6.731,8.621-4.152,13.493l13.023,24.597
	c1.792,3.384,5.252,5.314,8.831,5.314c1.574,0,3.173-0.374,4.662-1.162c4.872-2.579,6.731-8.621,4.152-13.493L60.506,414.493z"/>
<path d="M509.076,240.634c-3.899-3.898-10.218-3.898-14.118,0L337.924,397.667c-11.981,11.205-17.945,27.787-15.279,44.622
	c3.424,21.616,20.247,38.439,41.863,41.864c2.665,0.422,5.324,0.628,7.956,0.628c13.539,0,26.37-5.45,35.731-14.935l78.015-78.015
	c3.898-3.898,3.898-10.219,0-14.118c-3.899-3.898-10.218-3.898-14.118,0l-49.799,49.799c-1.465-10.605-6.312-20.727-14.297-28.712
	c-7.976-7.977-18.086-12.82-28.679-14.292L509.076,254.75C512.974,250.853,512.974,244.533,509.076,240.634z M358.588,407.327
	c4.395-2.24,9.128-3.329,13.818-3.329c7.87,0,15.622,3.068,21.475,8.92c9.34,9.34,11.587,23.524,5.591,35.293
	c-5.997,11.77-18.794,18.292-31.839,16.223c-13.047-2.066-23.201-12.221-25.268-25.268c-1.536-9.699,1.679-19.253,8.262-25.984
	c0.062-0.059,0.129-0.111,0.19-0.172l0.45-0.45C353.398,410.505,355.844,408.725,358.588,407.327z"/>
<path d="M42.49,216.967c2.666,0.422,5.324,0.628,7.957,0.628c13.538,0,26.369-5.45,35.73-14.935l89.793-89.793
	c3.898-3.898,3.898-10.219,0-14.118c-3.899-3.898-10.218-3.898-14.118,0l-61.577,61.577c-1.465-10.605-6.312-20.727-14.297-28.712
	c-7.98-7.98-18.096-12.825-28.695-14.293l99.825-99.826c3.898-3.898,3.898-10.219,0-14.117c-3.899-3.898-10.218-3.898-14.118,0
	L15.37,131.001C3.752,142.196-1.999,158.524,0.628,175.104C4.05,196.72,20.875,213.543,42.49,216.967z M28.668,145.932
	c0.019-0.019,0.04-0.035,0.059-0.054l0.271-0.271c2.187-2.157,4.722-4.015,7.573-5.467c4.395-2.24,9.128-3.329,13.818-3.329
	c7.87,0,15.622,3.068,21.475,8.92c9.34,9.34,11.587,23.524,5.591,35.293c-5.996,11.77-18.793,18.29-31.839,16.222
	c-13.047-2.066-23.201-12.22-25.267-25.268C18.804,162.252,22.042,152.667,28.668,145.932z"/>
<g>
</g>
<g>
</g>
<g>
</g>
<g>
</g>
<g>
</g>
<g>
</g>
<g>
</g>
<g>
</g>
<g>
</g>
<g>
</g>
<g>
</g>
<g>
</g>
<g>
</g>
<g>
</g>
<g>
</g>
</svg>
