<?xml version="1.0" encoding="iso-8859-1"?>
<!-- Generator: Adobe Illustrator 19.0.0, SVG Export Plug-In . SVG Version: 6.00 Build 0)  -->
<svg version="1.1" id="Capa_1" xmlns="http://www.w3.org/2000/svg" xmlns:xlink="http://www.w3.org/1999/xlink" x="0px" y="0px"
	 viewBox="0 0 512 512" style="enable-background:new 0 0 512 512;" xml:space="preserve">
<rect x="417.297" y="24.247" transform="matrix(-0.7071 -0.7071 0.7071 -0.7071 729.5973 421.8524)" style="fill:#ECEEFF;" width="69.739" height="71.149"/>
<rect x="390.375" y="75.755" transform="matrix(0.7071 -0.7071 0.7071 0.7071 49.8087 320.5487)" style="fill:#C8D0FF;" width="42.933" height="48.79"/>
<path style="fill:#FFFFFF;" d="M253,63.99L253,63.99c119.294,0,216,96.706,216,216v222H37v-222C37,160.696,133.706,63.99,253,63.99z
	"/>
<path style="fill:#ACB8FF;" d="M253,63.99L253,63.99c119.294,0,216,96.706,216,216v222H37v-222C37,160.696,133.706,63.99,253,63.99z
	"/>
<g>
	<rect x="37" y="282.99" style="fill:#FFFFFF;" width="432" height="56"/>
	<rect x="296" y="385.99" style="fill:#FFFFFF;" width="88" height="116"/>
</g>
<path d="M252.499,123.657c0.01,0,0.021,0,0.03,0l0.471-0.001c5.522,0,10-4.477,10-10s-4.478-10-10-10l-0.529,0.001
	c-5.522,0.016-9.987,4.506-9.971,10.029C242.517,119.199,246.99,123.657,252.499,123.657z"/>
<path d="M114.22,187.727c1.806,1.365,3.924,2.024,6.024,2.024c3.026,0,6.018-1.369,7.983-3.969
	c20.647-27.302,50.076-47.349,82.864-56.449c5.322-1.477,8.438-6.988,6.962-12.31c-1.477-5.322-6.988-8.438-12.31-6.961
	c-36.994,10.267-70.188,32.874-93.468,63.657C108.944,178.124,109.815,184.396,114.22,187.727z"/>
<path d="M229,375.99h-88.667c-5.522,0-10,4.477-10,10s4.478,10,10,10H229c5.522,0,10-4.477,10-10S234.522,375.99,229,375.99z"/>
<path d="M101.27,375.99c-2.63,0-5.21,1.07-7.069,2.93c-1.86,1.86-2.931,4.44-2.931,7.07s1.07,5.21,2.931,7.07
	c1.859,1.86,4.439,2.93,7.069,2.93s5.21-1.07,7.07-2.93s2.93-4.44,2.93-7.07s-1.069-5.21-2.93-7.07
	C106.479,377.059,103.899,375.99,101.27,375.99z"/>
<path d="M502,491.99h-23v-212c0-53.803-18.688-104.727-52.97-145.387l18.235-18.235l0.334,0.334
	c1.953,1.953,4.512,2.929,7.071,2.929s5.118-0.977,7.071-2.929l50.308-50.309c3.905-3.905,3.905-10.237,0-14.142l-49.31-49.312
	c-1.876-1.875-4.419-2.929-7.071-2.929s-5.195,1.054-7.071,2.929l-50.309,50.309c-1.875,1.875-2.929,4.419-2.929,7.071
	s1.054,5.196,2.929,7.071l0.334,0.334l-21.424,21.424c-35.89-22.892-77.6-35.16-121.198-35.16
	c-60.367,0-117.121,23.508-159.807,66.194S27,219.623,27,279.99v212H10c-5.522,0-10,4.477-10,10s4.478,10,10,10h492
	c5.522,0,10-4.477,10-10S507.522,491.99,502,491.99z M383,328.99v-36h28v36H383z M335,328.99v-36h28v36H335z M287,328.99v-36h28v36
	H287z M239,328.99v-36h28v36H239z M191,328.99v-36h28v36H191z M143,328.99v-36h28v36H143z M95,328.99v-36h28v36H95z M47,328.99v-36
	h28v36H47z M431,292.99h28v36h-28V292.99z M452.668,24.153l35.169,35.169l-36.166,36.166l-0.329-0.329
	c-0.002-0.002-0.003-0.003-0.005-0.005l-34.5-34.5c-0.003-0.003-0.007-0.006-0.01-0.009l-0.325-0.325L452.668,24.153z
	 M409.765,81.867l20.358,20.357l-17.642,17.641c-6.876-6.85-14.12-13.197-21.679-19.036L409.765,81.867z M253,73.99
	c111.245,0,202.163,88.641,205.868,199H47.132C50.837,162.63,141.755,73.99,253,73.99z M306,491.99v-96h68v96H306z M394,491.99v-106
	c0-5.523-4.478-10-10-10h-88c-5.522,0-10,4.477-10,10v106H47v-143h412v143H394z"/>
<g>
</g>
<g>
</g>
<g>
</g>
<g>
</g>
<g>
</g>
<g>
</g>
<g>
</g>
<g>
</g>
<g>
</g>
<g>
</g>
<g>
</g>
<g>
</g>
<g>
</g>
<g>
</g>
<g>
</g>
</svg>
