<?xml version="1.0" encoding="iso-8859-1"?>
<!-- Generator: Adobe Illustrator 19.0.0, SVG Export Plug-In . SVG Version: 6.00 Build 0)  -->
<svg version="1.1" id="Capa_1" xmlns="http://www.w3.org/2000/svg" xmlns:xlink="http://www.w3.org/1999/xlink" x="0px" y="0px"
	 viewBox="0 0 512.002 512.002" style="enable-background:new 0 0 512.002 512.002;" xml:space="preserve">
<circle style="fill:#C6ECF6;" cx="210.017" cy="301.983" r="200.015"/>
<g>
	<path style="fill:#BDED7E;" d="M210.017,101.971c-3.91,0-7.791,0.125-11.646,0.346v56.351c0,9.371,3.749,18.352,10.412,24.943
		l18.433,18.232c6.567,6.495,15.432,10.139,24.67,10.139h31.155c6.452,0,12.59,2.79,16.832,7.652l45.348,51.961
		c1.63,1.868,3.989,2.94,6.469,2.94h14.806c4.742,0,8.587,3.844,8.587,8.587v20.84c0,2.277,0.905,4.461,2.515,6.071l27.777,27.777
		l1.201,1.304c2.259-12.032,3.454-24.44,3.454-37.128C410.031,191.52,320.482,101.971,210.017,101.971z"/>
	<path style="fill:#BDED7E;" d="M10.002,301.985c0,34.291,8.635,66.563,23.841,94.77c4.917-3.218,8.355-5.509,8.355-5.509
		l22.737-39.821c3.306-5.789,9.462-9.364,16.128-9.364h28.489c4.925,0,9.65-1.957,13.133-5.439l28.479-28.479
		c4.042-4.042,6.312-9.524,6.312-15.24v-26.008c0-11.903-9.65-21.553-21.553-21.553H92.97c-11.903,0-21.553-9.65-21.553-21.553
		v-66.003C33.564,194.179,10.002,245.328,10.002,301.985z"/>
	<path style="fill:#BDED7E;" d="M398.315,369.565l-1.999-1.771l-57.624,7.204l-18.083,52.14
		c-2.792,8.05-10.376,13.447-18.896,13.447l0,0c-7.348,0-14.103-4.028-17.595-10.493l-16.274-30.117
		c-4.465-8.264-13.102-13.414-22.495-13.414l0,0c-20.945,0-41.031,8.32-55.84,23.13l-9.272,9.272
		c-8.083,8.083-9.819,20.549-4.251,30.532l29.242,52.443l0.004,0.001c1.592,0.037,3.187,0.061,4.787,0.061
		C296.763,502,370.6,446.773,398.315,369.565z"/>
</g>
<circle style="fill:#FFE5BB;" cx="430.033" cy="81.969" r="72.005"/>
<g>
	<circle style="fill:#FFD189;" cx="461.085" cy="113.019" r="28.102"/>
	<path style="fill:#FFD189;" d="M362.15,57.923c0.624,0.773,1.293,1.522,2.012,2.241c10.973,10.973,28.764,10.973,39.737,0
		s10.973-28.764,0-39.737c-1.392-1.392-2.895-2.606-4.479-3.645c-7.346,3.449-14.232,8.202-20.301,14.271
		C371.27,38.902,365.617,48.113,362.15,57.923z"/>
</g>
<path d="M384.079,184.437c-3.094-4.575-9.312-5.774-13.887-2.679c-4.574,3.095-5.774,9.313-2.679,13.887
	c21.274,31.443,32.518,68.215,32.518,106.341c0,5.28-0.227,10.509-0.652,15.682l-14.293-14.293v-20.254
	c0-10.25-8.338-18.587-18.587-18.587h-14.164l-44.925-51.477c-6.143-7.04-15.024-11.076-24.368-11.076h-31.155
	c-6.648,0-12.911-2.574-17.637-7.25L215.814,176.5c-4.73-4.678-7.444-11.178-7.444-17.832v-46.675
	c0.549-0.005,1.095-0.021,1.645-0.021c36.228,0,71.45,10.229,101.862,29.58c4.66,2.963,10.841,1.591,13.807-3.068
	c2.965-4.66,1.591-10.841-3.068-13.807C288.99,103.279,250.054,91.97,210.017,91.97c-3.256,0-6.493,0.085-9.715,0.233
	c-0.625-0.122-5.041,0.273-4.988,0.29C86.345,100.065,0.001,191.125,0.001,301.985c0,115.803,94.213,210.016,210.016,210.016
	s210.016-94.213,210.016-210.016C420.032,259.849,407.6,219.201,384.079,184.437z M61.417,183.708v40.083
	c0,17.398,14.155,31.552,31.553,31.552h42.953c6.369,0,11.552,5.182,11.552,11.552v26.008c0,3.085-1.202,5.986-3.383,8.169
	l-28.479,28.479c-1.619,1.619-3.771,2.511-6.061,2.511H81.062c-10.232,0-19.739,5.52-24.813,14.405l-19.334,33.862
	c-10.859-23.9-16.912-50.428-16.912-78.343C20.002,257.306,35.512,216.187,61.417,183.708z M47.223,399.887
	c1.474-0.856,2.752-2.095,3.658-3.682l22.737-39.821c1.522-2.666,4.374-4.321,7.444-4.321h28.489c7.633,0,14.808-2.972,20.204-8.369
	l28.479-28.479c5.959-5.959,9.242-13.883,9.242-22.312v-26.008c0-17.398-14.155-31.553-31.553-31.553H92.97
	c-6.369,0-11.552-5.182-11.552-11.551v-61.558c28.862-26.579,65.945-44.35,106.952-49.022v45.455c0,11.96,4.876,23.644,13.38,32.053
	l18.433,18.231c8.495,8.403,19.753,13.03,31.702,13.03h31.155c3.565,0,6.955,1.54,9.298,4.226l45.348,51.962
	c3.53,4.045,8.635,6.365,14.004,6.365h13.393v19.425c0,4.965,1.933,9.633,5.443,13.144l25.186,25.186
	c-1.177,5.43-2.575,10.78-4.208,16.028l-54.056,6.757c-3.778,0.472-6.96,3.049-8.209,6.646l-18.083,52.14
	c-1.395,4.021-5.191,6.724-9.448,6.724c-3.678,0-7.049-2.01-8.798-5.246l-16.273-30.117c-6.219-11.51-18.21-18.66-31.293-18.66
	c-23.765,0-46.107,9.255-62.913,26.059l-9.272,9.272c-11.189,11.189-13.621,28.654-5.915,42.474l20.236,36.292
	C127.989,483.596,76.838,448.945,47.223,399.887z M211.126,491.986l-26.408-47.361c-3.372-6.048-2.308-13.693,2.589-18.59
	l9.272-9.272c13.026-13.027,30.346-20.202,48.769-20.202c5.726,0,10.975,3.129,13.696,8.168l16.273,30.117
	c5.246,9.709,15.36,15.739,26.395,15.739c12.77,0,24.161-8.106,28.344-20.171l16.045-46.264l37.397-4.674
	C353.929,445.413,287.842,491.544,211.126,491.986z"/>
<path d="M344.377,167.625c0.036,0.035,0.071,0.07,0.107,0.105l0.203,0.204c1.955,1.968,4.524,2.953,7.096,2.953
	c2.548,0,5.096-0.968,7.048-2.905c3.918-3.892,3.94-10.225,0.048-14.143c-0.08-0.081-0.16-0.16-0.241-0.237
	c-0.063-0.067-0.127-0.133-0.192-0.199l-0.001,0.001c-0.017-0.016-0.036-0.029-0.052-0.045c0.017,0.016,0.035,0.029,0.052,0.045
	l-0.007,0.007c-0.507-0.47-1.019-0.87-1.533-1.218c-0.204-0.134-0.403-0.279-0.615-0.396c-4.759-2.803-9.592-0.864-12.003,1.527
	c-3.909,3.875-3.908,10.219-0.059,14.145C344.276,167.522,344.326,167.573,344.377,167.625z"/>
<path d="M357.552,152.642c0.289,0.223,0.571,0.458,0.84,0.718C358.122,153.102,357.842,152.864,357.552,152.642z"/>
<path d="M356.966,152.236c0.198,0.129,0.394,0.262,0.584,0.407C357.362,152.496,357.164,152.367,356.966,152.236z"/>
<path d="M356.769,152.098c0.044,0.029,0.089,0.066,0.133,0.096c0.021,0.014,0.043,0.027,0.064,0.042
	C356.9,152.192,356.837,152.14,356.769,152.098z"/>
<path d="M219.654,20.125c3.2,0.107,6.444,0.271,9.644,0.487c0.229,0.015,0.457,0.023,0.684,0.023c5.215,0,9.611-4.046,9.968-9.328
	c0.372-5.51-3.793-10.28-9.305-10.651c-3.424-0.231-6.896-0.407-10.322-0.521c-5.532-0.159-10.145,4.141-10.33,9.661
	C209.81,15.316,214.135,19.94,219.654,20.125z"/>
<path d="M313.733,39.644c2.976,1.178,5.975,2.425,8.915,3.706c1.301,0.567,2.657,0.836,3.992,0.836c3.856,0,7.532-2.245,9.172-6.005
	c2.208-5.063-0.107-10.957-5.169-13.165c-3.148-1.373-6.361-2.708-9.55-3.97c-5.136-2.034-10.947,0.483-12.979,5.619
	C306.081,31.801,308.597,37.613,313.733,39.644z"/>
<path d="M170.084,22.672c0.451,0,0.908-0.03,1.368-0.093c3.171-0.434,6.401-0.819,9.602-1.146c5.494-0.561,9.495-5.469,8.934-10.964
	c-0.561-5.494-5.47-9.493-10.964-8.934c-3.425,0.35-6.885,0.762-10.281,1.227c-5.472,0.748-9.302,5.791-8.554,11.264
	C160.874,19.037,165.162,22.672,170.084,22.672z"/>
<path d="M267.542,25.834c3.138,0.65,6.306,1.364,9.417,2.121c0.794,0.193,1.59,0.286,2.373,0.286c4.505,0,8.597-3.066,9.709-7.639
	c1.306-5.366-1.985-10.776-7.353-12.082c-3.332-0.811-6.727-1.575-10.088-2.272c-5.408-1.117-10.701,2.355-11.822,7.764
	C258.658,19.42,262.134,24.713,267.542,25.834z"/>
<path d="M33.112,79.634c2.114,0,4.246-0.668,6.057-2.049c2.548-1.943,5.165-3.869,7.78-5.725c4.503-3.197,5.563-9.44,2.366-13.944
	c-3.197-4.504-9.441-5.563-13.944-2.366c-2.799,1.987-5.602,4.049-8.332,6.131c-4.391,3.349-5.236,9.625-1.887,14.017
	C27.121,78.279,30.099,79.634,33.112,79.634z"/>
<path d="M121.367,33.665c1.005,0,2.027-0.152,3.036-0.474c3.05-0.971,6.164-1.902,9.255-2.77c5.317-1.492,8.42-7.013,6.928-12.331
	c-1.493-5.318-7.015-8.422-12.331-6.928c-3.313,0.929-6.649,1.928-9.919,2.969c-5.263,1.675-8.172,7.3-6.496,12.563
	C113.194,30.949,117.129,33.665,121.367,33.665z"/>
<path d="M75.267,52.851c1.557,0,3.137-0.365,4.613-1.134c2.843-1.482,5.75-2.934,8.642-4.316c4.982-2.382,7.092-8.354,4.708-13.336
	c-2.382-4.983-8.355-7.091-13.336-4.708c-3.097,1.481-6.212,3.037-9.258,4.624c-4.897,2.553-6.8,8.593-4.247,13.491
	C68.172,50.892,71.657,52.851,75.267,52.851z"/>
<path d="M490.61,273.428c0.518,5.155,4.865,9.002,9.939,9.002c0.334,0,0.672-0.017,1.012-0.051
	c5.495-0.552,9.503-5.455,8.951-10.951c-0.342-3.406-0.749-6.862-1.209-10.273c-0.739-5.474-5.78-9.31-11.249-8.573
	c-5.473,0.739-9.312,5.775-8.573,11.249C489.91,267.018,490.291,270.247,490.61,273.428z"/>
<path d="M502.204,302.384c-5.525-0.173-10.15,4.127-10.343,9.647c-0.111,3.196-0.279,6.441-0.5,9.646
	c-0.38,5.51,3.778,10.285,9.289,10.665c0.234,0.017,0.467,0.024,0.698,0.024c5.209,0,9.603-4.037,9.967-9.314
	c0.236-3.43,0.417-6.904,0.536-10.326C512.043,307.207,507.724,302.575,502.204,302.384z"/>
<path d="M485.199,400.467c-5.132-2.04-10.947,0.469-12.987,5.601c-1.18,2.97-2.43,5.965-3.717,8.905
	c-2.215,5.06,0.091,10.957,5.15,13.172c1.306,0.571,2.666,0.842,4.005,0.842c3.852,0,7.524-2.238,9.167-5.992
	c1.378-3.148,2.718-6.358,3.982-9.541C492.84,408.32,490.332,402.506,485.199,400.467z"/>
<path d="M497.92,352.159c-5.411-1.13-10.705,2.339-11.834,7.747c-0.653,3.129-1.371,6.294-2.133,9.408
	c-1.313,5.365,1.97,10.779,7.335,12.092c0.799,0.196,1.599,0.29,2.386,0.29c4.5,0,8.588-3.059,9.706-7.625
	c0.816-3.334,1.585-6.724,2.285-10.078C506.795,358.586,503.326,353.287,497.92,352.159z"/>
<path d="M500.959,220.654c-0.922-3.304-1.915-6.642-2.952-9.917c-1.666-5.265-7.285-8.184-12.552-6.516
	c-5.265,1.667-8.184,7.287-6.516,12.552c0.967,3.058,1.895,6.171,2.755,9.257c1.234,4.421,5.251,7.316,9.628,7.316
	c0.889,0,1.794-0.12,2.693-0.371C499.335,231.49,502.444,225.975,500.959,220.654z"/>
<path d="M436.111,487.086c-4.149-3.644-10.468-3.235-14.114,0.916c-2.112,2.405-4.297,4.81-6.496,7.148
	c-3.784,4.023-3.589,10.353,0.434,14.137c1.931,1.816,4.393,2.715,6.85,2.715c2.662,0,5.319-1.057,7.288-3.149
	c2.353-2.502,4.693-5.077,6.956-7.653C440.671,497.049,440.262,490.73,436.111,487.086z"/>
<path d="M464.379,445.883c-4.709-2.887-10.867-1.412-13.753,3.297c-1.674,2.73-3.419,5.47-5.187,8.146
	c-3.046,4.607-1.78,10.812,2.827,13.857c1.698,1.123,3.612,1.659,5.505,1.659c3.245,0,6.428-1.577,8.352-4.486
	c1.893-2.863,3.761-5.796,5.553-8.72C470.564,454.928,469.088,448.771,464.379,445.883z"/>
<path d="M430.033,163.936c21.001,0,42-7.994,57.987-23.981c31.974-31.974,31.974-84,0-115.975
	c-31.975-31.974-83.999-31.974-115.975,0c-31.974,31.974-31.974,84,0,115.975C388.034,155.943,409.033,163.936,430.033,163.936z
	 M448.283,125.812c-7.057-7.057-7.057-18.537,0-25.593c3.528-3.528,8.163-5.292,12.797-5.292c4.634,0,9.269,1.764,12.796,5.292
	c7.057,7.057,7.057,18.537,0,25.593C466.821,132.869,455.34,132.868,448.283,125.812z M386.19,38.125
	c3.642-3.642,7.635-6.726,11.862-9.271c5.803,7.102,5.396,17.617-1.223,24.238c-0.932,0.931-1.958,1.759-3.053,2.46
	c-4.649,2.981-6,9.168-3.02,13.817c1.91,2.978,5.134,4.603,8.428,4.603c1.848,0,3.718-0.512,5.389-1.583
	c2.299-1.475,4.451-3.208,6.397-5.153c12.41-12.411,14.443-31.319,6.117-45.87c4.264-0.904,8.604-1.372,12.945-1.372
	c15.878,0,31.755,6.043,43.843,18.131c14.143,14.143,19.999,33.473,17.593,51.924c-1.046-1.382-2.19-2.713-3.449-3.973
	c-14.855-14.854-39.024-14.855-53.88,0c-14.855,14.855-14.855,39.025,0,53.88c1.26,1.26,2.591,2.403,3.973,3.449
	c-18.449,2.405-37.78-3.45-51.924-17.593C362.014,101.638,362.014,62.301,386.19,38.125z"/>
<path d="M145.26,195.478h-34.336c-5.523,0-10.001,4.477-10.001,10.001s4.477,10.001,10.001,10.001h34.336
	c5.523,0,10.001-4.477,10.001-10.001S150.783,195.478,145.26,195.478z"/>
<path d="M178.014,215.479c2.63,0,5.21-1.07,7.071-2.93s2.93-4.44,2.93-7.071s-1.07-5.21-2.93-7.071c-1.86-1.86-4.44-2.93-7.071-2.93
	s-5.21,1.07-7.071,2.93c-1.86,1.86-2.93,4.44-2.93,7.071s1.07,5.21,2.93,7.071C172.804,214.408,175.384,215.479,178.014,215.479z"/>
<g>
</g>
<g>
</g>
<g>
</g>
<g>
</g>
<g>
</g>
<g>
</g>
<g>
</g>
<g>
</g>
<g>
</g>
<g>
</g>
<g>
</g>
<g>
</g>
<g>
</g>
<g>
</g>
<g>
</g>
</svg>
