<?xml version="1.0" encoding="iso-8859-1"?>
<!-- Generator: Adobe Illustrator 19.0.0, SVG Export Plug-In . SVG Version: 6.00 Build 0)  -->
<svg version="1.1" id="Capa_1" xmlns="http://www.w3.org/2000/svg" xmlns:xlink="http://www.w3.org/1999/xlink" x="0px" y="0px"
	 viewBox="0 0 512 512" style="enable-background:new 0 0 512 512;" xml:space="preserve">
<path style="fill:#9AA9FF;" d="M294.603,502H37l0,0c0-29.823,24.177-54,54-54h149.603C270.426,448,294.603,472.177,294.603,502
	L294.603,502z"/>
<path style="fill:#ECEEFF;" d="M132.958,109.792c-66.965,66.965-66.965,175.535,0,242.5s175.535,66.965,242.5,0L132.958,109.792z"/>
<polygon style="fill:#DDE2FF;" points="114,448 163.671,335.333 224,370 224,448 "/>
<circle style="fill:#FFE5BB;" cx="371.62" cy="113.38" r="20"/>
<path d="M371.622,83.378c-13.815,0-25.471,9.389-28.942,22.119L186.52,149.21l-46.49-46.49c-3.905-3.905-10.237-3.905-14.143,0
	c-34.276,34.276-53.152,79.848-53.152,128.321c0,48.474,18.876,94.045,53.152,128.321c3.696,3.697,7.587,7.25,11.582,10.614
	L107.48,438H91c-35.29,0-64,28.71-64,64c0,5.523,4.477,10,10,10h257.603c5.523,0,10-4.477,10-10c0-35.29-28.71-64-64-64H234v-26.618
	c6.671,0.741,13.345,1.116,19.998,1.116c47.782,0,94.28-18.884,128.532-53.135c3.905-3.905,3.905-10.237,0-14.143l-46.74-46.74
	l43.714-156.16c12.73-3.471,22.119-15.128,22.119-28.942C401.622,96.836,388.164,83.378,371.622,83.378z M283.457,492H48.146
	c4.54-19.46,22.031-34,42.854-34h149.603C261.426,458,278.917,472.54,283.457,492z M129.337,438l38.996-88.454L214,375.787V438
	H129.337z M234,391.237V370c0-3.58-1.914-6.887-5.018-8.67l-60.33-34.667c-2.459-1.413-5.404-1.716-8.1-0.832
	c-2.696,0.885-4.889,2.872-6.033,5.468l-8.605,19.519c-2.008-1.819-3.975-3.688-5.885-5.598
	c-30.498-30.498-47.294-71.047-47.294-114.179c0-39.78,14.29-77.366,40.438-106.894l17.788,17.788
	c-21.432,24.757-33.127,56.032-33.127,89.106c0,5.523,4.477,10,10,10c5.523,0,10-4.477,10-10c0-27.727,9.638-53.969,27.319-74.915
	l11.231,11.231c0.008,0.009,0.017,0.017,0.026,0.026l141.198,141.198c0.009,0.009,0.017,0.018,0.026,0.026l43.463,43.463
	C326.452,382.64,280.011,396.994,234,391.237z M268.226,230.917l48.48-48.48c3.905-3.905,3.905-10.237,0-14.143
	c-3.905-3.905-10.237-3.905-14.143,0l-48.48,48.48l-51.337-51.337l141.581-39.632c3.002,6.567,8.301,11.866,14.868,14.868
	l-39.632,141.581L268.226,230.917z M371.622,123.378c-5.514,0-10-4.486-10-10s4.486-10,10-10s10,4.486,10,10
	S377.136,123.378,371.622,123.378z"/>
<path d="M371.622,42c-5.523,0-10,4.477-10,10s4.477,10,10,10C399.952,62,423,85.048,423,113.378c0,5.523,4.477,10,10,10
	s10-4.477,10-10C443,74.02,410.98,42,371.622,42z"/>
<path d="M371.622,0c-5.523,0-10,4.477-10,10s4.477,10,10,10C423.111,20,465,61.889,465,113.378c0,5.523,4.477,10,10,10
	s10-4.477,10-10C485,50.861,434.139,0,371.622,0z"/>
<path d="M332.47,142.53c-2.63,0-5.21,1.07-7.07,2.93c-1.86,1.86-2.93,4.44-2.93,7.07s1.07,5.21,2.93,7.07s4.44,2.93,7.07,2.93
	s5.21-1.07,7.07-2.93c1.86-1.86,2.93-4.43,2.93-7.07c0-2.63-1.07-5.21-2.93-7.07C337.68,143.6,335.1,142.53,332.47,142.53z"/>
<circle cx="134.19" cy="270.65" r="10"/>
<g>
</g>
<g>
</g>
<g>
</g>
<g>
</g>
<g>
</g>
<g>
</g>
<g>
</g>
<g>
</g>
<g>
</g>
<g>
</g>
<g>
</g>
<g>
</g>
<g>
</g>
<g>
</g>
<g>
</g>
</svg>
