<?xml version="1.0" encoding="iso-8859-1"?>
<!-- Generator: Adobe Illustrator 19.0.0, SVG Export Plug-In . SVG Version: 6.00 Build 0)  -->
<svg version="1.1" id="Capa_1" xmlns="http://www.w3.org/2000/svg" xmlns:xlink="http://www.w3.org/1999/xlink" x="0px" y="0px"
	 viewBox="0 0 512 512" style="enable-background:new 0 0 512 512;" xml:space="preserve">
<circle style="fill:#9AA9FF;" cx="391.76" cy="120.23" r="22"/>
<circle style="fill:#C3CCFF;" cx="81.84" cy="430.22" r="35.1"/>
<path style="fill:#FFEDD1;" d="M291.147,128.065l7.634-3.732l3.983,7.506c11.57,21.806,32.555,37.053,56.869,41.318l8.369,1.468
	l-1.19,8.413c-3.457,24.442,4.559,49.112,21.722,66.854l5.908,6.107l-5.908,6.107c-17.164,17.742-25.179,42.412-21.722,66.854
	l1.19,8.413l-8.369,1.468c-24.314,4.265-45.3,19.512-56.869,41.318l-3.983,7.506l-7.634-3.732
	c-22.177-10.841-48.117-10.841-70.294,0l-7.634,3.732l-3.983-7.506c-11.57-21.806-32.555-37.053-56.869-41.318l-8.369-1.468l0,0
	c4.208-29.751-5.549-59.779-26.44-81.374l0,0l5.908-6.107c17.164-17.742,25.179-42.412,21.722-66.854l-1.19-8.413l8.369-1.468
	c24.314-4.265,45.3-19.512,56.869-41.318l3.983-7.506l7.634,3.732C243.03,138.906,268.97,138.906,291.147,128.065z"/>
<circle style="fill:#FFCB79;" cx="256" cy="256" r="80"/>
<path d="M256,166c-49.626,0-90,40.374-90,90s40.374,90,90,90s90-40.374,90-90S305.626,166,256,166z M256,326
	c-38.598,0-70-31.402-70-70s31.402-70,70-70s70,31.402,70,70S294.598,326,256,326z"/>
<path d="M256,458c111.383,0,202-90.617,202-202c0-28.061-5.647-55.227-16.786-80.742c-2.21-5.063-8.105-7.375-13.166-5.165
	c-5.062,2.209-7.374,8.104-5.165,13.166C432.915,206.236,438,230.709,438,256c0,100.355-81.645,182-182,182S74,356.355,74,256
	S155.645,74,256,74c14.925,0,29.764,1.81,44.104,5.378c5.359,1.335,10.786-1.93,12.119-7.289c1.333-5.36-1.93-10.786-7.289-12.119
	C289.015,56.008,272.552,54,256,54C144.617,54,54,144.617,54,256c0,53.275,20.741,101.79,54.56,137.92
	c-7.484-5.523-16.725-8.795-26.719-8.795c-24.868,0-45.099,20.231-45.099,45.099s20.231,45.099,45.099,45.099
	s45.099-20.231,45.099-45.099c0-10-3.276-19.246-8.805-26.732C154.259,437.28,202.752,458,256,458z M81.84,455.323
	c-13.84,0-25.099-11.259-25.099-25.099S68,405.125,81.84,405.125s25.099,11.259,25.099,25.099S95.68,455.323,81.84,455.323z"/>
<path d="M331.86,90.512c1.342,0.61,2.748,0.899,4.132,0.899c3.8,0,7.434-2.179,9.109-5.864c2.272-5,0.087-10.89-4.88-13.203
	c-4.978-2.341-10.916-0.221-13.283,4.75c-2.374,4.986-0.257,10.954,4.729,13.328C331.722,90.448,331.807,90.488,331.86,90.512z"/>
<path d="M437.019,74.981C388.667,26.628,324.38,0,256,0S123.333,26.628,74.981,74.981C26.628,123.333,0,187.62,0,256
	c0,43.983,11.344,87.369,32.804,125.467c2.71,4.812,8.808,6.515,13.621,3.805c4.812-2.71,6.516-8.809,3.805-13.621
	C30.453,336.543,20,296.552,20,256C20,125.869,125.869,20,256,20s236,105.869,236,236S386.131,492,256,492
	c-27.097,0-53.66-4.551-78.951-13.527c-5.205-1.845-10.921,0.875-12.769,6.08c-1.847,5.205,0.875,10.922,6.08,12.769
	C197.804,507.062,226.618,512,256,512c68.38,0,132.667-26.628,181.019-74.981C485.372,388.667,512,324.38,512,256
	S485.372,123.333,437.019,74.981z"/>
<path d="M144.003,463.786c-0.013-0.007-0.06-0.032-0.073-0.039c-4.875-2.594-10.896-0.725-13.491,4.151
	c-2.594,4.876-0.709,10.95,4.167,13.543c1.494,0.794,3.097,1.171,4.676,1.171c3.569,0,7.019-1.923,8.821-5.293
	C150.704,472.457,148.86,466.397,144.003,463.786z"/>
<path d="M256,203.667c-5.523,0-10,4.477-10,10s4.477,10,10,10c17.829,0,32.333,14.505,32.333,32.333c0,5.523,4.477,10,10,10
	s10-4.477,10-10C308.333,227.143,284.857,203.667,256,203.667z"/>
<path d="M311.597,127.152l-3.982-7.506c-2.528-4.765-8.38-6.667-13.225-4.297l-7.634,3.731l0,0c-19.546,9.555-41.965,9.555-61.511,0
	l-7.634-3.731c-4.844-2.368-10.697-0.467-13.225,4.297l-3.982,7.506c-10.197,19.219-28.335,32.397-49.764,36.155l-8.37,1.468
	c-5.313,0.932-8.929,5.909-8.173,11.25l1.19,8.414c3.047,21.541-3.881,42.864-19.008,58.5l-5.908,6.107
	c-3.75,3.877-3.75,10.029,0,13.906c18.881,19.518,27.529,46.132,23.726,73.021c-0.755,5.341,2.861,10.318,8.173,11.25l8.37,1.468
	c21.428,3.758,39.566,16.937,49.763,36.155l3.982,7.506c2.528,4.765,8.378,6.664,13.225,4.297l7.635-3.732
	c19.546-9.555,41.965-9.555,61.511,0l7.634,3.731c1.412,0.69,2.909,1.018,4.384,1.018c3.588,0,7.049-1.939,8.84-5.315l3.982-7.506
	c10.197-19.219,28.335-32.397,49.764-36.155l8.37-1.468c5.313-0.932,8.929-5.909,8.173-11.25l-1.19-8.414
	c-3.047-21.541,3.881-42.864,19.008-58.5l5.908-6.107c3.75-3.877,3.75-10.029,0-13.906l-5.908-6.107
	c-15.127-15.636-22.055-36.959-19.008-58.5l1.19-8.414c0.755-5.341-2.861-10.318-8.173-11.25l-8.37-1.468
	C339.932,159.549,321.794,146.371,311.597,127.152z M380.539,256c-18.616,19.737-27.245,46.292-23.785,73.203
	c-26.662,5.025-49.251,21.437-62.27,45.241c-24.524-11.606-52.446-11.605-76.97,0c-13.086-23.929-35.84-40.386-62.683-45.318
	c1.38-26.478-6.98-52.21-23.66-72.82c18.815-19.769,27.551-46.459,24.074-73.508c26.662-5.025,49.251-21.437,62.27-45.241
	c24.524,11.605,52.445,11.605,76.97,0c13.019,23.805,35.608,40.216,62.27,45.241C353.294,209.708,361.923,236.263,380.539,256z"/>
<path d="M391.765,152.235c17.645,0,32-14.355,32-32s-14.355-32-32-32s-32,14.355-32,32S374.12,152.235,391.765,152.235z
	 M391.765,108.235c6.617,0,12,5.383,12,12s-5.383,12-12,12s-12-5.383-12-12S385.148,108.235,391.765,108.235z"/>
<g>
</g>
<g>
</g>
<g>
</g>
<g>
</g>
<g>
</g>
<g>
</g>
<g>
</g>
<g>
</g>
<g>
</g>
<g>
</g>
<g>
</g>
<g>
</g>
<g>
</g>
<g>
</g>
<g>
</g>
</svg>
